<svg width="50" height="38" viewBox="0 0 50 38" fill="none" xmlns="http://www.w3.org/2000/svg">
<path d="M11.8294 17.0509C11.8294 20.3637 9.48499 22.5627 7.16079 22.5627C4.83659 22.5627 2.49219 20.3637 2.49219 17.0509C2.49219 13.7381 4.83659 11.5391 7.16079 11.5391C9.48499 11.5391 11.8294 13.7381 11.8294 17.0509Z" fill="black" stroke="#FFD2B1" stroke-width="5"/>
<path d="M46.2513 17.0509C46.2513 20.1413 44.0799 22.0627 42.0827 22.0627C40.0854 22.0627 37.9141 20.1413 37.9141 17.0509C37.9141 13.9605 40.0854 12.0391 42.0827 12.0391C44.0799 12.0391 46.2513 13.9605 46.2513 17.0509Z" fill="black" stroke="#FFD2B1" stroke-width="6"/>
<ellipse cx="23.7939" cy="20.4411" rx="15.7158" ry="17.5644" fill="#8B8686"/>
<path fill-rule="evenodd" clip-rule="evenodd" d="M17.2488 8.2168C15.4335 8.2168 13.9619 9.6884 13.9619 11.5037C13.9619 13.319 15.4335 14.7906 17.2488 14.7906H17.3978C15.0792 16.8606 13.5938 20.0474 13.5938 23.622C13.5938 29.8611 18.1193 34.919 23.7018 34.919C29.2843 34.919 33.8098 29.8611 33.8098 23.622C33.8098 20.0474 32.3243 16.8606 30.0057 14.7906H30.1589C31.9742 14.7906 33.4458 13.319 33.4458 11.5037C33.4458 9.6884 31.9742 8.2168 30.1589 8.2168H17.2488Z" fill="#FFD2B1"/>
<g opacity="0.3">
<rect opacity="0.5" width="1.68362" height="3.42885" rx="0.84181" transform="matrix(0.502871 0.864362 -0.808956 0.587869 22.25 13.9681)" fill="#892A01"/>
<rect opacity="0.5" width="1.68362" height="3.42885" rx="0.84181" transform="matrix(-0.502871 0.864362 0.808956 0.587869 24.9922 13.9681)" fill="#892A01"/>
</g>
<ellipse cx="18.4645" cy="11.6068" rx="1.37858" ry="1.54074" fill="black"/>
<ellipse cx="28.9411" cy="11.6068" rx="1.37858" ry="1.54074" fill="black"/>
<rect width="1.49503" height="6.48463" rx="0.747514" transform="matrix(0.91471 -0.40411 0.333447 0.942769 13.9062 0.60437)" fill="#8B8686"/>
<rect width="1.49503" height="6.48463" rx="0.747514" transform="matrix(-0.91471 -0.40411 -0.333447 0.942769 19.1406 0.60437)" fill="#8B8686"/>
<line x1="18.5547" y1="21.7146" x2="28.8481" y2="21.7146" stroke="black" stroke-width="3"/>
<path fill-rule="evenodd" clip-rule="evenodd" d="M18.5547 23.2146C18.5548 28.2065 20.859 32.2531 23.7014 32.2531C26.5437 32.2531 28.8479 28.2065 28.8481 23.2146H18.5547Z" fill="black"/>
<line x1="23.8359" y1="15.2023" x2="23.8359" y2="18.4892" stroke="#EDB997"/>
</svg>
