<?xml version="1.0" encoding="utf-8"?>
<!-- Generator: Adobe Illustrator 22.1.0, SVG Export Plug-In . SVG Version: 6.00 Build 0)  -->
<svg version="1.1" xmlns="http://www.w3.org/2000/svg" xmlns:xlink="http://www.w3.org/1999/xlink" x="0px" y="0px"
	 viewBox="0 0 386.4 278" style="enable-background:new 0 0 386.4 278;" xml:space="preserve">
<style type="text/css">
	.st0{fill:#BDE8FF;}
	.st1{fill:#FFC488;}
	.st2{fill-rule:evenodd;clip-rule:evenodd;fill:#E26E02;}
	.st3{fill-rule:evenodd;clip-rule:evenodd;fill:#FFDDA9;stroke:#FF9757;stroke-miterlimit:10;}
	.st4{opacity:0.44;fill-rule:evenodd;clip-rule:evenodd;fill:#FF9757;}
	.st5{fill:#BD4025;}
	.st6{opacity:0.29;fill:#A12427;}
	.st7{fill:#A12427;}
	.st8{opacity:0.29;fill-rule:evenodd;clip-rule:evenodd;fill:#A12427;}
	.st9{fill:#FFDDA9;}
	.st10{opacity:0.44;fill:#FF9757;}
	.st11{fill:#E26E02;}
	.st12{fill:#FF9757;}
	.st13{opacity:0.44;}
	.st14{fill:#DB2427;}
	.st15{fill:#FFFFFF;}
	.st16{fill:#FFDDA9;stroke:#FF9757;stroke-miterlimit:10;}
	.st17{opacity:0.29;}
	.st18{fill-rule:evenodd;clip-rule:evenodd;fill:#A12427;}
	.st19{fill-rule:evenodd;clip-rule:evenodd;fill:#D5452C;}
	.st20{fill:#D5452C;}
	.st21{fill:#FFA630;}
	.st22{fill:#FFC22A;}
	.st23{fill:#FFE24B;}
	.st24{fill:#B8B6B6;}
	.st25{fill:#9E9E9E;}
	.st26{fill:#4C4C4C;}
	.st27{opacity:0.58;fill:#4C4C4C;}
	.st28{fill:#EF2102;}
	.st29{opacity:0.46;fill:#FFFFFF;}
	.st30{fill:#D4D1D1;}
</style>
<g id="BACKGROUND">
</g>
<g id="OBJECTS">
	<g>
		<g>
			<ellipse id="XMLID_310_" class="st0" cx="162.9" cy="246.8" rx="162.9" ry="18.9"/>
			<path id="XMLID_309_" class="st0" d="M138.1,245.2c0,3.5-24.7,6.4-55.2,6.4c-30.5,0-55.2-2.9-55.2-6.4s24.7-6.4,55.2-6.4
				C113.4,238.8,138.1,241.7,138.1,245.2z"/>
			<path id="XMLID_308_" class="st0" d="M296.1,248.3c0,3.5-24.7,6.4-55.2,6.4c-30.5,0-55.2-2.9-55.2-6.4s24.7-6.4,55.2-6.4
				C271.4,241.8,296.1,244.7,296.1,248.3z"/>
			<g>
				<g>
					<path id="XMLID_307_" class="st1" d="M141.1,79.6c0.5-1.2,1-2.3,1.4-3.3c1-2.3,1.8-4.7,1.9-7.2c0.4-6.6-5.6-14.9-10.6-18.8
						c-5.9-4.6-13.3-5.6-20.6-4.8c-16.9,1.9-33,17.7-34.2,21.9c-1.2,4.2,27.7,2.3,27.7,2.3s7.7,1.2,10,0c0,0,1.9,7.7,7.7,8.5
						c0,0,3.5,11.5,3.5,11.5c0.3,1,7-1.1,7.6-1.5C137.7,86.6,139.7,82.9,141.1,79.6z"/>
					<g>
						<g>
							<path id="XMLID_306_" class="st2" d="M129.8,78.1c-0.5,0-1.3,0.1-2.3,0.1c-1,0-2.1-0.1-3.3-0.5c-1.2-0.3-2.3-1-3.4-1.9
								c-2.1-1.8-3.6-4.2-4.5-5.8c0,0,0,0,0,0c-0.2,0.1-0.5,0.1-0.7,0.2c0,0,0,0.1,0,0.1c0.3,0.9,0.8,2.1,1.5,3.2
								c0.7,1.2,1.6,2.4,2.8,3.4c1.2,1,2.7,1.7,4.1,1.9c1.4,0.2,2.6,0.2,3.6,0c1-0.2,1.8-0.4,2.3-0.6c0.5-0.2,0.8-0.3,0.8-0.3
								S130.4,78.1,129.8,78.1z"/>
						</g>
						<g>
							<path id="XMLID_305_" class="st2" d="M101.2,69.4c1.5,0.4,3.1,0.4,4.6,0.5c1.6,0,3,0,4.5,0c2.8-0.1,5.4-0.5,7.4-1.1
								c2.1-0.6,3.7-1.3,4.7-1.9c0.5-0.3,0.9-0.5,1.2-0.7c0.3-0.2,0.4-0.2,0.4-0.2s-0.1,0.1-0.4,0.3c-0.3,0.2-0.6,0.5-1.1,0.8
								c-1,0.7-2.6,1.6-4.6,2.4c-2.1,0.8-4.7,1.4-7.6,1.6c-1.5,0.1-3,0.2-4.6,0.2c-1.6,0-3.3,0-5-0.4c-0.9-0.2-1.7-0.6-2.5-1
								c-0.7-0.5-1.5-1-2-1.6c-1.2-1.2-1.9-2.8-2.2-4.3c-0.3-1.5-0.1-3,0.3-4.3c0.4-1.3,1.1-2.4,1.8-3.2c1.5-1.7,3.1-2.5,4.2-3.2
								c1.1-0.6,1.7-0.9,1.7-0.9s-0.6,0.4-1.6,1.1c-1,0.7-2.5,1.7-3.7,3.4c-1.2,1.6-2.1,4.2-1.5,6.8C95.9,66.3,98.2,68.7,101.2,69.4
								z"/>
						</g>
					</g>
					<path id="XMLID_304_" class="st3" d="M96.5,57.5c-0.9,0.7,6.2,1.6,7,4C104.3,64,112.6,45.2,96.5,57.5z"/>
					<path id="XMLID_303_" class="st4" d="M141.1,79.6c0.5-1.2,1-2.3,1.4-3.3c1-2.3,1.8-4.7,1.9-7.2c0.3-5.8-4.2-12.9-8.7-17.2
						c1.4,9.1-1,20.5-5.6,21.9c-6.1,1.9-10.3-2.9-8.1-4.9c2.3-1.9,5.2-11.3,5.2-11.3s-4.8,5.5-18.4,7.8c-13.6,2.3-13.3-6.8-13.3-6.8
						l-1,3.9c0,0,0,2.3-6.5,1c-2.6-0.5-3.1-2.1-2.7-3.9c-3.6,3.3-5.9,6.3-6.3,7.8c-1.2,4.2,27.7,2.3,27.7,2.3s7.7,1.2,10,0
						c0,0,1.9,7.7,7.7,8.5c0,0,3.5,11.5,3.5,11.5c0.3,1,7-1.1,7.6-1.5C137.7,86.6,139.7,82.9,141.1,79.6z"/>
				</g>
				<path id="XMLID_302_" class="st5" d="M141.4,57.4c0,0,2.3,10.7,1,13.9c-1.3,3.2-0.6,5.5-3.9,6.2c0,0,1.3,5.2-2.3,6.5
					c-3.6,1.3-4.8,2.6-4.8,2.6s4.5-1,4.2,1c-0.3,1.9-0.3,1.9-0.3,1.9s3.2-1.3,5.8-4.2c2.6-2.9,34.6,46,65.6,56.7s34.9-0.6,34.9-0.6
					l-2.9-10.4c-7.4-4.6-28.7,19.5-87.6-55.4C151.1,75.6,145.3,60.3,141.4,57.4z"/>
				<path id="XMLID_301_" class="st6" d="M206.7,142c20,6.9,28.7,4.6,32.4,2.1l-1.7-6c-7.4-4.6-28.7,19.5-87.6-55.4
					c0,0-3.6-9.4-7-14.9c0,1.5-0.1,2.7-0.4,3.5c-0.5,1.2-0.7,2.2-0.9,3.1c0.1,1.7,0,3.1-0.4,4c-1.3,3.2-0.6,5.5-3.9,6.2
					c0,0,0.5,2,0,3.8c1.1-0.7,2.6-1.7,3.9-3.2C143.6,82.4,175.6,131.3,206.7,142z"/>
				<g>
					<g>
						<path id="XMLID_300_" class="st5" d="M382.5,127.2c-6.5-18.3-24.3-30.9-43.9-27.3c0.8-0.6,1.6-1.1,2.5-1.5
							c-5-0.3-10.2,1.7-13.7,5.3c0.8-1.3,1.7-2.5,2.5-3.8c-15.3,10.6-20,32-16,49.4c1.6,6.8,4.2,13.3,6.7,19.8
							c2.3,5.9,4.8,12.4,3.5,18.9c-1.3,6.1-5.8,11.5-10.2,15.7c-4.9,4.7-10.3,6.7-16.9,4.6c-4.3-1.4-8.2,4.9-4.6,7.8
							c5.7,4.6,16.9,7.7,23.5,3.8c-1.3,0.1-2.7-0.4-3.6-1.3c9.8-4.1,15.9-11.5,20.7-21c9.5-19-5.2-36.3-8.2-54.9
							c-2.7-16,5.4-33.7,24-31.2c16.7,2.3,24.2,19.4,23.3,34.6c-0.4,7.9-3.2,19.4-11.9,21.8c-6.3,1.7-11.2-3.8-6-8.8
							c2.7-2.6,2-6.7-0.6-9.1c-3.6-3.5-7-2.2-10.2,1.1c0.2-1.3,0.3-2.6,0.2-4c-5.3,6.1-7,16.9-3.7,24.3c4.2,9.2,15.4,12.5,24.6,9.4
							c8.6-2.9,16.8-11.8,19.7-20.3c0.4,0.9,0.5,1.9,0.4,2.9c1.2-0.6,1.5-2.2,1.6-3.5C386.8,148.2,386.4,138.2,382.5,127.2z"/>
						<g>
							<path id="XMLID_299_" class="st6" d="M375.1,127.4c-1.6-6.2-9.1-17.2-26.5-19.8c-17.5-2.6-19.7,7.1-20.7,7.8
								c-1,0.6,0.6-2.9,0.6-2.9c-16.2,14.6-4.2,43.7-2.9,46.6c1.3,2.9,12.6,21.7,2.9,39.2c-9.7,17.5-22.3,14.6-22.3,14.6l3.2,2.3
								c-4.2,2.3-10.7-1-10.7-1c-1.2,1.6-2.1,3-2.7,4.3c6,3.1,14.4,4.5,19.8,1.4c-1.3,0.1-2.7-0.4-3.6-1.3
								c9.8-4.1,15.9-11.5,20.7-21c9.5-19-5.2-36.3-8.2-54.9c-2.7-16,5.4-33.7,24-31.2c16.7,2.3,24.2,19.4,23.3,34.6
								c-0.4,7.9-3.2,19.4-11.9,21.8c-6.3,1.7-11.2-3.8-6-8.8c2.7-2.6,2-6.7-0.6-9.1c-2.3-2.2-4.4-2.5-6.5-1.6
								c0.2,0.1,0.4,0.3,0.6,0.4c4.8,2.9,2.6,10.7,2.6,10.7s-0.6-2.6-2.6,3.6c-1.9,6.2,8.7,11.7,20.4,6.8
								C379.6,165,376.7,133.5,375.1,127.4z"/>
							<path id="XMLID_298_" class="st6" d="M338.1,163.9c0.1,2.7,0.7,5.2,1.7,7.5c0.9,1.9,2.1,3.6,3.5,5
								C341.8,172.2,339.9,167.9,338.1,163.9z"/>
						</g>
					</g>
					<g>
						<path id="XMLID_297_" class="st5" d="M258.4,225.2c-14.9-14.6-22.5-37.5-28.9-57h-10c-1.7,5.8-0.6,13.3-0.6,18.2
							c0.1,3.4-0.1,6.9-1.1,10.2c0.7-0.6,1.3-1.3,1.8-2.2c-0.1,3.6,0.5,7.3,1.8,10.7c0.2-0.9,0.3-1.8,0.5-2.6
							c1.7,4.4,4.1,8.4,5.9,12.7c1.6,3.9,3.6,7.6,5.6,11.2l5.8-0.1c0,0-4.8,4.5-2.9,4.9c1.9,0.4,9.3-2.1,9.3-2.1l0.2,6.5l4.2-6.1
							l6.3,3.2l-3.5-9.6c2,1.2,4,2.1,5.8,2.8V225.2z"/>
					</g>
					<path id="XMLID_296_" class="st7" d="M258.4,225.2c-14.9-14.6-22.5-37.5-28.9-57h-10c-1.7,5.8-0.6,13.3-0.6,18.2
						c0.1,3.4-0.1,6.9-1.1,10.2c0.7-0.6,1.3-1.3,1.8-2.2c-0.1,3.6,0.5,7.3,1.8,10.7c0.2-0.9,0.3-1.8,0.5-2.6
						c1.7,4.4,4.1,8.4,5.9,12.7c1.6,3.9,3.6,7.6,5.6,11.2l5.8-0.1c0,0-4.8,4.5-2.9,4.9c1.9,0.4,9.3-2.1,9.3-2.1l0.2,6.5l4.2-6.1
						l6.3,3.2l-3.5-9.6c2,1.2,4,2.1,5.8,2.8V225.2z"/>
					<path id="XMLID_295_" class="st6" d="M254.9,229.3l-2.3-6.2c2,1.2,4,2.1,5.8,2.8v-0.7c-14.9-14.6-22.5-37.5-28.9-57H225
						c-1.2,5.5-0.3,12.3-0.2,16.7c0.1,3.4-0.1,6.9-1.1,10.2c0.7-0.6,1.3-1.3,1.8-2.2c-0.1,3.6,0.5,7.3,1.8,10.7
						c0.2-0.9,0.3-1.8,0.5-2.6c1.7,4.4,4.1,8.4,5.9,12.7c1.6,3.9,3.6,7.6,5.6,11.2l5.8-0.1c0,0-4.8,4.5-2.9,4.9c0.4,0.1,1,0,1.6-0.1
						c1-0.3,1.7-0.5,1.7-0.5l0,0.2c2.7-0.6,6-1.7,6-1.7l0.1,2.7l2,1L254.9,229.3z"/>
					<path id="XMLID_294_" class="st5" d="M300.4,193.5c-1.9-17.5-9.7-32.6-9.7-32.6l4.1,4.1c-0.1-0.5-0.1-1-0.2-1.6
						c-1-8.7-8.2-19.9-8.2-19.9h3.9c0,0-11.6-18.5-20.8-23.8c-9.2-5.3-28.6-4.9-34.4,6.8c-5.8,11.7,3.6,36.7,3.6,36.7
						s-14.8-5.1-14.3,11.9c0.8,27,27.6,54.4,27.6,54.4l-3.4,3.9l11.6-2.4c0,0-3.9,5.3-1.9,5.3c1.9,0,8.7-3.9,8.7-3.9l1.5,6.3
						l2.9-6.8l6.8,1.9l-5.3-8.7C299,234.3,302.4,211,300.4,193.5z"/>
					<path id="XMLID_293_" class="st6" d="M238.6,163.1c0,0-9.5-25-3.6-36.7c5.8-11.7,25.2-12.1,34.4-6.8
						c9.2,5.3,20.8,23.8,20.8,23.8h-3.9c1.7,2.6,3.2,5.4,4.5,8.2c1.1,2.4,2.1,4.9,2.9,7.5c0.1,0.5,1.8,6.5,1.5,6.4
						c-1.5-0.6-3.4-3.4-4.6-4.6c0,0,7.8,15.1,9.7,32.6c1.9,17.5-1.5,40.8-27.6,31.6l5.3,8.7l-6.8-1.9l-2.9,6.8l-1.5-6.3
						c0,0-6.8,3.9-8.7,3.9c-1.9,0,1.9-5.3,1.9-5.3l-11.6,2.4l3.4-3.9c0,0-26.9-27.5-27.6-54.4C223.8,158,238.6,163.1,238.6,163.1z"
						/>
					<g>
						<g>
							<path id="XMLID_292_" class="st1" d="M263.8,225.5c-7.4-1.1-14.8-1.9-22.1-0.3c-7.5,1.5-14.2,5.5-21.7,7
								c-1.5,0.9-3,1.8-4.7,2.4c-0.4,0.1-0.7,0.2-1,0.2c-9.7,3.6-17.3,10.7-7.5,19.1c2,1.7,5.1,1.7,7.7,1.8
								c11.8,0.5,22.1-5.9,33.5-7.5c5.9-0.8,18.8-2.1,21.6-8.7C271.5,234.5,266.9,228.7,263.8,225.5z"/>
							<g>
								<path id="XMLID_291_" class="st3" d="M218.8,247.4c0.1,0.3,0.9,0.2,1.7,0.3c1.2,0.1,2.9,0.6,3.1,2c0.1,0.9,1.3-0.6,1.4-0.7
									c0.8-1,1.6-2.2,1.9-3.4c1.3-4.6-5.4-2.4-7.4,0.9C219.1,247.1,218.7,247.2,218.8,247.4z"/>
								<path id="XMLID_290_" class="st3" d="M206.9,247.2c0.2,0.2,0.9,0,1.7-0.1c1.2-0.2,3-0.2,3.5,1.2c0.3,0.8,1.1-0.9,1.2-1.1
									c0.5-1.1,1-2.5,1-3.8c0.1-4.8-6.2-0.8-6.9,2.7C207.2,246.9,206.8,247.1,206.9,247.2z"/>
								<path id="XMLID_289_" class="st3" d="M202.2,244.2c1,0.1,1.9,0.4,2.3,1.3c0.3,0.8,1.1-0.8,1.2-1c0.6-1.1,1.1-2.5,1.1-3.8
									c0.1-1.3-0.3-1.8-1-1.8C204.1,240.6,202.8,242.4,202.2,244.2z"/>
							</g>
							<path id="XMLID_288_" class="st8" d="M263.8,225.5c-7.4-1.1-14.8-1.9-22.1-0.3c-2.8,0.6-5.4,1.5-8.1,2.5
								c-0.1,0.4-0.2,0.7,0,0.7c0.5-0.1,8.6-2.6,8.6-2.6s-0.4,3.8,0.5,4.3c0.9,0.6,8.8-3.1,8.8-3.1l3.3,4.5c0,0,4-5.2,6.1-3.5
								c2.1,1.7,10.6,10,3.1,14c-7.5,4-22.4,3.2-27.5,5.6c-5.1,2.4-15.7,8.1-17.6,2.5c-1.9-5.6,4.2-8.6,4.2-8.6l9.5-2.6
								c0,0-12.6-1.7-17.3,6.5c-4.8,8.2-8.6,1.8-8.1-0.7c0.5-2.5,4.8-6.4,5.5-7c0.6-0.4-2.4,0.4-4.9,0.3c-5.9,3.9-8.5,9.5-1,15.9
								c2,1.7,5.1,1.7,7.7,1.8c11.8,0.5,22.1-5.9,33.5-7.5c5.9-0.8,18.8-2.1,21.6-8.7C271.5,234.5,266.9,228.7,263.8,225.5z"/>
							<g>
								<g>
									<path id="XMLID_287_" class="st2" d="M221.9,241.5c4.3-2.3,8.8-3,11.9-2.5c1.6,0.3,2.7,0.9,3.5,1.3
										c0.4,0.2,0.6,0.4,0.8,0.6c0.2,0.1,0.3,0.2,0.3,0.2s-0.1-0.1-0.3-0.2c-0.2-0.1-0.5-0.3-0.9-0.4c-0.8-0.3-2-0.7-3.4-0.8
										c-3-0.2-7.1,0.9-11.1,3c-1.9,1.1-3.4,2.6-4,4.4c-0.6,1.7-0.3,3.5,0.7,4.6c1,1.1,2.2,1.4,3,1.4c0.4,0,0.7-0.1,1-0.1
										c0.2-0.1,0.3-0.1,0.3-0.1c0,0-0.4,0.3-1.3,0.5c-0.9,0.2-2.3,0-3.6-1.1c-0.6-0.5-1.2-1.4-1.4-2.3c-0.3-1-0.3-2.1,0-3.2
										c0.3-1.1,0.8-2.1,1.6-3.1C219.8,242.8,220.8,242.1,221.9,241.5z"/>
								</g>
								<g>
									<path id="XMLID_286_" class="st2" d="M216.2,235.6c2.8-1,5.6-1.5,8.2-1.8c2.5-0.3,4.9-0.3,6.8-0.3c1.9,0.1,3.5,0.2,4.5,0.4
										c1.1,0.1,1.7,0.2,1.7,0.2s-0.6,0-1.7,0c-1.1,0-2.6,0-4.5,0.2c-1.9,0.1-4.1,0.4-6.6,0.8c-2.5,0.4-5.2,1-7.8,1.9
										c-2.7,1-5,2.3-6.7,4c-1,0.8-2.2,3.1-3.2,5.5c-0.5,1.8-0.4,3.4-0.2,4.4c0.1,0.5,0.2,0.9,0.3,1.2c0.1,0.3,0.1,0.4,0.1,0.4
										s-0.1-0.1-0.2-0.4c-0.2-0.2-0.3-0.6-0.5-1.1c-0.4-1-0.7-2.6-0.4-4.6c0.3-2,1.2-4.3,3-6.3
										C210.9,238.2,213.4,236.6,216.2,235.6z"/>
								</g>
							</g>
						</g>
						<path id="XMLID_285_" class="st8" d="M269,232.8c-0.1-0.3-0.3-0.6-0.4-0.9c-1.3-2.5-3.2-4.7-4.8-6.3c-0.9-0.1-1.8-0.3-2.8-0.4
							c-6.5-0.9-12.9-1.3-19.4,0c-0.6,0.1-1.2,0.3-1.9,0.4c-0.2,0-0.3,0.1-0.5,0.1c-1.2,0.3-2.5,0.7-3.7,1.1c-0.1,0-0.1,0.1-0.2,0.1
							c-5.1,1.8-10.1,4.1-15.5,5.2c-1.5,0.9-3,1.8-4.7,2.4c-0.4,0.1-0.7,0.2-1,0.2c-2.3,0.9-4.5,2-6.4,3.2c0,0,0,0,0,0
							c0,0-0.1,0.1-0.1,0.1c-0.1,0-0.1,0.1-0.2,0.1c-0.2,0.1-0.3,0.2-0.5,0.4c-0.1,0-0.1,0.1-0.2,0.1c-0.2,0.1-0.4,0.3-0.5,0.4
							c-0.1-0.1-0.3-0.1-0.4-0.1c-1.7,1.7-3,3.5-3.6,5.3c0.1,0,0.1,0,0.2,0c0,0,0,0,0,0.1c0,0.1,0,0.1-0.1,0.2
							c0,0.2-0.1,0.4-0.1,0.6c0,0.1,0,0.1,0,0.2c0,0.1,0,0.3,0,0.4c0,0.1,0,0.1,0,0.2c0,0.1,0,0.3,0,0.4c0,0.1,0,0.1,0,0.2
							c0,0.2,0,0.4,0.1,0.6c0,0.1,0,0.1,0,0.2c0,0.2,0.1,0.3,0.1,0.5c0,0.1,0,0.1,0.1,0.2c0,0.2,0.1,0.3,0.1,0.5
							c0,0.1,0,0.1,0.1,0.2c0.1,0.2,0.2,0.4,0.3,0.6c0,0,0,0.1,0.1,0.1c0.1,0.2,0.2,0.4,0.3,0.5c0,0.1,0.1,0.1,0.1,0.2
							c0.1,0.2,0.2,0.3,0.3,0.5c0,0.1,0.1,0.1,0.1,0.2c0.2,0.2,0.3,0.5,0.5,0.7c0,0,0,0.1,0.1,0.1c0.2,0.2,0.4,0.4,0.5,0.6
							c0.1,0.1,0.1,0.1,0.2,0.2c0.2,0.2,0.3,0.3,0.5,0.5c0.1,0.1,0.1,0.1,0.2,0.2c0.2,0.2,0.5,0.5,0.8,0.7c0.8,0.7,1.7,1.1,2.6,1.3
							c0.3,0.1,0.7,0.1,1,0.2c1.3,0.2,2.8,0.2,4.1,0.3c11.8,0.5,22.1-5.9,33.5-7.5c4.4-0.6,12.8-1.5,17.9-4.7
							c0.3-0.2,0.6-0.4,0.8-0.6c0.3-0.2,0.6-0.5,0.9-0.7c0.9-0.8,1.5-1.7,2-2.7c0.5-1.3,0.6-2.6,0.4-3.9
							C269.7,234.7,269.4,233.7,269,232.8z"/>
					</g>
					<path id="XMLID_284_" class="st8" d="M234.5,226.3c-0.1,0-0.2,0-0.2,0.1c-5.3,1.2-10.5,2.9-16,3.4"/>
					<g>
						<path id="XMLID_283_" class="st1" d="M274.8,230.9c0,0,7.1,12.8,1.3,18.5c-5.1,5-17.5,1.1-23.3-0.5
							c-11.1-3.1-23.1-1.2-33.7-6.4c-2.4-1.2-5.2-2.3-6.4-4.7c-6.6-13.5,7.7-16,19.4-14.1c0,0-10.5-0.2-7.7-4.9
							C226.3,215.6,253.4,216.5,274.8,230.9z"/>
						<g>
							<path id="XMLID_282_" class="st3" d="M226.5,236.7c0,0.3,0.8,0.6,1.4,0.9c1,0.6,2.5,1.7,2.1,3.1c-0.2,0.8,1.4,0,1.6-0.1
								c1.1-0.6,2.3-1.4,3.1-2.4c3-3.8-4-4.4-7.1-2.1C226.9,236.5,226.5,236.5,226.5,236.7z"/>
							<path id="XMLID_281_" class="st3" d="M215.6,231.8c0.1,0.3,0.9,0.4,1.6,0.5c1.2,0.3,2.8,1,2.8,2.4c0,0.9,1.4-0.4,1.5-0.5
								c0.9-0.8,1.9-1.9,2.4-3.1c2-4.4-5.4-3.1-7.4-0.3C216,231.6,215.6,231.7,215.6,231.8z"/>
							<path id="XMLID_280_" class="st3" d="M212.4,227.2c0.9,0.4,1.6,1.1,1.6,2.1c-0.1,0.9,1.4-0.3,1.5-0.5c1-0.8,2-1.9,2.5-3
								c0.6-1.1,0.4-1.8-0.2-2.1C215.6,224.7,213.7,225.8,212.4,227.2z"/>
							<path id="XMLID_279_" class="st3" d="M226.9,217.8c0.3,0.8,0.4,1.6-0.2,2.2c-0.5,0.5,1,0.6,1.2,0.6c1.1,0.1,2.3,0,3.3-0.4
								c1-0.4,1.3-0.9,1.1-1.4C230.4,218,228.5,217.7,226.9,217.8z"/>
						</g>
						<path id="XMLID_278_" class="st8" d="M276.1,249.4c5.8-5.7-1.3-18.5-1.3-18.5c-21.4-14.4-48.5-15.3-50.5-12.1
							c-1.6,2.7,1.1,3.9,3.8,4.5c-0.5,0-1-0.1-1.5-0.1c0,0,0,0,0.1,0c0.4,0.2,20.5-0.3,21.5-0.2c1,0.1-1.2,1.7-0.7,1.8
							c0.5,0.1,9,1,9,1s-1.8,3.3-1.3,4.2c0.6,0.9,9.3,0.6,9.3,0.6l1.2,5.4c0,0,5.7-3.2,7-0.8c1.3,2.4,5.8,13.4-2.7,14.1
							s-21.9-5.9-27.5-5.7c-5.6,0.2-17.6,1.3-17.2-4.6s7.3-6.3,7.3-6.3l9.7,1.4c0,0-10.9-6.5-18.5-0.8c-7.6,5.7-8.6-1.7-7.1-3.8
							c1.5-2.1,6.9-4,7.8-4.2c0.7-0.2-2.4-0.6-4.6-1.7c-6.9,1.3-11.5,5.4-7.2,14.2c1.2,2.4,4,3.5,6.4,4.7
							c10.7,5.1,22.7,3.3,33.7,6.4C258.6,250.5,271,254.5,276.1,249.4z"/>
						<g>
							<g>
								<path id="XMLID_277_" class="st2" d="M231.6,232.4c4.9-0.5,9.3,0.7,11.9,2.4c1.3,0.9,2.2,1.9,2.7,2.6
									c0.3,0.4,0.4,0.7,0.5,0.9c0.1,0.2,0.2,0.3,0.2,0.3s-0.1-0.1-0.2-0.3c-0.1-0.2-0.3-0.4-0.6-0.7c-0.6-0.6-1.5-1.4-2.9-2.1
									c-2.7-1.3-6.9-2-11.4-1.6c-2.2,0.2-4.2,1.1-5.4,2.5c-1.3,1.4-1.7,3.1-1.2,4.5c0.5,1.3,1.4,2.2,2.2,2.5
									c0.4,0.2,0.7,0.2,0.9,0.2c0.2,0,0.3,0,0.3,0c0,0-0.5,0.2-1.4,0c-0.9-0.2-2.1-0.9-2.9-2.4c-0.4-0.7-0.6-1.7-0.4-2.7
									c0.1-1,0.6-2,1.3-2.9c0.7-0.9,1.6-1.6,2.7-2.2C229.2,232.9,230.4,232.6,231.6,232.4z"/>
							</g>
							<g>
								<path id="XMLID_276_" class="st2" d="M228.8,224.8c3,0.2,5.8,0.9,8.2,1.6c2.5,0.7,4.6,1.6,6.3,2.4c1.8,0.8,3.1,1.6,4,2.1
									c0.9,0.5,1.4,0.9,1.4,0.9s-0.5-0.2-1.5-0.7c-1-0.4-2.4-1-4.2-1.6c-1.8-0.6-4-1.3-6.4-1.9c-2.4-0.6-5.1-1.1-8-1.3
									c-2.8-0.2-5.5,0.1-7.8,1c-1.2,0.4-3.3,2-5.1,3.8c-1.1,1.5-1.7,2.9-1.9,4c-0.1,0.5-0.1,0.9-0.1,1.2c0,0.3,0,0.4,0,0.4
									s0-0.1,0-0.4c0-0.3,0-0.7,0-1.2c0.1-1.1,0.4-2.7,1.5-4.4c1-1.7,2.8-3.4,5.2-4.6C222.8,225.1,225.8,224.6,228.8,224.8z"/>
							</g>
						</g>
					</g>
					<g>
						<path id="XMLID_275_" class="st5" d="M289.6,159.5l-0.3-0.3C290,165.3,289.6,159.5,289.6,159.5z"/>
						<path id="XMLID_274_" class="st5" d="M294.9,187.6c-1.9-17.5-9.7-32.6-9.7-32.6l4.1,4.1c-0.1-0.5-0.1-1-0.2-1.6
							c-1-8.7-8.2-19.9-8.2-19.9h3.9c0,0-4.7-7.4-10.4-14.2c-1.7-1.6-3.3-2.9-4.9-3.8c-9.2-5.3-28.6-4.9-34.4,6.8
							c-5.8,11.7,3.6,36.7,3.6,36.7c-0.2-0.5-3.1-0.6-3.5-0.7c-2.3-0.2-4.8,0.1-6.8,1.5c-8,5.5-2.9,18.6-1.3,25.9
							c0.7,3.4,1.2,6.8,1,10.2c0.6-0.7,1.1-1.6,1.3-2.5c0.6,3.6,1.9,7.1,3.8,10.2c0-0.9,0-1.8,0-2.7c2.5,3.9,5.6,7.4,8.2,11.3
							c2.3,3.5,5,6.7,7.7,9.9l5.7-1.2c0,0-3.9,5.3-1.9,5.3c1.9,0,8.7-3.9,8.7-3.9l1.5,6.3l2.9-6.8l6.8,1.9l-5.3-8.7
							C293.5,228.4,296.9,205.1,294.9,187.6z"/>
					</g>
					<path id="XMLID_273_" class="st1" d="M253.2,130.9c-6.5-2.9-13.6,8.7-13.6,8.7c-3.6-3.2-5.5-2.6-6.1-1.6c0,0-0.2,0.5-0.7,1.3
						c0.4,8.6,3.3,17.1,3.9,18.8c-0.7,0.6-3.3,3.8-11.5,15.4c0.5-0.4,1.1-0.9,1.7-1.5c20.4-18.1,42.7,12.3,42.7,12.3
						c0.3-6.2,4.2-15.6-0.4-20.9c-1.8-2.1-4.9-2.9-7.6-2.1C267.6,152.5,263.3,135.5,253.2,130.9z"/>
					<g>
						<g>
							<path id="XMLID_272_" class="st9" d="M184.8,55.4c0,0-6.2-28.5-27.3-14.8s-12.7,56,3.9,59.5C178,103.6,185,99,184.8,55.4z"/>
							<path id="XMLID_271_" class="st1" d="M161.4,100.1c-14.3-3-22.5-34.9-10.9-52.4c1.3-1.4,2.8-2.7,4.5-3.8
								c21-13.7,27.3,14.8,27.3,14.8c0.1,21.3-1.5,33.3-5.1,39.6C173.3,101.6,168.2,101.5,161.4,100.1z"/>
							<path id="XMLID_270_" class="st5" d="M179.9,72.8c0.1,0,0.2,0,0.4,0.1c-0.5-1.1-0.9-2.2-1.4-3.2c-1.1-2.3-2.9-7.2,0.2-8.8
								c3.1-1.5,5.5,2.2,6.7,5c1.2,2.9,2.8,7.4,1,10.4c-0.4,0.7-1,1.2-1.8,1.4c0.2,0.7,0.3,1.4,0.1,2.1c-0.1,0.5-0.4,0.9-0.7,1.3
								c1.1,2.8,0.7,6.9-1.8,8.6c-1.9,1.3-4.2-0.7-4.1-3.2c0-0.9,0.3-1.6,0.7-2.4c0-0.1,0.1-0.2,0.1-0.2c0.2-0.4,0.3-0.8,0.5-1.1
								c0.2-0.4,0.5-0.8,0.7-1.2c-0.5-0.2-0.9-0.4-1.4-0.8c-1.3-0.9-2.6-3-2.3-4.9C177.3,74.2,178.3,72.7,179.9,72.8z"/>
							<path id="XMLID_269_" class="st6" d="M179.9,72.8c0.1,0,0.2,0,0.4,0.1c-0.5-1.1-0.9-2.2-1.4-3.2c-1.1-2.3-2.9-7.2,0.2-8.8
								c3.1-1.5,5.5,2.2,6.7,5c1.2,2.9,2.8,7.4,1,10.4c-0.4,0.7-1,1.2-1.8,1.4c0.2,0.7,0.3,1.4,0.1,2.1c-0.1,0.5-0.4,0.9-0.7,1.3
								c1.1,2.8,0.7,6.9-1.8,8.6c-1.9,1.3-4.2-0.7-4.1-3.2c0-0.9,0.3-1.6,0.7-2.4c0-0.1,0.1-0.2,0.1-0.2c0.2-0.4,0.3-0.8,0.5-1.1
								c0.2-0.4,0.5-0.8,0.7-1.2c-0.5-0.2-0.9-0.4-1.4-0.8c-1.3-0.9-2.6-3-2.3-4.9C177.3,74.2,178.3,72.7,179.9,72.8z"/>
							<path id="XMLID_268_" class="st10" d="M159.4,48.7c0,0,14.7,6.2,14.8,16.1c0.1,9.9-3.3,9.1-5.2,11.1c-2,2.1-4.9,7.5-1.9,9.9
								c3,2.4,5,3.7,7,1.1c2-2.7-1.4,9.9-12.3,4.2C150.8,85.4,142.7,59,159.4,48.7z"/>
							<g>
								<path id="XMLID_267_" class="st10" d="M171.8,88.3c0.8-0.1,1.5-0.5,2.2-1.5c0.8-1.1,0.7,0.3-0.3,1.9
									C173.1,88.6,172.5,88.5,171.8,88.3z"/>
								<path id="XMLID_266_" class="st10" d="M162,50c4.2,2.3,12.1,7.6,12.1,14.8c0.1,9.9-3.3,9.1-5.2,11.1c-1.7,1.8-4.1,6-2.9,8.7
									C158.6,77,154.3,60.4,162,50z"/>
							</g>
							<g>
								<path id="XMLID_265_" class="st11" d="M159.4,48.7c6.2,0.1,12.7,7.8,14.8,16.1c0.7,2.9,0.9,6.7-0.8,9.2
									c-0.8,1.1-1.4,1.1-2.4,1.8c-1.7,1.2-3.8,2.7-3.8,5.9c0.2,7.4,5.1,4.9,6.9,2.4c0.6-0.8,1.3,0.3,0.9,1.2
									c-2.9,7.6-10.9,3.1-9.3-5.3c1.1-6,7.7-6.2,7.6-12.6c-0.1-4.9-3.9-10.4-6.3-13c-2.4-2.6-5.1-3.7-7.8-5.2
									C159.1,49,159.2,48.7,159.4,48.7L159.4,48.7z"/>
							</g>
							<g>
								<path id="XMLID_264_" class="st11" d="M167.7,54.1c-4.3-0.2-8.2,2.2-9.8,8.5c-1.5,5.7-0.5,10.5,0.6,15.8
									c0.2,0.9-0.6,2-1.1,1.1c-5.6-10.4,0.8-29.7,10.3-25.9C168,53.7,167.9,54.1,167.7,54.1L167.7,54.1z"/>
							</g>
							<g>
								<path id="XMLID_263_" class="st11" d="M171.1,59.2c-4,2.9-6.6,7.5-7.3,14c-0.1,1.1-1.1,1-1.1-0.1c0-6.7,3.6-13.8,8.3-14.9
									C171.3,58.1,171.5,58.9,171.1,59.2L171.1,59.2z"/>
							</g>
						</g>
						<path id="XMLID_262_" class="st10" d="M185.8,65.9c-0.3-0.7-0.7-1.5-1.1-2.2c0-2.6,0.1-5.3,0.1-8.3c0,0-6.2-28.5-27.3-14.8
							c-2.9,1.9-5.2,4.3-7,7.1l0,0l0,0c-4.7,7.1-6.1,16.5-5.2,25.4c0,0.1,0,0.2,0,0.3c0.1,0.6,0.1,1.2,0.2,1.8c0,0.1,0,0.3,0.1,0.4
							c0.1,0.6,0.2,1.1,0.3,1.7c0,0.1,0.1,0.3,0.1,0.4c0.1,0.6,0.2,1.1,0.3,1.6c0,0.1,0,0.2,0.1,0.3c0.4,1.7,0.9,3.3,1.4,4.8
							c0.1,0.2,0.2,0.5,0.3,0.7c0.1,0.4,0.3,0.7,0.4,1.1c0.1,0.3,0.2,0.6,0.4,0.9c0.1,0.3,0.3,0.6,0.4,1c0.1,0.3,0.3,0.6,0.4,0.9
							c0.1,0.3,0.3,0.6,0.4,0.9c0.2,0.3,0.3,0.6,0.5,0.9c0.1,0.3,0.3,0.5,0.4,0.7c0.2,0.3,0.4,0.7,0.6,1c0.1,0.2,0.2,0.4,0.4,0.6
							c0.3,0.5,0.7,1,1.1,1.4c0.1,0.1,0.2,0.2,0.3,0.3c0.3,0.4,0.6,0.7,0.9,1c0.1,0.1,0.3,0.3,0.4,0.4c0.3,0.3,0.5,0.5,0.8,0.7
							c0.2,0.1,0.3,0.3,0.5,0.4c0.3,0.2,0.5,0.4,0.8,0.6c0.2,0.1,0.3,0.2,0.5,0.4c0.3,0.2,0.6,0.3,0.8,0.5c0.2,0.1,0.3,0.2,0.5,0.3
							c0.3,0.2,0.6,0.3,0.9,0.4c0.2,0.1,0.3,0.1,0.5,0.2c0.5,0.2,1,0.3,1.4,0.4c0.5,0.1,0.9,0.2,1.4,0.3c0.1,0,0.3,0.1,0.4,0.1
							c0.3,0.1,0.6,0.1,0.9,0.2c0.2,0,0.3,0.1,0.5,0.1c0.3,0,0.5,0.1,0.8,0.1c0.2,0,0.3,0,0.5,0.1c0.3,0,0.6,0.1,0.8,0.1
							c0.1,0,0.3,0,0.4,0c0.4,0,0.8,0,1.1,0.1c0.2,0,0.3,0,0.4,0c0.2,0,0.5,0,0.7,0c0.2,0,0.3,0,0.5,0c0.2,0,0.4,0,0.6,0
							c0.2,0,0.3,0,0.5-0.1c0.2,0,0.4-0.1,0.6-0.1c0.2,0,0.3-0.1,0.5-0.1c0.2,0,0.4-0.1,0.6-0.2c0.3-0.1,0.5-0.1,0.7-0.2
							c0.2-0.1,0.4-0.1,0.5-0.2c0.2-0.1,0.3-0.1,0.5-0.2c0.1-0.1,0.3-0.1,0.4-0.2c0.2-0.1,0.3-0.2,0.5-0.3c0.1-0.1,0.3-0.2,0.4-0.3
							c0.1-0.1,0.3-0.2,0.4-0.3c0.1-0.1,0.3-0.2,0.4-0.3c0.1-0.1,0.3-0.2,0.4-0.3l0,0l0,0c1.9-1.7,3.4-4.4,4.6-8.2
							c0.3,0,0.7-0.2,1-0.4c2.5-1.7,2.9-5.7,1.8-8.6c0.3-0.3,0.6-0.8,0.7-1.3c0.2-0.8,0.2-1.5-0.1-2.1c0.7-0.2,1.4-0.7,1.8-1.4
							C188.7,73.2,187.1,68.8,185.8,65.9z"/>
						<path id="XMLID_261_" class="st1" d="M191,38.9c0,0-10.8,1.7-10.8,13c0,0-11.6,15.5-2.2,38c0,0-10.3,6-12.1,15.5
							c-2,11.2,8.3,18.2,17.4,21.8c11.9,4.6,23.3,4.1,35.8,3.8c14-0.3,25.1-4.1,37.1-10.9c7-3.9,13.5-9,18.2-15.6
							c11.2-15.5,9.9-65.6-17.7-81.2C229.3,7.8,191,25.9,191,38.9z"/>
						<path id="XMLID_260_" class="st10" d="M191,38.9c0,0-10.8,1.7-10.8,13c0,0-11.6,15.5-2.2,38c0,0-10.3,6-12.1,15.5
							c-2,11.2,8.3,18.2,17.4,21.8c11.9,4.6,23.3,4.1,35.8,3.8c14-0.3,25.1-4.1,37.1-10.9c7-3.9,13.5-9,18.2-15.6
							c11.2-15.5,9.9-65.6-17.7-81.2C229.3,7.8,191,25.9,191,38.9z"/>
						<path id="XMLID_259_" class="st1" d="M259,24.9c-0.7-0.4-1.3-0.9-2.1-1.3C229.3,8.1,191,26.2,191,39.2c0,0-10.8,1.7-10.8,13
							c0,0-11.6,15.5-2.2,38c0,0-10.3,6-12.1,15.5c-1.1,6.1,1.4,10.9,5.4,14.6c2.5,1.6,5.2,2.9,7.8,3.9c11.9,4.6,23.3,4.1,35.8,3.8
							c14-0.3,25.1-4.1,37.1-10.9c7-3.9,13.5-9,18.2-15.6C280.6,87.3,280.4,44,259,24.9z"/>
						<path id="XMLID_258_" class="st12" d="M212.5,90.9c-9.5-14.6-30.5-7.1-35.9-4.8c0.4,1.2,0.9,2.4,1.4,3.7c0,0-1.1,0.7-2.7,1.9
							C190.3,81.4,212.5,90.9,212.5,90.9z"/>
						<path id="XMLID_257_" class="st5" d="M257.2,22.9c-1.9-1.3-3.8-2.3-5.6-2.9c-11.7-3.8-21.1-5.2-33.2-1.7
							c-7.8,2.3-15.3,5.9-22.1,10.5c-6.9,4.6-11.5,10.5-16.8,16.8c4-4.7,11.5-5.6,17-2.9c3.5,1.8,6.3,4.8,8.2,8.3
							c0.3,0.5,3.8,8.4,4,8.2c0.3-0.4,13.5-20.7,29.7-19c16.4,1.7,30.2,31.1,14.2,58.3c0,0,14.2,6,5.6,20.3
							c-0.1,0.1-0.1,0.2-0.2,0.4c5.7-3.4,12-8.2,16.6-14.6c1.3-1.8,2.3-3.9,3.1-6c5.4-14,4.4-31.3,0.3-45.4
							c-2.3-7.8-5.8-15.5-11.2-21.6C264.3,28.7,260.8,25.4,257.2,22.9z"/>
						<g class="st13">
							<g>
								<g>
									<g>
										<path id="XMLID_314_" class="st12" d="M226.1,49.6c2.1,1.6,5.4,1.6,7.9,2.1c3,0.6,5.5,2.1,8.6,2c3.4-0.1,5.7-3.8,3.9-6.9
											c-3.5-6.2-17.5-8.7-21.6-1.7C224,46.9,224.8,48.6,226.1,49.6L226.1,49.6z"/>
									</g>
								</g>
								<g>
									<g>
										<path id="XMLID_313_" class="st12" d="M177.3,66.7c2.5,0.7,5.6-0.5,8.1-1c3-0.5,5.9-0.1,8.8-1.4c3.2-1.4,3.8-5.6,1.1-7.8
											c-5.6-4.4-19.5-1.4-20.6,6.5C174.3,64.9,175.6,66.3,177.3,66.7L177.3,66.7z"/>
									</g>
								</g>
							</g>
						</g>
						<g>
							<g>
								<g>
									<path id="XMLID_88_" class="st7" d="M225.5,47.2c2.1,1.6,5.4,1.6,7.9,2.1c3,0.6,5.5,2.1,8.6,2c3.4-0.1,5.7-3.8,3.9-6.9
										c-3.5-6.2-17.5-8.7-21.6-1.7C223.4,44.5,224.1,46.2,225.5,47.2L225.5,47.2z"/>
								</g>
							</g>
							<g>
								<g>
									<path id="XMLID_89_" class="st7" d="M176.6,64.3c2.5,0.7,5.6-0.5,8.1-1c3-0.5,5.9-0.1,8.8-1.4c3.2-1.4,3.8-5.6,1.1-7.8
										c-5.6-4.4-19.5-1.4-20.6,6.5C173.6,62.6,174.9,63.9,176.6,64.3L176.6,64.3z"/>
								</g>
							</g>
						</g>
						<g id="XMLID_252_">
							<g>
								<path class="st11" d="M226.9,83.5c0.2-4.2,1.9-10,7.2-10c4.6,0,7.4,4.6,9.4,8.1c1,1.7,3.6,0.2,2.6-1.5
									c-2.8-4.8-7.2-10.5-13.5-9.5c-6.1,1.1-8.5,7.4-8.7,12.9C223.8,85.4,226.8,85.4,226.9,83.5L226.9,83.5z"/>
							</g>
						</g>
						<g id="XMLID_251_">
							<g>
								<path class="st11" d="M191.1,81.2c-0.2-4.4-2.1-9.4-7-10.3c-5.1-0.9-8.6,3.6-10.9,7.5c-1,1.7,1.6,3.2,2.6,1.5
									c1.5-2.6,3.6-6.1,7-6.1c3.9,0,5.1,4.3,5.2,7.4C188.2,83.2,191.2,83.2,191.1,81.2L191.1,81.2z"/>
							</g>
						</g>
						<g id="XMLID_250_">
							<g>
								<path class="st11" d="M226.4,66.3c-1.9,2.1-3.4,4.4-4.6,7c-0.8,1.8,1.8,3.3,2.6,1.5c1-2.3,2.4-4.5,4.1-6.4
									C229.8,67,227.7,64.8,226.4,66.3L226.4,66.3z"/>
							</g>
						</g>
						<g id="XMLID_249_">
							<g>
								<path class="st11" d="M186.6,68.3c1.6,0.8,2.6,2.3,2.6,4.1c0,1.9,3,1.9,3,0c0-2.8-1.6-5.4-4.1-6.7
									C186.4,64.9,184.9,67.5,186.6,68.3L186.6,68.3z"/>
							</g>
						</g>
						<path id="XMLID_248_" class="st7" d="M245,101.7c0,0,16.7,39.1-54.4,21.4c-1.3-0.3,41,3.3,53.8-20.1c0.3-0.6,0.6-1.2,0.9-1.9"
							/>
						<g id="XMLID_247_">
							<g>
								<path class="st11" d="M239.2,101.2c2,4.1,7.1,5.7,11.2,3.8c1.7-0.8,0.2-3.4-1.5-2.6c-2.7,1.2-5.8-0.1-7-2.7
									C240.9,98,238.3,99.5,239.2,101.2L239.2,101.2z"/>
							</g>
						</g>
						<path id="XMLID_246_" class="st14" d="M228.5,127.3c16-2,18.5-11.3,18.1-18.1C238.7,110,231.5,121.8,228.5,127.3z"/>
						<path id="XMLID_245_" class="st15" d="M241.5,107.1c-6.6,8.2-17.4,12.2-27.4,14.2c0.4,0.9,0.8,1.8,1.2,2.8
							c1.7,0.1,3.4,0,5.2-0.1c7.4-0.6,19.7-6.5,21-15.9C241.7,107.7,241.6,107.4,241.5,107.1z"/>
						<g>
							<path id="XMLID_244_" class="st11" d="M181.2,88.3c12.5-2.8,25.3-1.9,36.1,5.4c0.3,0.2,0.6-0.3,0.4-0.5
								c-10.4-8.5-24.5-11.7-36.7-5.4C180.8,88,181,88.4,181.2,88.3L181.2,88.3z"/>
						</g>
						<g id="XMLID_243_">
							<g>
								<path class="st12" d="M251.3,26.8C251.4,26.8,251.4,26.7,251.3,26.8C251.2,26.7,251.2,26.8,251.3,26.8L251.3,26.8z"/>
							</g>
						</g>
						<g id="XMLID_242_">
							<g>
								<path class="st12" d="M253,28.3C253.1,28.3,253.1,28.2,253,28.3C253,28.2,253,28.3,253,28.3L253,28.3z"/>
							</g>
						</g>
						<path id="XMLID_241_" class="st6" d="M275.8,102.6c0.2-0.4,0.5-0.8,0.7-1.3c0.1-0.2,0.2-0.4,0.3-0.6c0.2-0.4,0.3-0.7,0.5-1.1
							c0.1-0.2,0.2-0.5,0.3-0.7c0.2-0.4,0.3-0.8,0.5-1.3c0.1-0.2,0.2-0.5,0.3-0.7c3.6-10.8,4.1-27,0.2-42c-0.1-0.2-0.1-0.5-0.2-0.7
							c-0.2-0.6-0.3-1.2-0.5-1.8c-0.1-0.5-0.3-0.9-0.4-1.4c-0.2-0.5-0.3-1-0.5-1.5c-0.2-0.4-0.3-0.9-0.5-1.3
							c-0.2-0.6-0.4-1.1-0.6-1.7c-0.1-0.4-0.3-0.7-0.5-1.1c-0.3-0.6-0.5-1.2-0.8-1.8c-0.1-0.3-0.3-0.6-0.4-0.9
							c-0.3-0.6-0.6-1.3-0.9-1.9c-0.1-0.3-0.3-0.6-0.4-0.8c-0.3-0.6-0.7-1.2-1-1.8c-0.2-0.3-0.4-0.6-0.5-0.9
							c-0.3-0.5-0.7-1.1-1.1-1.6c-0.2-0.3-0.5-0.7-0.7-1c-0.3-0.5-0.7-0.9-1-1.4c-0.3-0.4-0.6-0.8-0.9-1.1c-0.4-0.5-0.8-1-1.2-1.4
							c-0.1-0.1-0.1-0.1-0.2-0.2c-2.6-2.9-5.7-5.3-9.1-7.2c-10-5.6-21.5-7.1-32.6-5.2c-7.6,1.3-14.9,4.3-21.3,8.6
							c4.6-2,9.5-3.2,14.4-3.5c-1.1,1.1-2.1,2.2-3.2,3.3c6.4-1.8,13.5-0.9,19.2,2.4c-0.6-1.9-1.7-3.6-3.2-4.8
							c0.7,0.6,3.6,0.6,4.5,0.8c1.8,0.4,3.6,1,5.3,1.6c3.5,1.4,6.5,3.4,9.7,5.3c5.6,3.4,10.6,7.7,13.4,13.9
							c2.6,5.8,3.5,13.5,3.3,19.8c0.1-0.7-0.2-1.4-0.7-1.9c-0.5,1.4-0.2,2.9,0.1,4.3c1.4,7.2,0.7,14.8-2.2,21.6
							c0.9-0.8,1.6-1.8,2.2-2.8c-0.5,1.1-0.4,3.1-0.8,4.4c-0.4,1.5-0.9,2.9-1.2,4.4c-0.7,3-1.9,5.8-3.3,8.5
							c-0.2,0.4-0.4,0.8-0.7,1.2c1.5,3.2,1.8,7.6-1.7,13.4c-0.1,0.1-0.1,0.2-0.2,0.4c0.1-0.1,0.3-0.2,0.4-0.2
							c0.4-0.2,0.8-0.5,1.1-0.7c0.4-0.2,0.8-0.5,1.2-0.8c0.4-0.3,0.8-0.6,1.3-0.9c0.3-0.2,0.6-0.5,1-0.7c0.5-0.3,0.9-0.7,1.4-1
							c0.2-0.2,0.5-0.4,0.7-0.6c0.5-0.4,1-0.8,1.5-1.2c0.2-0.2,0.4-0.3,0.5-0.5c0.5-0.5,1.1-0.9,1.6-1.4c0.1-0.1,0.3-0.3,0.4-0.4
							c0.5-0.5,1.1-1.1,1.6-1.6c0.2-0.2,0.3-0.4,0.5-0.6c0.5-0.5,1-1,1.4-1.6c0.6-0.8,1.2-1.5,1.8-2.3c0.3-0.5,0.7-1,1-1.5
							C275.6,102.9,275.7,102.7,275.8,102.6z"/>
						<g>
							<path id="XMLID_240_" class="st9" d="M274,52.7c0,0,9.9-29.1,34.8-13.6c24.9,15.5,11.4,58.9-9.3,61.5
								C278.7,103.2,270.4,98,274,52.7z"/>
							<path id="XMLID_239_" class="st1" d="M299.5,100.6c17.9-2.2,30.4-34.8,17.5-53.7c-1.5-1.6-3.2-3-5.2-4.3
								c-24.9-15.5-34.8,13.6-34.8,13.6c-1.8,22.1-0.7,34.7,3.3,41.4C284.6,101.4,291,101.7,299.5,100.6z"/>
							<path id="XMLID_238_" class="st5" d="M278.6,71.1c-0.1,0-0.3,0-0.4,0c0.6-1.1,1.2-2.2,1.9-3.2c1.6-2.3,4.2-7.3,0.4-9.1
								c-3.7-1.8-7,1.9-8.7,4.7c-1.8,3-4,7.5-2.1,10.8c0.4,0.7,1.2,1.3,2.1,1.6c-0.4,0.7-0.5,1.4-0.3,2.2c0.1,0.5,0.4,1,0.8,1.3
								c-1.6,2.9-1.4,7.1,1.5,9c2.3,1.5,5.3-0.5,5.3-3c0-0.9-0.2-1.7-0.7-2.5c-0.1-0.1-0.1-0.2-0.1-0.3c-0.2-0.4-0.3-0.8-0.5-1.2
								c-0.3-0.4-0.5-0.9-0.7-1.3c0.6-0.2,1.2-0.4,1.8-0.7c1.6-0.8,3.4-2.9,3.2-4.9C281.8,72.7,280.7,71.1,278.6,71.1z"/>
							<path id="XMLID_237_" class="st6" d="M278.6,71.1c-0.1,0-0.3,0-0.4,0c0.6-1.1,1.2-2.2,1.9-3.2c1.6-2.3,4.2-7.3,0.4-9.1
								c-3.7-1.8-7,1.9-8.7,4.7c-1.8,3-4,7.5-2.1,10.8c0.4,0.7,1.2,1.3,2.1,1.6c-0.4,0.7-0.5,1.4-0.3,2.2c0.1,0.5,0.4,1,0.8,1.3
								c-1.6,2.9-1.4,7.1,1.5,9c2.3,1.5,5.3-0.5,5.3-3c0-0.9-0.2-1.7-0.7-2.5c-0.1-0.1-0.1-0.2-0.1-0.3c-0.2-0.4-0.3-0.8-0.5-1.2
								c-0.3-0.4-0.5-0.9-0.7-1.3c0.6-0.2,1.2-0.4,1.8-0.7c1.6-0.8,3.4-2.9,3.2-4.9C281.8,72.7,280.7,71.1,278.6,71.1z"/>
							<path id="XMLID_236_" class="st10" d="M305.8,47.4c0,0-18.6,5.5-19.4,15.8c-0.9,10.3,3.3,9.6,5.6,11.9
								c2.3,2.3,5.5,8.1,1.6,10.4c-3.9,2.3-6.5,3.6-8.7,0.6c-2.3-2.9,1,10.4,14.9,5.2C313.7,86,325.6,59.2,305.8,47.4z"/>
							<g>
								<path id="XMLID_235_" class="st10" d="M287.5,87.7c-0.9-0.1-1.8-0.6-2.6-1.6c-0.9-1.2-0.9,0.2,0.2,2
									C285.9,88,286.7,87.9,287.5,87.7z"/>
								<path id="XMLID_234_" class="st10" d="M302.5,48.6c-5.4,2.1-15.4,7.1-16.1,14.6c-0.9,10.3,3.3,9.6,5.6,11.9
									c1.9,1.9,4.6,6.5,2.9,9.2C304.6,76.9,311.3,59.9,302.5,48.6z"/>
							</g>
							<g>
								<path id="XMLID_233_" class="st11" d="M305.8,47.4c-7.6-0.3-16.3,7.2-19.4,15.8c-1.1,3-1.6,6.9,0.3,9.6
									c0.9,1.2,1.7,1.2,2.8,2c1.9,1.3,4.5,3,4.2,6.4c-0.8,7.7-6.6,4.7-8.7,2.1c-0.7-0.8-1.6,0.2-1.3,1.2c3,8.1,13.1,3.9,11.8-4.9
									c-0.9-6.3-9.1-6.9-8.4-13.6c0.5-5.1,5.6-10.5,8.8-13.1c3.1-2.5,6.5-3.5,10-4.9C306.1,47.8,306.1,47.4,305.8,47.4L305.8,47.4
									z"/>
							</g>
							<g>
								<path id="XMLID_232_" class="st11" d="M295.2,52.5c5.3,0,9.9,2.8,11.5,9.5c1.4,6-0.1,10.9-2,16.3c-0.3,0.9,0.6,2.1,1.2,1.2
									c7.7-10.4,1.3-30.9-10.8-27.5C294.9,52,294.9,52.5,295.2,52.5L295.2,52.5z"/>
							</g>
							<g>
								<path id="XMLID_231_" class="st11" d="M290.5,57.5c4.7,3.3,7.6,8.2,8,15c0.1,1.1,1.3,1.1,1.4,0c0.5-7-3.4-14.5-9.1-16
									C290.4,56.4,290.1,57.2,290.5,57.5L290.5,57.5z"/>
							</g>
						</g>
						<g>
							<g>
								<path id="XMLID_230_" class="st5" d="M251.1,14c-0.9-0.2-1.8-0.3-2.7-0.1c-0.3,0.1-0.6,0.2-0.9,0.4c0.5-1,1-2,1.5-3
									c1.5-2.9,3.5-5.8,3.6-9.1c0.1-1.9-1.9-2.6-3.4-1.9c-4.5,2-7.4,8.3-8.6,14c-0.1-0.3-0.2-0.6-0.4-1c-1.4-3.4-4-6.5-7.7-7.4
									c-1.9-0.4-3.2,1.5-2.4,3.1c1.2,2.5,3.1,4.7,4.2,7.3c1,2.2,2.2,4.7,2.9,7c0.3,1,1.9,1.4,2.4,0.3c0.4-0.8,0.7-1.5,0.9-2.2
									c0.9,0.8,2.5,0.8,3.3-0.4c0.3-0.5,0.6-1,0.9-1.5c0.1,0.5,0.2,1.1,0.3,1.6c0.2,1.3,1.9,1,2.3,0c0.2-0.5,0.6-0.6,1-0.9
									c0.3-0.3,0.7-0.8,0.9-0.9c0.3-0.3,1.1-0.6,1.4-0.9c0.5-0.5,0.6-0.8,1-1.2C252.9,16.2,252.5,14.3,251.1,14z"/>
							</g>
							<g>
								<path id="XMLID_229_" class="st6" d="M251.1,14c-0.9-0.2-1.8-0.3-2.7-0.1c-0.3,0.1-0.6,0.2-0.9,0.4c0.5-1,1-2,1.5-3
									c1.5-2.9,3.5-5.8,3.6-9.1c0.1-1.9-1.9-2.6-3.4-1.9c-4.5,2-7.4,8.3-8.6,14c-0.1-0.3-0.2-0.6-0.4-1c-1.4-3.4-4-6.5-7.7-7.4
									c-1.9-0.4-3.2,1.5-2.4,3.1c1.2,2.5,3.1,4.7,4.2,7.3c1,2.2,2.2,4.7,2.9,7c0.3,1,1.9,1.4,2.4,0.3c0.4-0.8,0.7-1.5,0.9-2.2
									c0.9,0.8,2.5,0.8,3.3-0.4c0.3-0.5,0.6-1,0.9-1.5c0.1,0.5,0.2,1.1,0.3,1.6c0.2,1.3,1.9,1,2.3,0c0.2-0.5,0.6-0.6,1-0.9
									c0.3-0.3,0.7-0.8,0.9-0.9c0.3-0.3,1.1-0.6,1.4-0.9c0.5-0.5,0.6-0.8,1-1.2C252.9,16.2,252.5,14.3,251.1,14z"/>
							</g>
							<path id="XMLID_228_" class="st5" d="M248.7,14c-0.1,0-0.2-0.1-0.4-0.1c-0.3,0.1-0.6,0.2-0.8,0.4c0.1-0.2,0.2-0.3,0.3-0.5
								c-0.6-0.1-1.2-0.1-1.8,0.1c-0.3,0.1-0.6,0.2-0.9,0.4c0.5-1,1-2,1.5-3c1.5-2.9,3.5-5.8,3.6-9.1c0-0.9-0.4-1.6-1.1-1.9
								c-4.5,2-7.3,8.3-8.5,14c-0.1-0.3-0.2-0.6-0.4-1c-0.3-0.8-0.7-1.5-1.2-2.3c-0.3,1.1-0.6,2.2-0.8,3.2c-0.1-0.3-0.2-0.6-0.4-1
								c-1.3-3.1-3.6-6.1-6.9-7.2c-0.9,0.5-1.4,1.8-0.8,2.9c1.2,2.5,3.1,4.7,4.2,7.3c1,2.2,2.2,4.7,2.9,7c0,0.1,0.1,0.1,0.1,0.2
								c0.4-0.7,0.6-1.4,0.9-2.1c0.6,0.5,1.4,0.7,2.2,0.4c0.1-0.1,0.1-0.3,0.2-0.4c0.1,0.1,0.2,0.1,0.3,0.2c0.2-0.2,0.4-0.4,0.6-0.6
								c0.3-0.5,0.6-1,0.9-1.5c0.1,0.5,0.2,1.1,0.3,1.6c0.1,0.3,0.2,0.5,0.4,0.7c0.3-0.2,0.6-0.4,0.8-0.8c0.3-0.5,0.6-1,0.9-1.5
								c0.1,0.5,0.2,1.1,0.3,1.6c0.2-0.4,0.6-0.6,1-0.9c0.3-0.3,0.7-0.8,0.9-0.9c0.3-0.3,1.1-0.6,1.4-0.9c0.5-0.5,0.6-0.8,1-1.2
								C250.6,16.2,250.1,14.3,248.7,14z"/>
						</g>
						<path id="XMLID_227_" class="st10" d="M202.3,103.1c-0.9,0.3,6.5-7.5,10.8-5.6s3.3,5,3.3,5S213,99.7,202.3,103.1z"/>
						<path id="XMLID_226_" class="st12" d="M172,94c0,0,5.8-2.9,8.1,0.5c2.3,3.4,1.5,7.1,1.5,7.1S181.5,97.2,172,94z"/>
						<path id="XMLID_225_" class="st10" d="M162.4,91.5"/>
						<g>
							<path id="XMLID_224_" class="st11" d="M202.7,103.3c1.9-1.3,3.1-3.5,5-4.8c1.4-1,3.2-1.7,4.9-1.5c2.5,0.3,4.1,2.6,3.3,5
								c-0.1,0.2,0.3,0.3,0.4,0.1c1.3-3.2-1.2-6.5-4.4-6.9c-4.3-0.6-9,3.5-10.1,7.5C201.7,103.1,202.3,103.6,202.7,103.3
								L202.7,103.3z"/>
						</g>
						<g>
							<path id="XMLID_223_" class="st11" d="M205.4,94c2.7-1.1,7.1-2.5,10-1.4c2.8,1.1,3.4,3.6,2.9,6.3c-0.1,0.7,0.6,1.5,1.3,1
								c3.1-2.2,1.3-6.6-1.1-8.7c-1.7-1.4-3.8-2-6-1.8c-3.1,0.3-5.1,1.8-7.5,3.5C204.5,93.3,204.8,94.3,205.4,94L205.4,94z"/>
						</g>
						<g>
							<path id="XMLID_222_" class="st11" d="M177.5,93c0.3,0.2,0.7,1.1,1,1.4c0.7,0.7,1.2,1.3,1.7,2.2c0.8,1.6,0.6,3.4,1.4,5
								c0.2,0.4,0.7,0.4,1,0.1c1.6-1.6,0.8-4.3-0.1-6.1c-0.5-1-1.3-2.1-2.3-2.8c-0.4-0.3-0.8-0.6-1.3-0.7c-0.4-0.1-0.6,0.1-0.9,0
								C177.3,91.9,177.1,92.7,177.5,93L177.5,93z"/>
						</g>
						<g>
							<path id="XMLID_221_" class="st11" d="M171.4,94c1.9-2.1,5.6-3.7,8.4-3.2c3.5,0.7,4.6,3.2,6.2,5.9c0.6,1,2.2,0.6,2.2-0.6
								c0.2-4.1-4.3-7.6-8.1-8c-4.4-0.5-7.6,1.7-9,5.7C171.1,94,171.3,94.1,171.4,94L171.4,94z"/>
						</g>
					</g>
					<path id="XMLID_220_" class="st10" d="M161.4,119c0,0-3.9,1.9-1.9,12.3c1.9,10.4,18.7,22,39.4,17.5c20.7-4.5,19.2-16.8,17.4-24
						c-1.8-7.1-1.2-13.6-1.2-13.6s-4.1-7.7-10.8,0c0,0-5.4,4.5-4.8,11c0.6,6.5-16.2-16.2-20-20.7c-3.9-4.5-9.7-0.6-12.3,5.2
						C167.2,106.7,162.7,110.5,161.4,119z"/>
					<path id="XMLID_219_" class="st10" d="M161.4,119c0,0-3.9,1.9-1.9,12.3c1.9,10.4,18.7,22,39.4,17.5c20.7-4.5,19.2-16.8,17.4-24
						c-1.8-7.1-1.2-13.6-1.2-13.6s-4.1-7.7-10.8,0c0,0-5.4,4.5-4.8,11c0.6,6.5-16.2-16.2-20-20.7c-3.9-4.5-9.7-0.6-12.3,5.2
						C167.2,106.7,162.7,110.5,161.4,119z"/>
					<path id="XMLID_218_" class="st1" d="M160.1,122.2c0,0-3.9,1.9-1.9,12.3c1.9,10.4,18.7,22,39.4,17.5
						c20.7-4.5,19.2-16.8,17.4-24c-1.8-7.1-1.2-13.6-1.2-13.6s-4.1-7.7-10.8,0c0,0-5.4,4.5-4.8,11c0.6,6.5-16.2-16.2-20-20.7
						c-3.9-4.5-9.7-0.6-12.3,5.2C166,109.9,161.4,113.8,160.1,122.2z"/>
					<g>
						<path id="XMLID_217_" class="st16" d="M174.4,105l-6,3.7c0,0,2.1,7.2,6.4,3.8C178.9,109.1,174.4,105,174.4,105z"/>
						<path id="XMLID_216_" class="st16" d="M213.8,120c-0.1-1.6-0.1-2.9-0.1-3.9c-0.1-0.2-0.1-0.3-0.1-0.3l-5.4-1.6
							c0,0-3,6.9,2.4,7C212.4,121.2,213.3,120.7,213.8,120z"/>
						<path id="XMLID_215_" class="st16" d="M164.8,112.8l-3.6,5.2c0,0-2.5,7.9,3,4.4C168.8,119.5,164.8,112.8,164.8,112.8z"/>
						<path id="XMLID_214_" class="st16" d="M158.1,126.5l-0.3,0.5c-0.2,1.8-0.2,4.2,0.4,7.5c0.1,0.3,0.1,0.6,0.2,0.9
							C161.5,132.2,158.1,126.5,158.1,126.5z"/>
					</g>
					<g>
						<path id="XMLID_213_" class="st10" d="M215,128c-1.8-7.1-1.2-13.6-1.2-13.6s-3.6-6.8-9.6-1.2c2.6-1,5.2-1.3,6-0.2
							c1.8,2.1,1.9,11.5,2.4,14.6c0.5,3.1,0,8.7,0,8.7l-4.8,4.2l-5.2-7.6l-1.8,9.7h-11l3.1,4.7l-8.7,2.1c0,0,6,2.3,6,2.9
							c0,0.4-7.5-0.3-12.8-0.9c5.9,1.7,12.8,2.2,20.2,0.6C218.3,147.5,216.8,135.2,215,128z"/>
						<path id="XMLID_212_" class="st10" d="M176.9,105.2c3.7,4,14.4,23.2,19.1,23.8c2.9,0.4,2.6-2.2,2.2-5.2c0,0.5,0,1.1,0,1.7
							c0.6,6.5-16.2-16.2-20-20.7c-2.9-3.4-6.8-2.1-9.7,1.2c-0.2,0.5-0.3,0.9-0.5,1.4C168.1,107.3,173.2,101.2,176.9,105.2z"/>
					</g>
					<path id="XMLID_211_" class="st5" d="M194.7,153.6c-2.7-2.8-7.3-3.9-7.3-3.9l7.3-1l-2.4-5.3l10.2,1l1.5-8.7l3.9,7.3l6.3-7.8
						v9.2c0,0,0,16,17.9,12.1c17.9-3.9,20.4-19.9,20.4-19.9s0-10.7,10.7-9.7c10.7,1,2.4,21.4,2.4,21.4S240.3,201.2,194.7,153.6z"/>
					<path id="XMLID_210_" class="st6" d="M194.7,153.6c-2.7-2.8-7.3-3.9-7.3-3.9l7.3-1l-2.4-5.3l10.2,1l1.5-8.7l3.9,7.3l6.3-7.8
						v9.2c0,0,0,16,17.9,12.1c17.9-3.9,20.4-19.9,20.4-19.9s0-10.7,10.7-9.7c10.7,1,2.4,21.4,2.4,21.4S240.3,201.2,194.7,153.6z"/>
					<path id="XMLID_209_" class="st5" d="M262.6,143.4c0,0,3.8-9.5,2.9-15.8c-0.7-0.4-1.5-0.6-2.4-0.7c-2-0.2-4.6-0.7-6.4,0.2
						c-1.2,0.6-2.2,1.6-3.1,2.6c-1.5,1.5-3,3.2-3.5,5.2c0.4-0.4,1-0.7,1.6-0.7c-1.2,1.6-2.2,3.5-2.6,5.5c0.7-0.5,1.4-1.1,2.1-1.6
						c0.4,3.9-3.6,9.4-6.4,11.9c-3.6,3.3-8.1,5.4-12.8,6.5c-11.5,2.5-15.6-3.2-17.1-7.6c-3.8-3.8-3.8-9.4-3.8-9.4v-0.8l-3.4,4.2
						l-2.7-5.1l-0.2,0.2l-1-2l-1.4,8.3l-10.2-1l2.4,5.3l-2.6,0.3C237.5,196.1,262.6,143.4,262.6,143.4z"/>
					<path id="XMLID_208_" class="st5" d="M249.4,160.5c-1.4,3.2-4.3,5.4-7.5,6.8c-3.2,1.4-6.6,2-10,2.6c2.6-2.7,6.5-2.9,9.9-4.6
						c3.4-1.7,6.5-4,9.3-6.6"/>
					<path id="XMLID_207_" class="st10" d="M168.4,139c0,0-9.7-9.6-7.6-16c2.1-6.5,5.7-8.4,5.7-8.4s3.9,8.7,8.4,10.4
						c0,0-8.4-13.4-5.7-18.5c0.4-0.8,0.4-1.2,0-1.3c-1.3,1.2-2.4,2.9-3.2,4.7c0,0-4.5,3.9-5.8,12.3c0,0-2.4,1.2-2.5,7
						c0.4-0.5,1.2-1.2,1.8-0.5C160.3,129.7,161.7,136.3,168.4,139z"/>
					<g>
						<g>
							<path id="XMLID_206_" class="st2" d="M164.4,133.2c2.2,2.8,4.7,4.9,6.5,6.4c0.9,0.7,1.7,1.3,2.3,1.7c0.5,0.4,0.8,0.6,0.8,0.6
								s-0.3-0.1-1-0.4c-0.6-0.3-1.5-0.7-2.6-1.3c-2.1-1.2-5-3.1-7.3-6c-2.4-3-3.5-6.3-3.8-8.7c-0.1-1.2-0.1-2.2-0.1-2.9
								c0.1-0.7,0.1-1,0.1-1s0,0.4,0.1,1c0.1,0.7,0.3,1.6,0.6,2.7C160.8,127.5,162.2,130.5,164.4,133.2z"/>
						</g>
						<g>
							<path id="XMLID_205_" class="st2" d="M172.5,119.8c0.9,1.4,1.8,2.7,2.8,3.8c1,1.1,1.9,2,2.7,2.8c0.8,0.8,1.5,1.4,2,1.8
								c0.5,0.4,0.7,0.7,0.7,0.7s-0.3-0.2-0.9-0.5c-0.6-0.3-1.4-0.8-2.3-1.4c-1-0.6-2-1.5-3.1-2.5c-1.1-1.1-2.2-2.4-3.1-3.9
								c-1.9-3-2.6-6.2-3-8.4c-0.2-1.1-0.3-2-0.3-2.7c0-0.6-0.1-1-0.1-1s0.1,0.3,0.3,0.9c0.2,0.6,0.5,1.5,0.8,2.5
								C169.7,114.1,170.8,117,172.5,119.8z"/>
						</g>
					</g>
					<g class="st17">
						<g>
							<path id="XMLID_204_" class="st18" d="M277.4,189.5c1.9,2.2,3.3,4.5,4.1,6.2c0.8,1.7,1.2,2.9,1.2,2.9s-0.7-0.9-1.9-2.4
								c-1.2-1.5-2.8-3.5-4.6-5.6c-1.9-2.1-3.6-4-5-5.3c-1.3-1.3-2.2-2.2-2.2-2.2s1.1,0.5,2.7,1.6
								C273.4,185.6,275.5,187.3,277.4,189.5z"/>
						</g>
						<g>
							<path id="XMLID_203_" class="st18" d="M278.6,187.7c1.4,1,2.4,2.1,3.1,3c0.7,0.9,1,1.5,1,1.5s-0.6-0.4-1.5-0.9
								c-0.9-0.6-2.1-1.4-3.4-2.3c-1.3-0.9-2.5-1.8-3.3-2.4c-0.9-0.6-1.4-1.1-1.4-1.1s0.7,0.1,1.7,0.4
								C275.8,186.2,277.2,186.8,278.6,187.7z"/>
						</g>
						<g>
							<path id="XMLID_202_" class="st18" d="M246.7,188.1c0.2,0.9,0.5,1.7,0.6,2.3c0.2,0.6,0.3,1.1,0.3,1.1s-0.4-0.2-1-0.6
								c-0.5-0.5-1.2-1.3-1.5-2.3c-0.3-1.1-0.2-2.1,0.1-2.8c0.2-0.7,0.5-1,0.5-1s0.1,0.4,0.3,1.1
								C246.3,186.4,246.5,187.2,246.7,188.1z"/>
						</g>
						<g>
							<path id="XMLID_201_" class="st18" d="M261.3,207.1c3.8,5.3,6.9,10.3,9,14c2.1,3.7,3.3,6,3.3,6s-6.1-8.6-13.6-19.1
								c-1.9-2.6-3.7-5.1-5.3-7.4c-0.8-1.1-1.6-2.2-2.3-3.2c-0.7-1-1.4-2-1.9-2.9c-1.1-1.9-1.6-3.7-1.4-4.9c0-0.6,0.2-1.1,0.3-1.4
								c0.1-0.3,0.2-0.4,0.2-0.4s0,0.2-0.1,0.5c-0.1,0.3-0.1,0.8-0.1,1.3c0,1.2,0.6,2.8,1.9,4.5c1.2,1.7,2.9,3.6,4.7,5.8
								C257.5,202,259.4,204.4,261.3,207.1z"/>
						</g>
					</g>
					<path id="XMLID_200_" class="st6" d="M257.5,198.6c-2.9-5.1-4.1-6.6-4.1-6.6v3.6c0,0-4.4-7.3-4.1-9.7c0.1-0.7-2.3,4.3,3.1,11.4
						c5.4,7.1,13.9,16.8,14.8,19.7c0.3,0.9,0.7,1.8,1.2,2.5c2.7,0.9,5.2,1.4,7.4,1.6C272.9,217.8,260.1,203.1,257.5,198.6z"/>
					<path id="XMLID_199_" class="st6" d="M251.2,168.2c0,0,13.6,6.6,18.4,10.4c4.8,3.9,11.4,7.8,12,12.1l-6.9-4.8l5.3,7.5
						C280.1,193.5,254.1,168.9,251.2,168.2z"/>
					<g>
						<g>
							<path id="XMLID_198_" class="st19" d="M249.2,208.4c0.5,0.9,0.8,1.8,1,2.5c0.2,0.7,0.3,1.2,0.3,1.2s-0.4-0.2-1-0.7
								c-0.6-0.5-1.2-1.3-1.8-2.2c-0.5-1-0.8-2-0.9-2.7c-0.1-0.7-0.1-1.2-0.1-1.2s0.3,0.3,0.8,0.9
								C248.1,206.7,248.7,207.5,249.2,208.4z"/>
						</g>
						<g>
							<path id="XMLID_197_" class="st20" d="M255.2,212.2"/>
						</g>
						<g>
							<path id="XMLID_196_" class="st19" d="M253.5,211.8c0.3,1.1,0.2,2.1,0.1,2.9c-0.1,0.7-0.3,1.2-0.3,1.2s-0.2-0.4-0.5-1.1
								c-0.3-0.7-0.6-1.6-0.9-2.5c-0.3-1-0.4-1.9-0.5-2.6c-0.1-0.7-0.1-1.2-0.1-1.2s0.4,0.3,0.8,0.9
								C252.6,209.8,253.2,210.7,253.5,211.8z"/>
						</g>
						<g>
							<path id="XMLID_195_" class="st19" d="M258.1,217.8c0.5,1.3,0.3,2.6,0.3,2.6s-1.2-0.7-1.7-2c-0.5-1.3-0.3-2.6-0.3-2.6
								S257.5,216.5,258.1,217.8z"/>
						</g>
						<g>
							<path id="XMLID_194_" class="st19" d="M280.9,149.4c0.7,1.1,1.2,2.1,1.5,2.9c0.3,0.8,0.5,1.3,0.5,1.3s-0.5-0.3-1.1-0.9
								c-0.7-0.6-1.5-1.4-2.2-2.5c-0.7-1.1-1.1-2.2-1.4-3.1c-0.2-0.8-0.3-1.4-0.3-1.4s0.4,0.4,1,1
								C279.4,147.5,280.2,148.4,280.9,149.4z"/>
						</g>
						<g>
							<path id="XMLID_193_" class="st19" d="M284.1,159.7c0.3,0.3,0.5,0.7,0.5,1.1c0,0.3,0,0.6,0,0.6s-0.3,0-0.6-0.1
								c-0.3-0.1-0.7-0.2-1-0.4c-0.3-0.2-0.4-0.6-0.5-0.9c-0.1-0.3-0.1-0.6-0.1-0.6s0.2-0.1,0.6-0.1
								C283.3,159.3,283.7,159.4,284.1,159.7z"/>
						</g>
						<g>
							<path id="XMLID_192_" class="st19" d="M223,164.2c2.8,0.5,5.1,1.5,5.1,1.5s-0.6,0.1-1.6,0.2c-1,0.1-2.3,0.1-3.8-0.2
								c-1.4-0.3-2.7-0.7-3.6-1.2c-0.9-0.4-1.4-0.8-1.4-0.8S220.2,163.7,223,164.2z"/>
						</g>
						<g>
							<path id="XMLID_191_" class="st19" d="M233.3,164.3c0.5-0.2,1-0.3,1.5-0.4c0.4-0.1,0.7-0.2,0.7-0.2s0,0.3-0.3,0.8
								c-0.2,0.4-0.7,1-1.4,1.3c-0.7,0.3-1.4,0.1-1.9,0c-0.5-0.2-0.7-0.4-0.7-0.4s0.3-0.1,0.7-0.4
								C232.3,164.7,232.8,164.5,233.3,164.3z"/>
						</g>
						<g>
							<path id="XMLID_190_" class="st19" d="M228.3,160.6c0.9,0,1.6,0.8,1.6,0.8s-0.7,0.8-1.6,0.8s-1.6-0.8-1.6-0.8
								S227.4,160.6,228.3,160.6z"/>
						</g>
						<g>
							<path id="XMLID_189_" class="st19" d="M241.6,161.5c0.3-0.4,0.7-0.6,1-0.7c0.3-0.1,0.6-0.1,0.6-0.1s0,0.3,0,0.6
								c0,0.3-0.1,0.7-0.3,1c-0.2,0.3-0.5,0.5-0.8,0.7c-0.3,0.2-0.5,0.3-0.5,0.3s-0.1-0.2-0.2-0.6
								C241.3,162.4,241.3,161.9,241.6,161.5z"/>
						</g>
						<g>
							<path id="XMLID_188_" class="st19" d="M260.4,181.3c0.7,1.3,1.1,2.5,1.2,3.5c0.1,0.9,0.1,1.5,0.1,1.5s-0.3-0.5-0.8-1.3
								c-0.5-0.8-1.1-1.8-1.8-3c-0.7-1.1-1.2-2.2-1.7-3c-0.4-0.8-0.7-1.3-0.7-1.3s0.5,0.2,1.3,0.8
								C258.7,179.1,259.7,180.1,260.4,181.3z"/>
						</g>
						<g>
							<path id="XMLID_187_" class="st19" d="M264.5,183c0.3,1-0.3,2-0.3,2s-1-0.6-1.2-1.6c-0.3-1,0.3-2,0.3-2
								S264.3,182.1,264.5,183z"/>
						</g>
						<g>
							<path id="XMLID_186_" class="st19" d="M318.8,122.2c-0.2,1.8-0.4,3.4-0.6,4.5c-0.2,1.2-0.4,1.9-0.4,1.9s-0.2-0.7-0.4-1.9
								c-0.2-1.2-0.3-2.9-0.2-4.7c0.2-1.8,0.6-3.4,1.1-4.6c0.4-1.1,0.8-1.8,0.8-1.8s0,0.8,0,1.9C319.1,118.9,319,120.5,318.8,122.2z
								"/>
						</g>
						<g>
							<path id="XMLID_185_" class="st19" d="M321,112.6c0.4-0.6,0.9-0.9,1.3-1.1c0.4-0.2,0.8-0.2,0.8-0.2s-0.1,0.3-0.2,0.7
								c-0.1,0.4-0.3,0.9-0.6,1.4c-0.3,0.5-0.7,0.9-1,1.1c-0.3,0.3-0.6,0.5-0.6,0.5s-0.1-0.3-0.1-0.8
								C320.6,113.8,320.7,113.2,321,112.6z"/>
						</g>
						<g>
							<path id="XMLID_184_" class="st19" d="M326.3,107.2c0.4,0,0.6,0.8,0.6,0.8s-0.3,0.8-0.6,0.8c-0.4,0-0.6-0.8-0.6-0.8
								S325.9,107.2,326.3,107.2z"/>
						</g>
						<g>
							<path id="XMLID_183_" class="st19" d="M343.6,162.7c0.4,1.2,0.8,2.4,1,3.2c0.3,0.8,0.4,1.4,0.4,1.4s-0.5-0.3-1.1-1
								c-0.6-0.7-1.3-1.7-1.8-3.1c-0.5-1.3-0.5-2.6-0.5-3.5c0-0.9,0.2-1.5,0.2-1.5s0.2,0.5,0.6,1.4
								C342.7,160.3,343.1,161.4,343.6,162.7z"/>
						</g>
						<g>
							<path id="XMLID_182_" class="st19" d="M342.9,167c0.3,0.5,0.5,1,0.6,1.4c0.1,0.4,0.2,0.7,0.2,0.7s-0.3,0-0.7-0.2
								c-0.4-0.2-1-0.5-1.3-1c-0.4-0.5-0.5-1.1-0.6-1.6c0-0.5,0-0.8,0-0.8s0.3,0.1,0.6,0.4C342.2,166.2,342.6,166.6,342.9,167z"/>
						</g>
						<g>
							<path id="XMLID_181_" class="st19" d="M352.7,175.2c0.8,0,1.6,0,2.2,0c0.6,0,1,0,1,0s-0.3,0.3-0.8,0.7
								c-0.5,0.4-1.4,0.8-2.4,0.8c-1,0-1.9-0.3-2.4-0.6c-0.6-0.3-0.8-0.7-0.8-0.7s0.4,0,1-0.1C351.1,175.3,351.9,175.2,352.7,175.2z
								"/>
						</g>
						<g>
							<path id="XMLID_180_" class="st19" d="M380.1,123c0.6,1.9,0.7,3.7,0.8,4.9c0,1.3-0.1,2.1-0.1,2.1s-0.3-0.7-0.7-1.9
								c-0.4-1.2-0.9-2.8-1.5-4.6c-0.6-1.7-1.2-3.2-1.8-4.3c-0.3-0.5-0.6-1-0.8-1.2c-0.2-0.3-0.3-0.5-0.3-0.5s0.2,0.1,0.5,0.3
								c0.3,0.2,0.7,0.5,1.2,0.9c0.5,0.4,1,1,1.5,1.8C379.4,121.2,379.8,122.1,380.1,123z"/>
						</g>
						<g>
							<path id="XMLID_179_" class="st19" d="M380.8,133.2c0.3,0.8,0.2,1.7,0.1,2.3c-0.1,0.6-0.3,0.9-0.3,0.9s-0.2-0.3-0.5-0.8
								c-0.3-0.5-0.6-1.2-0.8-1.9c-0.2-0.8-0.3-1.5-0.4-2.1c-0.1-0.6-0.1-1-0.1-1s0.3,0.2,0.8,0.6
								C380.1,131.7,380.5,132.4,380.8,133.2z"/>
						</g>
						<g>
							<path id="XMLID_178_" class="st19" d="M329.8,181.6c0.1,0.8,0.2,1.6,0.2,2.4c0,0.8,0,1.5-0.2,2.1c-0.2,0.6-0.5,1-0.8,1.2
								c-0.3,0.2-0.4,0.2-0.4,0.2s0.1-0.1,0.3-0.4c0.1-0.3,0.2-0.7,0.2-1.2c0-0.5-0.1-1.1-0.3-1.8c-0.2-0.7-0.3-1.5-0.4-2.3
								c-0.4-3.4,0-6.2,0-6.2S329.4,178.2,329.8,181.6z"/>
						</g>
						<g>
							<path id="XMLID_177_" class="st19" d="M326.3,192.1c0.4-0.5,0.9-0.9,1.3-1.1c0.4-0.3,0.7-0.4,0.7-0.4s0,0.3,0,0.8
								c-0.1,0.5-0.3,1.1-0.7,1.7c-0.4,0.6-1,0.9-1.5,1.1c-0.5,0.2-0.8,0.2-0.8,0.2s0.1-0.3,0.2-0.8
								C325.7,193.2,325.9,192.6,326.3,192.1z"/>
						</g>
						<g>
							<path id="XMLID_176_" class="st19" d="M326.4,185.5c0.1-0.8,0.3-1.5,0.4-2.1c0.1-0.6,0.2-1,0.2-1s0.3,0.3,0.5,0.9
								c0.3,0.6,0.5,1.4,0.4,2.4c-0.1,0.9-0.6,1.7-1,2.2c-0.4,0.5-0.7,0.7-0.7,0.7s0-0.4,0-1C326.3,187,326.3,186.3,326.4,185.5z"/>
						</g>
						<g>
							<path id="XMLID_175_" class="st19" d="M256.5,127.4c-1.2,1.9-2.2,3.6-2.2,3.6s-0.1-0.5-0.1-1.3c0-0.8,0.3-2,1-3.1
								c0.7-1.1,1.6-1.8,2.3-2.2c0.7-0.4,1.2-0.5,1.2-0.5S257.7,125.4,256.5,127.4z"/>
						</g>
						<g>
							<path id="XMLID_174_" class="st19" d="M256.6,132.3c-0.3,0.9-0.9,1.7-1.5,2.1c-0.6,0.4-1.1,0.4-1,0.4c0,0,0.1-0.1,0.2-0.2
								c0.1-0.1,0.2-0.4,0.3-0.6c0.2-0.5,0.3-1.2,0.6-2.1c0.3-0.9,0.9-1.7,1.5-2.1c0.6-0.4,1.1-0.2,1.1-0.3c0,0-0.1,0.1-0.2,0.2
								c-0.1,0.1-0.2,0.3-0.3,0.6C257,130.8,256.9,131.5,256.6,132.3z"/>
						</g>
						<g>
							<path id="XMLID_173_" class="st19" d="M264.5,99.1c0.7,0.5,1.2,1.1,1.6,1.7c0.4,0.6,0.6,1.3,0.7,1.8c0.1,0.5,0.1,1,0.1,1.3
								c0,0.3-0.1,0.5-0.1,0.5s-0.1-0.1-0.2-0.4c-0.1-0.3-0.3-0.6-0.5-1c-0.5-0.8-1.4-1.7-2.5-2.5c-1.1-0.8-2.3-1.3-3.2-1.5
								c-0.5-0.1-0.9-0.2-1.2-0.2c-0.3,0-0.5,0-0.5,0s0.1-0.1,0.4-0.2c0.3-0.1,0.7-0.3,1.2-0.4c0.5-0.1,1.2-0.1,1.9,0
								C263,98.3,263.8,98.6,264.5,99.1z"/>
						</g>
						<g>
							<path id="XMLID_172_" class="st19" d="M266.6,97c0.7,0.3,1.1,0.8,1.4,1.2c0.3,0.4,0.4,0.7,0.4,0.7s-0.3,0-0.8,0
								c-0.5-0.1-1.1-0.2-1.7-0.4c-0.6-0.3-1.1-0.6-1.4-1c-0.4-0.3-0.6-0.6-0.6-0.6s0.3-0.1,0.8-0.2C265.2,96.7,265.9,96.7,266.6,97
								z"/>
						</g>
						<g>
							<path id="XMLID_171_" class="st19" d="M197.9,36.2c1.2,0.5,2,1.3,2.6,2c0.5,0.7,0.7,1.1,0.7,1.1s-0.5-0.2-1.2-0.5
								c-0.7-0.3-1.6-0.7-2.7-1.1c-1-0.4-2-0.8-2.7-1.1c-0.7-0.3-1.2-0.5-1.2-0.5s0.5-0.2,1.3-0.3C195.6,35.6,196.7,35.7,197.9,36.2
								z"/>
						</g>
						<g>
							<path id="XMLID_170_" class="st19" d="M199.6,32.2c0.6,0.2,1,0.6,1.3,1c0.3,0.4,0.3,0.6,0.3,0.6s-0.3,0-0.7,0.1
								c-0.4,0-0.9,0-1.4-0.2c-0.5-0.2-0.9-0.4-1.2-0.7c-0.3-0.2-0.5-0.5-0.5-0.5s0.2-0.2,0.7-0.3C198.4,32.1,199,32,199.6,32.2z"/>
						</g>
						<g>
							<path id="XMLID_169_" class="st19" d="M238,21.3c0-1.1-0.1-2.1-0.1-2.8c0-0.8-0.1-1.3-0.1-1.3s0.4,0.3,0.8,1
								c0.4,0.7,0.9,1.7,0.9,3c0.1,1.2-0.3,2.3-0.7,3c-0.4,0.7-0.7,1.1-0.7,1.1s0-0.5,0-1.3C238.1,23.3,238.1,22.3,238,21.3z"/>
						</g>
						<g>
							<path id="XMLID_168_" class="st19" d="M241.9,20.3c0.3-0.5,0.9-0.7,1.3-0.8c0.4-0.1,0.7,0,0.7,0s-0.1,0.3-0.2,0.6
								c-0.1,0.3-0.2,0.7-0.5,1.1c-0.2,0.3-0.6,0.6-0.8,0.8c-0.3,0.2-0.5,0.4-0.5,0.4s-0.2-0.2-0.2-0.6
								C241.6,21.4,241.6,20.8,241.9,20.3z"/>
						</g>
						<g>
							<path id="XMLID_167_" class="st19" d="M248.9,23.9c1.2-0.2,2.3,0.1,3,0.5c0.7,0.4,1,0.7,1,0.7s-0.5,0-1.2,0.1
								c-0.7,0-1.6,0.2-2.6,0.3c-1,0.2-1.9,0.3-2.6,0.5c-0.7,0.2-1.2,0.3-1.2,0.3s0.2-0.4,0.8-1C246.7,24.7,247.7,24.1,248.9,23.9z"
								/>
						</g>
						<g>
							<path id="XMLID_166_" class="st19" d="M253.9,36.2c1.3,0.6,2.2,1.5,2.7,2.3c0.2,0.4,0.4,0.7,0.4,1c0.1,0.2,0.1,0.4,0.1,0.4
								s-0.1-0.1-0.3-0.2c-0.2-0.2-0.5-0.4-0.8-0.6c-0.7-0.5-1.6-1-2.7-1.4c-1.1-0.5-2.1-0.8-2.9-1c-0.4-0.1-0.7-0.2-1-0.2
								c-0.2,0-0.4-0.1-0.4-0.1s0.1-0.1,0.3-0.2c0.2-0.1,0.6-0.3,1-0.4C251.3,35.7,252.6,35.7,253.9,36.2z"/>
						</g>
						<g>
							<path id="XMLID_165_" class="st19" d="M258.3,35c0.6,0.5,0.9,1.2,1,1.8c0.1,0.5,0,0.9,0,0.9s-0.3-0.2-0.7-0.5
								c-0.4-0.3-0.9-0.6-1.4-1c-0.5-0.4-0.9-0.9-1.2-1.2c-0.3-0.4-0.6-0.6-0.6-0.6s0.3-0.1,0.9-0.1C256.9,34.3,257.7,34.5,258.3,35
								z"/>
						</g>
						<g>
							<path id="XMLID_164_" class="st19" d="M264.1,53.5c0.9,2,1.1,4.1,1.1,5.5c0,0.7-0.1,1.3-0.1,1.7c-0.1,0.4-0.1,0.6-0.1,0.6
								s0-0.2-0.1-0.6c-0.1-0.4-0.2-0.9-0.4-1.6c-0.4-1.3-1-3.1-1.8-5c-0.8-1.9-1.7-3.5-2.5-4.7c-0.4-0.6-0.7-1.1-0.9-1.4
								c-0.2-0.3-0.3-0.5-0.3-0.5s0.2,0.1,0.5,0.3c0.3,0.2,0.8,0.6,1.3,1.1C261.9,49.9,263.2,51.4,264.1,53.5z"/>
						</g>
						<g>
							<path id="XMLID_163_" class="st19" d="M268.6,51.3c0.5,1.2,0.1,2.5,0.1,2.5s-1.1-0.7-1.6-2c-0.5-1.2-0.1-2.5-0.1-2.5
								S268.1,50.1,268.6,51.3z"/>
						</g>
						<g>
							<path id="XMLID_162_" class="st19" d="M272.4,66.4c0.7-0.3,1.4-0.6,1.9-1c0.5-0.3,0.8-0.6,0.8-0.6s0,0.1,0,0.3
								c0,0.2-0.1,0.5-0.2,0.8c-0.3,0.7-0.9,1.5-2,1.9c-1,0.4-2.1,0.3-2.7,0c-0.3-0.1-0.6-0.3-0.7-0.4c-0.1-0.1-0.2-0.2-0.2-0.2
								s0.4,0,1-0.1C271,67,271.7,66.7,272.4,66.4z"/>
						</g>
						<g>
							<path id="XMLID_161_" class="st19" d="M272.6,70c0.5-0.1,1,0.1,1.3,0.3c0.3,0.2,0.4,0.4,0.4,0.4s-0.2,0.1-0.5,0.3
								c-0.3,0.2-0.6,0.4-0.9,0.5c-0.3,0.1-0.7,0-1,0c-0.3-0.1-0.6-0.1-0.6-0.1s0-0.3,0.2-0.6C271.7,70.5,272.1,70.1,272.6,70z"/>
						</g>
						<g>
							<path id="XMLID_160_" class="st19" d="M264.9,79.9c0.6,0.5,0.9,1.2,0.9,1.7c0,0.5-0.1,0.8-0.1,0.8s-0.3-0.2-0.6-0.4
								c-0.4-0.2-0.8-0.5-1.2-0.8c-0.4-0.3-0.7-0.7-1.1-1c-0.3-0.3-0.6-0.5-0.6-0.5s0.3-0.2,0.8-0.3
								C263.5,79.3,264.3,79.4,264.9,79.9z"/>
						</g>
						<g>
							<path id="XMLID_159_" class="st19" d="M263.7,88.4c0.7,0.6,0.8,1.7,0.8,1.7s-1.1,0.1-1.8-0.5c-0.7-0.6-0.8-1.7-0.8-1.7
								S263,87.8,263.7,88.4z"/>
						</g>
					</g>
				</g>
			</g>
			<g>
				<path class="st21" d="M18.4,242H9.7v-60.7h8.7V242z M149.3,181.2h-8.7V242h8.7V181.2z"/>
				<g>
					<rect id="XMLID_156_" x="140.6" y="181.2" class="st21" width="8.7" height="6.7"/>
					<rect id="XMLID_155_" x="9.7" y="181.2" class="st21" width="8.7" height="6.7"/>
				</g>
				<rect id="XMLID_154_" x="1.9" y="176.1" class="st22" width="157.1" height="9.2"/>
				<rect id="XMLID_153_" x="1.9" y="176.1" class="st23" width="156.6" height="2.4"/>
				<path id="XMLID_152_" class="st24" d="M145.5,176.6H21.2c-2.2,0-4-1.8-4-4v-55.2c0-2.2,1.8-4,4-4h124.4c2.2,0,4,1.8,4,4v55.2
					C149.5,174.8,147.7,176.6,145.5,176.6z"/>
				<path id="XMLID_151_" class="st25" d="M24.5,116.9c-2.1,0-3.9,1.7-3.9,3.9v55.4c0,0.2,0,0.3,0,0.4c0.1,0,0.3,0,0.4,0h124.6
					c2.1,0,3.9-1.7,3.9-3.9v-55.4c0-0.2,0-0.3,0-0.4c-0.1,0-0.3,0-0.4,0H24.5z"/>
				<path id="XMLID_150_" class="st26" d="M17.2,143.6v29.2c0,2.1,1.7,3.9,3.9,3.9h124.6c2.1,0,3.9-1.7,3.9-3.9v-29.2H17.2z"/>
				<path id="XMLID_149_" class="st27" d="M33.3,153.8v19.7c0,1.4,1.3,2.6,2.9,2.6h94.3c1.6,0,2.9-1.2,2.9-2.6v-19.7H33.3z"/>
				<path id="XMLID_148_" class="st28" d="M31.5,137.6c0,2.2-1.8,4-4,4c-2.2,0-4-1.8-4-4c0-2.2,1.8-4,4-4
					C29.7,133.6,31.5,135.4,31.5,137.6z"/>
				<path id="XMLID_147_" class="st22" d="M45.6,137.6c0,2.2-1.8,4-4,4c-2.2,0-4-1.8-4-4c0-2.2,1.8-4,4-4
					C43.8,133.6,45.6,135.4,45.6,137.6z"/>
				<path id="XMLID_146_" class="st27" d="M59.8,137.6c0,2.2-1.8,4-4,4c-2.2,0-4-1.8-4-4c0-2.2,1.8-4,4-4
					C58,133.6,59.8,135.4,59.8,137.6z"/>
				<g>
					<path id="XMLID_145_" class="st15" d="M38.1,244.7l-2.9-0.5c1.3-7.1,7-13.5,14.4-16.3c8.1-3,16.3-1.8,21.8-0.2
						c1.3,0.4,2.6,0.8,3.8,1.2c1.9,0.7,3.8,1.3,5.7,1.7c7.7,1.8,16.2,0.2,22.7-4.2l1.6,2.4c-7.2,4.8-16.5,6.5-25,4.6
						c-2-0.5-4-1.1-5.9-1.8c-1.2-0.4-2.5-0.8-3.7-1.2c-5.1-1.5-12.7-2.6-20,0.1C44.2,233,39.2,238.6,38.1,244.7z"/>
				</g>
				<g>
					<path id="XMLID_144_" class="st15" d="M83.9,250.1c-0.1,0-0.1,0-0.2,0c-3.8,0-8.4-1.9-10.1-6.1c-0.3-0.8-0.5-1.6-0.6-2.3
						c-0.2-0.8-0.4-1.6-0.7-2.3c-1.5-3-6.2-3-9.8-2.5c-3.3,0.5-6.8,1.1-9.5,2.8c-2.4,1.5-4.5,4.4-4,7.5l-2.9,0.5
						c-0.7-4.4,2.2-8.4,5.3-10.4c3.3-2.1,7.3-2.8,10.7-3.3c8.2-1.1,11.5,1.6,12.8,4c0.5,1,0.7,2,1,3c0.1,0.7,0.3,1.3,0.5,1.9
						c1.1,2.9,4.6,4.2,7.4,4.3c0,0,0.1,0,0.1,0c3.3,0,6.5-1.3,9.6-2.6l1.1,2.7C91.4,248.6,87.8,250.1,83.9,250.1z"/>
				</g>
				<g>
					<path id="XMLID_143_" class="st15" d="M59.1,247.4l-1.2-2.7c4-1.7,7.6-5.1,10.6-10.1c0.4-0.6,0.7-1.2,1.1-1.8
						c2.4-4,5-8.5,9.8-9.8c2.4-0.6,4.9-0.3,7,0.1c6,1.2,11.7,3.4,17,6.5l-1.5,2.5c-5-3-10.4-5-16.1-6.1c-1.9-0.4-3.9-0.6-5.7-0.2
						c-3.7,1-5.9,4.8-8.1,8.5c-0.4,0.6-0.7,1.2-1.1,1.8C67.7,241.6,63.7,245.4,59.1,247.4z"/>
				</g>
				<g>
					<path id="XMLID_142_" class="st15" d="M117,246.2c-0.1,0-0.3,0-0.4,0c-3.6-0.1-6.8-1.6-9-4c-0.5-0.6-0.9-1.2-1.4-1.8
						c-0.6-0.9-1.2-1.7-2-2.3c-2.2-1.8-5.7-1.8-10.8-0.1c-3.9,1.4-7.8,3-11.5,4.8l-1.3-2.6c3.8-1.9,7.8-3.5,11.8-4.9
						c2.3-0.8,9.1-3.2,13.6,0.6c1,0.9,1.8,1.9,2.5,2.9c0.4,0.6,0.8,1.1,1.2,1.6c1.6,1.9,4.1,3,6.9,3c2.8,0.1,5.3-0.9,7-2.7l2.1,2
						C123.7,244.9,120.5,246.2,117,246.2z"/>
				</g>
				<g>
					<path id="XMLID_141_" class="st15" d="M134.6,245.9c-0.6-5.8-5.9-9.8-10.6-11c-6.1-1.6-12.6,0-17,1.3l-0.8-2.8
						c4.7-1.4,11.8-3.1,18.5-1.3c6.9,1.8,12.2,7.4,12.8,13.5L134.6,245.9z"/>
				</g>
				<g>
					<path id="XMLID_140_" class="st15" d="M65.1,251.1c-3.6-6.2-8.1-11.9-13.2-17c-1.3-1.2-2.6-2.5-4.2-3.2
						c-3.7-1.5-8.1,0.3-12.3,2.3c-2,1-3.8,1.9-4.4,3.5l-2.7-1.1c1.1-2.7,4-4.1,5.9-5c4.5-2.2,9.8-4.4,14.6-2.4
						c2.1,0.9,3.8,2.4,5.2,3.8c5.3,5.2,9.9,11.1,13.7,17.5L65.1,251.1z"/>
				</g>
				<g>
					<path id="XMLID_139_" class="st15" d="M110.4,253.5l-2.9-0.2c0.1-0.9-0.9-1.9-3-2.9c-3.4-1.7-6.9-3.5-10.6-4.2
						c-0.9-0.2-1.8-0.3-2.7-0.4c-1.8-0.2-3.7-0.4-5.5-1.1c-3.9-1.4-6.7-4.5-9.3-7.5c-2.8-3.1-5.5-6.1-9.1-6.9
						c-3.6-0.8-7.6,0.7-10.9,1.9c-2.6,1-5.6,2.2-7.4,4.4l-2.3-1.8c2.3-2.8,5.8-4.2,8.7-5.3c3.6-1.4,8.1-3.1,12.5-2.1
						c4.5,1,7.6,4.5,10.6,7.8c2.6,2.8,5,5.5,8.2,6.7c1.5,0.6,3.1,0.8,4.8,1c1,0.1,1.9,0.2,2.9,0.4c4.1,0.8,7.8,2.6,11.4,4.4
						C107,248.4,110.6,250.2,110.4,253.5z"/>
				</g>
				<g>
					<path id="XMLID_138_" class="st15" d="M71,248.6l-2.5-1.5c1.1-1.9,2.2-3.9,3.2-5.8c1.9-3.7,3.9-7.4,6.7-10.7
						c4.2-4.9,11.8-8.9,18.5-6c1.5,0.7,3,1.6,4.4,2.6c2.6,1.8,4.9,3.3,7.2,2.5c1.3-0.4,2.3-1.6,3.4-2.8c1.2-1.3,2.4-2.7,4.2-3.4
						c3.4-1.5,7.7,0.2,9.2,3.5l-2.6,1.2c-0.9-1.9-3.5-2.9-5.4-2.1c-1.2,0.5-2.1,1.6-3.2,2.7c-1.3,1.4-2.7,2.9-4.7,3.6
						c-3.7,1.2-6.9-1-9.7-2.9c-1.3-0.9-2.6-1.8-3.9-2.3c-5.3-2.3-11.6,1.1-15.2,5.2c-2.6,3-4.4,6.4-6.3,10.1
						C73.2,244.6,72.2,246.6,71,248.6z"/>
				</g>
				<g>
					<path id="XMLID_137_" class="st15" d="M99.3,244.6l-2-2.1c6.9-6.4,18.7-6.5,25.7-0.3l-1.9,2.2
						C115.1,239.1,105.1,239.2,99.3,244.6z"/>
				</g>
				<g>
					<path id="XMLID_136_" class="st15" d="M67.7,229.1l-2.7-1c1.5-4,6-6.6,10.2-5.9c0.4,0.1,0.7,0.1,1.1,0.2
						c1.7,0.4,3.2,0.6,3.5-0.1c0.4-0.7-1-2-2.5-2.8c-1.4-0.8-3.3-2.4-3.6-4.3c-0.2-1,0-2,0.7-2.8l2.3,1.8c-0.1,0.1-0.1,0.2-0.1,0.4
						c0.1,0.7,1.1,1.7,2.2,2.3c3.4,1.9,4.8,4.4,3.7,6.6c-1.4,2.7-4.6,2-6.7,1.6c-0.4-0.1-0.7-0.1-1-0.2
						C71.8,224.6,68.7,226.4,67.7,229.1z"/>
				</g>
				<path class="st29" d="M59.6,120.9l-26.8,57.3h-12l24.9-57L59.6,120.9z M71.9,120.6l-24.9,57h12l26.8-57.3L71.9,120.6z
					 M120.7,123.2l-24.9,57h12l26.8-57.3L120.7,123.2z"/>
				<rect id="XMLID_132_" x="33.2" y="117.8" class="st26" width="100.4" height="6.3"/>
				<g>
					<path class="st15" d="M38.3,123.8c0-0.2-0.1-0.4-0.1-0.6V72.6c0-2.1,1.7-3.9,3.9-3.9h81.5c2.1,0,3.9,1.7,3.9,3.9v50.5
						c0,0.2,0,0.4-0.1,0.6H38.3z M77.7,154.6h-4.3v53.1h4.3V154.6z M63.4,154.6h-4.3v53.1h4.3V154.6z M70.6,154.6h-4.3v53.1h4.3
						V154.6z M49.1,154.6h-4.3v53.1h4.3V154.6z M56.2,154.6H52v53.1h4.3V154.6z M84.9,154.6h-4.3v53.1h4.3V154.6z M120.7,154.6h-4.3
						v53.1h4.3V154.6z M113.5,154.6h-4.3v53.1h4.3V154.6z M41.9,154.6h-3.6v49.2c0,2.1,1.6,3.7,3.6,3.9V154.6z M123.6,154.6v53.1
						c2.1,0,3.9-1.7,3.9-3.9v-49.2H123.6z M106.4,154.6h-4.3v53.1h4.3V154.6z M99.2,154.6H95v53.1h4.3V154.6z M92,154.6h-4.3v53.1
						H92V154.6z"/>
					<g>
						<rect id="XMLID_117_" x="58.9" y="154.6" class="st30" width="4.3" height="40.5"/>
						<rect id="XMLID_116_" x="66.1" y="154.6" class="st30" width="4.3" height="40.5"/>
						<rect id="XMLID_115_" x="51.7" y="154.6" class="st30" width="4.3" height="40.5"/>
						<rect id="XMLID_114_" x="73.2" y="154.6" class="st30" width="4.3" height="40.5"/>
						<rect id="XMLID_113_" x="44.6" y="154.6" class="st30" width="4.3" height="40.5"/>
						<rect id="XMLID_112_" x="116.2" y="154.6" class="st30" width="4.3" height="40.5"/>
						<rect id="XMLID_111_" x="101.9" y="154.6" class="st30" width="4.3" height="40.5"/>
						<rect id="XMLID_110_" x="109" y="154.6" class="st30" width="4.3" height="40.5"/>
						<rect id="XMLID_109_" x="44.3" y="91.1" class="st30" width="76.6" height="32.7"/>
						<rect id="XMLID_108_" x="80.4" y="154.6" class="st30" width="4.3" height="40.5"/>
						<rect id="XMLID_107_" x="87.5" y="154.6" class="st30" width="4.3" height="40.5"/>
						<rect id="XMLID_106_" x="94.7" y="154.6" class="st30" width="4.3" height="40.5"/>
					</g>
					<rect id="XMLID_105_" x="89.2" y="81.2" class="st30" width="7.3" height="6.3"/>
					<rect id="XMLID_104_" x="100.9" y="81.2" class="st30" width="7.3" height="6.3"/>
					<rect id="XMLID_103_" x="112.7" y="81.2" class="st30" width="7.3" height="6.3"/>
					<ellipse id="XMLID_102_" class="st15" cx="55.2" cy="100.3" rx="3.6" ry="3.6"/>
					<ellipse id="XMLID_101_" class="st15" cx="55.2" cy="113" rx="3.6" ry="3.6"/>
					<rect id="XMLID_100_" x="63.5" y="97.9" class="st15" width="44.1" height="5.3"/>
					<rect id="XMLID_99_" x="63" y="110.1" class="st15" width="44.1" height="5.3"/>
				</g>
			</g>
			<g>
				<path id="XMLID_98_" class="st1" d="M141.1,79.6c0.5-1.2,1-2.3,1.4-3.3c1-2.3,1.8-4.7,1.9-7.2c0.4-6.6-5.6-14.9-10.6-18.8
					c-5.9-4.6-13.3-5.6-20.6-4.8c-16.9,1.9-33,17.7-34.2,21.9c-1.2,4.2,27.7,2.3,27.7,2.3s7.7,1.2,10,0c0,0,1.9,7.7,7.7,8.5
					c0,0,3.5,11.5,3.5,11.5c0.3,1,7-1.1,7.6-1.5C137.7,86.6,139.7,82.9,141.1,79.6z"/>
				<g>
					<g>
						<path id="XMLID_97_" class="st2" d="M129.8,78.1c-0.5,0-1.3,0.1-2.3,0.1c-1,0-2.1-0.1-3.3-0.5c-1.2-0.3-2.3-1-3.4-1.9
							c-2.1-1.8-3.6-4.2-4.5-5.8c0,0,0,0,0,0c-0.2,0.1-0.5,0.1-0.7,0.2c0,0,0,0.1,0,0.1c0.3,0.9,0.8,2.1,1.5,3.2
							c0.7,1.2,1.6,2.4,2.8,3.4c1.2,1,2.7,1.7,4.1,1.9c1.4,0.2,2.6,0.2,3.6,0c1-0.2,1.8-0.4,2.3-0.6c0.5-0.2,0.8-0.3,0.8-0.3
							S130.4,78.1,129.8,78.1z"/>
					</g>
					<g>
						<path id="XMLID_96_" class="st2" d="M101.2,69.4c1.5,0.4,3.1,0.4,4.6,0.5c1.6,0,3,0,4.5,0c2.8-0.1,5.4-0.5,7.4-1.1
							c2.1-0.6,3.7-1.3,4.7-1.9c0.5-0.3,0.9-0.5,1.2-0.7c0.3-0.2,0.4-0.2,0.4-0.2s-0.1,0.1-0.4,0.3c-0.3,0.2-0.6,0.5-1.1,0.8
							c-1,0.7-2.6,1.6-4.6,2.4c-2.1,0.8-4.7,1.4-7.6,1.6c-1.5,0.1-3,0.2-4.6,0.2c-1.6,0-3.3,0-5-0.4c-0.9-0.2-1.7-0.6-2.5-1
							c-0.7-0.5-1.5-1-2-1.6c-1.2-1.2-1.9-2.8-2.2-4.3c-0.3-1.5-0.1-3,0.3-4.3c0.4-1.3,1.1-2.4,1.8-3.2c1.5-1.7,3.1-2.5,4.2-3.2
							c1.1-0.6,1.7-0.9,1.7-0.9s-0.6,0.4-1.6,1.1c-1,0.7-2.5,1.7-3.7,3.4c-1.2,1.6-2.1,4.2-1.5,6.8C95.9,66.3,98.2,68.7,101.2,69.4z
							"/>
					</g>
				</g>
				<path id="XMLID_95_" class="st3" d="M96.5,57.5c-0.9,0.7,6.2,1.6,7,4C104.3,64,112.6,45.2,96.5,57.5z"/>
				<path id="XMLID_94_" class="st4" d="M141.1,79.6c0.5-1.2,1-2.3,1.4-3.3c1-2.3,1.8-4.7,1.9-7.2c0.3-5.8-4.2-12.9-8.7-17.2
					c1.4,9.1-1,20.5-5.6,21.9c-6.1,1.9-10.3-2.9-8.1-4.9c2.3-1.9,5.2-11.3,5.2-11.3s-4.8,5.5-18.4,7.8c-13.6,2.3-13.3-6.8-13.3-6.8
					l-1,3.9c0,0,0,2.3-6.5,1c-2.6-0.5-3.1-2.1-2.7-3.9c-3.6,3.3-5.9,6.3-6.3,7.8c-1.2,4.2,27.7,2.3,27.7,2.3s7.7,1.2,10,0
					c0,0,1.9,7.7,7.7,8.5c0,0,3.5,11.5,3.5,11.5c0.3,1,7-1.1,7.6-1.5C137.7,86.6,139.7,82.9,141.1,79.6z"/>
			</g>
		</g>
		<g id="XMLID_92_">
		</g>
	</g>
</g>
<g id="DESIGNED_BY_FREEPIK">
</g>
</svg>
