<svg width="73" height="60" viewBox="0 0 73 60" fill="none" xmlns="http://www.w3.org/2000/svg">
<ellipse cx="32.8359" cy="47.0002" rx="15.5" ry="13" fill="#8B8686"/>
<rect width="8.91733" height="34.4689" rx="4.45866" transform="matrix(0.831573 -0.555416 -0.555416 -0.831573 29.4766 44.3545)" fill="#8B8686"/>
<rect width="1.3719" height="5.48759" rx="0.685948" transform="matrix(0.0886932 0.996059 0.996059 -0.0886932 10.5938 22.1262)" fill="#8B8686"/>
<rect x="12.7812" y="26.4932" width="1.3719" height="5.48759" rx="0.685948" transform="rotate(-138.225 12.7812 26.4932)" fill="#8B8686"/>
<g clip-path="url(#clip0_2006_169)">
<path fill-rule="evenodd" clip-rule="evenodd" d="M12.5827 7.86514C13.3282 7.94479 14.0454 8.21665 14.6552 8.65067C15.265 9.0847 15.7435 9.66399 16.038 10.3245C16.3325 10.9851 16.4314 11.7012 16.3239 12.3937C16.2163 13.0863 15.9065 13.7282 15.4286 14.2488L17.2509 17.1338C17.3892 17.3523 17.4792 17.5935 17.5153 17.842C17.5514 18.0906 17.5327 18.3411 17.4605 18.5777C17.3883 18.8143 17.2641 19.0319 17.0957 19.2167C16.9274 19.4014 16.7186 19.5494 16.4825 19.6511C16.2465 19.7529 15.9883 19.8062 15.7244 19.8078C15.4604 19.8094 15.1964 19.7591 14.9491 19.6603C14.7018 19.5614 14.4765 19.416 14.2875 19.2334C14.0986 19.0507 13.95 18.8348 13.8513 18.5992L12.5458 15.4931C11.7997 15.5006 11.0563 15.3129 10.3977 14.9506C9.73912 14.5884 9.19108 14.0657 8.81415 13.4405C8.43722 12.8152 8.24608 12.1117 8.26189 11.4077C8.27769 10.7037 8.49981 10.0267 8.90368 9.45148C8.96052 9.37069 9.0401 9.30688 9.13406 9.26676C9.22802 9.22664 9.33289 9.21169 9.43765 9.22349C9.5424 9.23529 9.64318 9.2734 9.72937 9.33381C9.81556 9.39421 9.88399 9.4747 9.92747 9.56679L11.0017 11.8493L12.4176 11.8664L13.3001 10.8578L12.0323 8.66006C11.9809 8.57107 11.9553 8.47173 11.9582 8.37253C11.961 8.27333 11.9923 8.17796 12.0487 8.09652C12.1051 8.01507 12.1845 7.95058 12.2785 7.90985C12.3725 7.86912 12.4776 7.85367 12.5827 7.86514Z" fill="#FFD2B1"/>
</g>
<circle cx="29.1406" cy="22.6516" r="6" fill="black" stroke="#FFD2B1" stroke-width="4"/>
<circle cx="64.0625" cy="22.6516" r="6" fill="black" stroke="#FFD2B1" stroke-width="4"/>
<ellipse cx="44.9423" cy="26.0539" rx="15.7158" ry="17.5644" fill="#8B8686"/>
<path fill-rule="evenodd" clip-rule="evenodd" d="M38.3973 13.8291C36.5819 13.8291 35.1104 15.3007 35.1104 17.116C35.1104 18.9313 36.582 20.4029 38.3973 20.4029H38.5462C36.2276 22.473 34.7422 25.6597 34.7422 29.2343C34.7422 35.4734 39.2677 40.5313 44.8502 40.5313C50.4327 40.5313 54.9582 35.4734 54.9582 29.2343C54.9582 25.6597 53.4728 22.473 51.1542 20.4029H51.3073C53.1226 20.4029 54.5942 18.9313 54.5942 17.116C54.5942 15.3007 53.1226 13.8291 51.3073 13.8291H38.3973Z" fill="#FFD2B1"/>
<g opacity="0.3">
<rect opacity="0.5" width="1.68362" height="3.42885" rx="0.84181" transform="matrix(0.502871 0.864362 -0.808956 0.587869 43.3984 19.5804)" fill="#892A01"/>
<rect opacity="0.5" width="1.68362" height="3.42885" rx="0.84181" transform="matrix(-0.502871 0.864362 0.808956 0.587869 46.1406 19.5804)" fill="#892A01"/>
</g>
<ellipse cx="40.6406" cy="17.6129" rx="1.5" ry="1" fill="black"/>
<circle cx="51.1406" cy="17.6129" r="1" fill="black"/>
<rect width="1.49503" height="6.48463" rx="0.747514" transform="matrix(0.91471 -0.40411 0.333447 0.942769 35.0547 6.21667)" fill="#8B8686"/>
<rect width="1.49503" height="6.48463" rx="0.747514" transform="matrix(-0.91471 -0.40411 -0.333447 0.942769 40.2891 6.21667)" fill="#8B8686"/>
<line x1="40.1406" y1="32.1125" x2="50.434" y2="32.1125" stroke="black" stroke-width="3"/>
<path fill-rule="evenodd" clip-rule="evenodd" d="M40.1406 33.6125C40.1406 33.6126 40.1406 33.6126 40.1406 33.6126C40.1406 34.3043 42.4449 34.865 45.2873 34.865C48.1298 34.865 50.434 34.3043 50.434 33.6126C50.434 33.6126 50.434 33.6126 50.434 33.6125H40.1406Z" fill="black"/>
<line x1="44.9844" y1="20.8146" x2="44.9844" y2="24.1015" stroke="#EDB997"/>
<defs>
<clipPath id="clip0_2006_169">
<rect width="14" height="13" fill="white" transform="translate(8.92969 5.03943) rotate(19.5539)"/>
</clipPath>
</defs>
</svg>
