<svg width="198" height="161" viewBox="0 0 198 161" fill="none" xmlns="http://www.w3.org/2000/svg">
<path fill-rule="evenodd" clip-rule="evenodd" d="M99 161C100.271 161 101.302 159.97 101.302 158.7L101.302 2.30001C101.302 1.0297 100.271 6.71509e-06 99 6.60393e-06C97.7286 6.49278e-06 96.6977 1.0297 96.6977 2.30001L96.6977 158.7C96.6977 159.97 97.7285 161 99 161ZM115.116 138C116.388 138 117.419 136.97 117.419 135.7L117.419 2.30001C117.419 1.0297 116.388 8.12402e-06 115.116 8.01286e-06C113.845 7.90171e-06 112.814 1.0297 112.814 2.30001L112.814 135.7C112.814 136.97 113.845 138 115.116 138ZM131.233 115C132.504 115 133.535 113.97 133.535 112.7L133.535 2.30001C133.535 1.0297 132.504 9.53295e-06 131.233 9.42179e-06C129.961 9.31064e-06 128.93 1.0297 128.93 2.30001L128.93 112.7C128.93 113.97 129.961 115 131.233 115ZM147.349 92C148.62 92 149.651 90.9703 149.651 89.7L149.651 2.30001C149.651 1.0297 148.62 1.09419e-05 147.349 1.08307e-05C146.077 1.07196e-05 145.047 1.0297 145.047 2.30001L145.047 89.7C145.047 90.9703 146.077 92 147.349 92ZM163.465 69C164.737 69 165.767 67.9703 165.767 66.7L165.767 2.30002C165.767 1.02971 164.737 1.23508e-05 163.465 1.22397e-05C162.194 1.21285e-05 161.163 1.02971 161.163 2.30002L161.163 66.7C161.163 67.9703 162.194 69 163.465 69ZM179.581 46C180.853 46 181.884 44.9703 181.884 43.7L181.884 2.30002C181.884 1.02971 180.853 1.37597e-05 179.581 1.36486e-05C178.31 1.35374e-05 177.279 1.02971 177.279 2.30002L177.279 43.7C177.279 44.9703 178.31 46 179.581 46ZM198 20.7C198 21.9703 196.969 23 195.698 23C194.426 23 193.395 21.9703 193.395 20.7L193.395 2.30002C193.395 1.02971 194.426 1.49464e-05 195.698 1.50575e-05C196.969 1.51687e-05 198 1.02971 198 2.30002L198 20.7ZM-2.99337e-06 20.7C-3.10443e-06 21.9703 1.03088 23 2.30232 23C3.57377 23 4.60466 21.9703 4.60466 20.7L4.60466 2.3C4.60466 1.02969 3.57378 -1.73849e-06 2.30232 -1.84965e-06C1.03088 -1.9608e-06 -1.27374e-06 1.02969 -1.3848e-06 2.3L-2.99337e-06 20.7ZM16.1163 43.7C16.1163 44.9703 17.1472 46 18.4186 46C19.6901 46 20.7209 44.9703 20.7209 43.7L20.7209 2.3C20.7209 1.02969 19.6901 -3.29562e-07 18.4186 -4.40716e-07C17.1472 -5.5187e-07 16.1163 1.02969 16.1163 2.3L16.1163 43.7ZM32.2326 66.7C32.2326 67.9703 33.2634 69 34.5349 69C35.8063 69 36.8372 67.9703 36.8372 66.7L36.8372 2.3C36.8372 1.02969 35.8063 1.07937e-06 34.5349 9.68213e-07C33.2634 8.57061e-07 32.2326 1.02969 32.2326 2.3L32.2326 66.7ZM48.3488 89.7C48.3488 90.9703 49.3797 92 50.6512 92C51.9226 92 52.9535 90.9703 52.9535 89.7L52.9535 2.30001C52.9535 1.0297 51.9226 2.4883e-06 50.6512 2.37714e-06C49.3797 2.26599e-06 48.3488 1.0297 48.3488 2.30001L48.3488 89.7ZM64.4651 112.7C64.4651 113.97 65.496 115 66.7674 115C68.0389 115 69.0698 113.97 69.0698 112.7L69.0698 2.30001C69.0698 1.0297 68.0389 3.89723e-06 66.7675 3.78607e-06C65.496 3.67492e-06 64.4651 1.0297 64.4651 2.30001L64.4651 112.7ZM80.5814 135.7C80.5814 136.97 81.6123 138 82.8837 138C84.1552 138 85.186 136.97 85.186 135.7L85.1861 2.30001C85.1861 1.0297 84.1552 5.30616e-06 82.8837 5.195e-06C81.6123 5.08385e-06 80.5814 1.0297 80.5814 2.30001L80.5814 135.7Z" fill="#487A97"/>
</svg>
