<?xml version="1.0" encoding="UTF-8"?>
<svg id="Layer_2" data-name="Layer 2" xmlns="http://www.w3.org/2000/svg" viewBox="0 0 336.63 379.35">
  <defs>
    <style>
      .cls-1 {
        fill: #fff;
        stroke-width: 0px;
      }
    </style>
  </defs>
  <g id="Layer_7" data-name="Layer 7">
    <g id="jTGKL8.tif">
      <g>
        <path class="cls-1" d="M291.54,79.58s-1.6-1.16-1.6-1.15,1.86.51,1.86.52c0,0-.24.64-.23.63s-1.53-1.28-1.53-1.29c0,0,1.61,1.18,1.61,1.18s-1.5.1-1.5.1c0,0,.25-1.6.25-1.6s1.15,1.61,1.14,1.61Z"/>
        <path class="cls-1" d="M333.69,240.37c-1.01-6.81-.99-13.78-3.86-19.65s-8.34-10.07-13.37-14.85c-.52-.49-.07-2.48-.76-2.8s-1.97,1.31-2.61.97c-.12.2-.92-1.11-1.05-.91s1.55.57,1.43.77c.45.69-.87,2.28-.42,2.97s2.58.29,3.03.98c2.77,4.23,3.27,9.56,4.99,14.18s4.81,9.01,5.35,14.05c1.36,12.7-3.47,24.87-9.75,35.6s-14.37,20.85-26.06,26.2c-11.15,5.12-23.48,4.35-35.02,1.64-11.04-2.59-22.5-7.05-31.03-16.5-6.37-7.06-9.23-15.75-11.59-24.12s-4.42-17.18-1.99-26.62c5.14-19.92,21.06-33.3,38.76-40.09,17.55-6.73,38.33-7.59,55.78,3.37.73.46.4,2.61,1.14,3.06s1.34-.71,2.07-.26c-.14-.96,1.16-1.44.82-2.17-.38-.82-2.56-.49-3.09-1.17-6.58-8.45-13.14-15.42-21.71-18.32s-18.31-1.35-28.56.29c-13.85,2.21-27.57,6.96-37.78,16.1-10.52,9.43-16.53,22.66-19.4,36.04-.38,1.75-2.59,3.21-2.79,4.98s.75,4.7.52,6.44c-6.74.85-6.92-1.99-13.71-1.99s-7.48,4.14-13.91,1.95c-4.4-6.14-7.69-13.85-12.1-20.01s-10.58-12.3-14.93-18.37c13.09-10.22,26.42-20.79,37.65-33.07,11.13-12.17,20.33-26.27,31.42-38.67.27.23.86,2.11,1.47,2.62.43.37,2.2-.77,2.68-.37,6.53,5.38,12.55,11.21,20.03,13.84s15.75,1.85,24.26,1.3c9.96-.65,19.58-1.27,27.87-5.44s14.59-11.57,21.33-18.83c11.75-12.64,19.28-26.88,19.17-41.66s-7.96-28.97-20.1-41.14c-.58-.58-.13-2.61-.89-3s-1.06.55-1.77.13c.31,1.35-1.05,2.53-.54,3.54.58,1.15,2.99,1.2,3.63,2.23,4.42,7.26,5.58,15.46,6.97,23.24s3.12,15.85,1.12,24.21c-3.72,15.55-14.92,27.26-27.41,35.27s-28.27,13.22-43.53,9.23c-19.1-4.99-31.85-19.77-38.37-35.9-6.68-16.53-7.32-36.09,3.99-52.09,9.64-13.64,24.69-20.78,39.87-23.87,15.17-3.08,31.82-2.39,46.02,6.41.63.39.23,2.48.86,2.86s.96.47,1.6.85c-6.38-8.73-12.39-16.97-20.83-21.19s-18.38-4-29.43-2.48c-8.18,1.12-16.22,1.84-22.95,5.63-6.77,3.81-11.62,10.4-17.08,16.42-8.65,9.53-16.58,18.85-19.77,29.94s-1.43,22.91,1.98,35.67c1.4,5.24,1.78,10.85,4.55,15.42s7.7,8.69,11.32,12.79c-12.63,10.89-26.73,20.5-38.55,31.89-12.01,11.57-22.02,25.26-31.82,38.55-5.02-3.74-9.83-9.18-14.7-12.86s-11.09-5.76-16.24-9.12c-2.6-1.7-3.41-4.65-4.76-6.64s-3.65-4.04-2.92-7.46c.34-1.6,2.16-3.25,1.89-4.98s-2.62-3.08-2.81-4.72c-.2-1.74,1.58-3.71,1.36-5.46s-2.37-3.65-2.58-5.41c.85-.15,2.72,1.02,3.4.89.81-.15,1.23-2.25,1.96-2.35,13.93-1.94,26.29-5.09,35.56-12.77,9.35-7.74,14.75-19.37,19.4-32.46,4.1-11.56,6.95-22.52,4.65-32.94s-9.43-19.07-18.12-27.89c-.58-.59-.07-2.62-.81-3.06s-2.27,1.01-2.97.56c-.15.2-.81-1.17-.96-.97s1.45.72,1.3.92c.4.62-1.01,2.07-.62,2.69s2.47.16,2.88.77c2.9,4.34,3.52,9.79,5.31,14.55s4.92,9.31,5.41,14.52c1.18,12.63-3.61,24.6-9.71,35.17s-14.05,20.7-25.53,26.09c-11.13,5.23-23.31,4.65-34.76,2.11s-22.27-6.65-31.08-15.94c-6.67-7.04-9.77-15.82-12.25-24.29s-4.6-17.44-2.15-27.06c5.13-20.15,21.19-33.63,39.04-40.38s38.66-7.36,56.16,3.91c.83.54.6,2.75,1.52,3.33.79.5,1.18.25,2.14.86-1.1-2.97-.77-6.24-2.65-8.56s-5.36-2.8-8.01-4.7C115.21,5.76,103.05.22,90.26,0c-12.81-.21-25.09,4.93-35.15,11.93-10.67,7.42-19.73,15.25-24.64,25.64s-5.25,22.59-5.21,35.32c.06,15.76,2.78,30.17,10.99,41.12,8.3,11.07,21.45,17.65,36.46,21.88,2.29.64,4.14,3.1,6.5,3.58s5.73-.53,8.1-.03c-.24,3.62-2.35,7.61-2.58,11.2s1.18,8.01.95,11.63c-2.87-.98-6.03-3.74-8.89-4.75s-6.33-.07-9.26-.85c-8.22-2.21-14.68-3.81-19.25-.96-4.55,2.84-5.99,9.36-7.75,17.67-.09.45-2.14.55-2.21,1.01s1.88,1.11,1.85,1.56c-.46,8.35-2.94,16.58-3.4,24.92s1.09,16.79.69,25.14c-.43,8.86-4.07,16.62-7.44,24.06s-6.82,15.26-13.79,21.01c-.95.78-3.19.12-4.07.98s-.28,3.13-1.09,4.05c-5.22,5.84-10.05,11.96-10.93,19.15s2.33,14.29,5.95,21.23c3.62,6.92,7.51,13.62,13.75,16.97s14.01,2.87,21.7,1.66c2.7-.42,5.82.66,8.46-.31s5.49-3.63,8.14-4.51c3.78,7.4,7.37,15.24,12.92,21.34s12.97,10.35,18.75,16.2c1.93,1.95,2.93,5.28,5.33,6.82s5.86,1.05,8.42,2.04c4.31,1.66,8.27,3.52,11.92,2.23s5.78-5.37,8.7-8.69c2.8-3.19,6.36-5.78,6.94-9.31s-1.95-6.95-4.25-10.66c-1.83-2.95-2.28-6.98-4.53-9.7s-6.12-3.91-8.68-6.27c-5.12-4.75-9.07-10.81-14.45-15.39s-12.23-7.88-17.64-12.52c3.43-1.55,8.33-2.54,11.97-4.19,3.44-1.56,5.6-3.82,9.23-5.46-4.37-1.17-7.71-2.52-11.69-1.95-4.22.6-8.73,3.73-12.54,5.39-4.39-8.36-9.45-16.1-16.23-21.81s-15.83-10.33-22.02-16.88c6.41-10.9,10.32-22.58,10.97-34.61s-.99-25.24.34-37.19c21.88,11.37,40.69,26.75,57.5,43.12,16.8,16.35,32.59,34.4,43.79,56.55-4.41.57-9.95.38-14.42.93s-8.59,3.12-13.01,3.86c-3.16.53-6.88-1.45-10.23-.74-2.95.63-5.38,1.87-8.19,4.53,9.89-.28,19.22,1.59,28.7,1.39s19.28-2.53,28.85-3.32c7.44-.61,13.38-1.7,16.09-6.02s1.27-10.27-.29-17.4c-.24-1.12,1.45-2.7,1.16-3.82s-2.52-1.65-2.89-2.73c-.71-2.06.42-4.78-.36-6.89-.74-1.99-3.12-4.43-3.91-6.59,3.73-.43,8.14.9,11.71.49s7.18-2.84,10.78-3.25c.11.26-.66,1.89-.58,2.05.13.28,2.11-.12,2.14.06,2.57,17.81,8.31,33.35,19.54,43.92,11.26,10.6,27.13,15.36,45.04,16.74,15.77,1.21,31.26-1.22,43.43-9.58,12.17-8.35,20-21.92,24.51-37.11.8-2.7,3.37-4.95,3.95-7.71s-.86-5.84-.24-8.58c.14-1.14,1.99-1.03,1.99-2.18s-1.94-1.1-2-2.25c-.16-.81,1.64-1.88,1.47-2.69s-2.29-1.28-2.41-2.1ZM115.6,350.52c1.59,1.75.55,4.45.46,6.51s.75,4.84-.84,6.5c-1.44,1.51-3.94.68-5.8.73-1.71.05-4.11,1.2-5.87-.21-2.08-1.67-2.69-5.01-4.6-6.9s-5.15-2.32-7.13-4.11c-4.95-4.45-8.6-10.36-13.61-14.8s-11.56-7.71-16.58-12.17c2.53-2.39,6.76-4.46,9.38-6.94s4.92-6.51,7.5-8.95c6.06,6.59,11.05,14.85,17.25,21.6s13.72,12,19.83,18.74ZM52.46,287.75c2.9,2.92,4.6,7.13,7.77,9.88s7.86,4.52,11.04,7.34c-2.98,2.47-7.61,4.32-10.66,6.88s-4.81,6.58-7.97,8.93c-4.58,3.4-10.63,2.9-16.11,2.28s-11.29-1.27-15.47-5.28c-4.16-4-4.97-9.76-5.57-14.86s-1.08-10.91,2.39-15.63c2.41-3.28,6.67-5.05,9.52-8.06s4.97-7.53,7.77-10.6c2.82,3.22,4.7,8.08,7.37,11.2s6.98,4.97,9.91,7.93ZM164.48,289.09c-.66.15-1.67-1.71-2.34-1.63s-1.13,2.13-1.81,2.19c-.42.03-1.01-1.93-1.44-1.89s-1.69,1.41-2.12,1.46c-4.47-13.76-8.17-27.28-14.83-38.83-7.08-12.27-17.01-22.03-26.81-31.62-.56-.55.26-2.53-.3-3.07s-2.5.39-3.08-.14c-.29-.26.76-2.01.47-2.27s-1.92.97-2.21.71c-.59-.52.14-2.55-.46-3.06s-2.48.51-3.09.02c-.3-.25.66-2.05.35-2.3s-1.87,1.06-2.18.82c-7.63-6.1-14.92-13.16-24.06-17.79-8.56-4.34-18.56-6.18-28.53-9.17-.03-.19,1.15-1.71,1.07-2.16-.06-.32-2.09-.48-2.1-.84-.06-2.15,2.01-3.85,2.25-5.39.36-2.27-.6-4.8.54-5.84.04-.04,1.41,1.42,1.45,1.38s-1.17-1.62-1.13-1.66c1.31-1.03,3.62.41,6.04.68,1.6.18,3.89-1.32,6.05-.62,1.77.57,2.88,3.06,4.61,3.67s4.18-.61,5.9.06c1.36.53,1.95,2.93,3.28,3.48s3.47-.69,4.78-.1c.65.3.47,2.41,1.12,2.71s2.15-1.2,2.8-.9c3.51,1.68,5.99,5.24,9.31,7.14s7.7,2.26,10.87,4.41c1.72,1.16,2.26,3.98,3.92,5.2s4.52.9,6.13,2.19c2.15,1.71,2.95,5.01,5,6.84s5.41,2.26,7.35,4.2c.25.24-.92,1.9-.68,2.14s1.91-.92,2.15-.67c6.62,6.77,11.11,15.46,16.57,23.53s11.68,15.1,15.87,24.02c1.46,3.11.89,7.08,2.07,10.32s4.14,5.87,5.19,9.14c1.16,3.57-.64,6.04-1.85,8.04s-2.5,4.77-6.13,5.58Z"/>
        <path class="cls-1" d="M128.38,74.47c-.06-3.99,1.97-7.99,1.97-11.98s-2-7.95-2.12-11.94c-.11-3.92.85-7.51-.77-9.43-1.78-2.1-5.25-1.37-9.19-1.15-7.56.44-15.25-.98-22.8-.33-7.54.65-14.9,3.37-22.44,4.09-1.51.14-3.41-1.34-4.98-.78-1.38.49-2.74,2.97-4.35,3.47-1.13-1.18-2.55-3.11-3.56-2.45-.8.52-.09,2.79-.7,4.14-.4.89-2.67,1.05-3.01,1.99s1.33,2.34,1.25,3.31c-.54,6.63-3.11,13.1-3.61,19.74s1.08,13.39.86,20.03c-.12,3.58-.67,7.06,1.39,8.91s5.56.98,9.08.95c8.9-.08,17.82,1.8,26.71,1.64,8.89-.15,17.74-2.34,26.64-2.57,3.82-.09,7.37.58,9.2-1.37s.96-5.48.93-9.28c-.02-2.84,1.87-5.72,1.76-8.56s-2.23-5.62-2.27-8.45ZM111.24,49.38c-2.55,1.92-5.96,3.82-8.29,5.56-2.49,1.86-3.64,5.25-5.96,7.14-1.5,1.22-3.71.09-5.22.21s-3.58,1.54-5.19.61c-1.64-.96-2.15-3.74-3.73-4.81s-4.21-.45-5.87-1.39c-1.84-1.05-2.81-3.77-4.72-4.7s-4.72-.06-6.6-1.04c-.53-.27.12-2.3-.44-2.79-.42-.36-1.55-1.03-2.14-1.5,8.14.45,15.97,2.88,23.82,3.31,7.9.44,16.23-1.05,24.32-.6ZM117.21,90.63c-10.79,5.89-12.77-1.88-25.07-1.88s-12.72,4.35-24.78,1.98c-.38-4.91.42-10.93.03-16.07-.37-4.81-2.62-10.21-3.02-15.44,2.29,2,4.55,5.14,6.54,6.91,2.19,1.95,5.57,2.24,7.76,3.95,4.94,3.84,8.65,7.6,13.04,7.71s8.29-3.45,13.43-7.03c1.91-1.33,4.94-1.17,6.78-2.66s3.93-3.87,5.8-5.35c1.04,6.63-3.64,7.34-1.96,13.83,1.98,7.63,7.34,10.83,1.45,14.05Z"/>
        <path class="cls-1" d="M314.48,255.39c-.2,6.79-4.46,12.51-8.59,17.53s-8.92,10.3-15.64,11.63c-2.83.56-5.97-1.15-8.89-1.02s-5.76,2.13-8.65,2.17c-5.14.07-10.29-1.91-15.42-1.94s-10.3,1.92-15.43,1.84c-3.41-.05-5.22-2.42-6.8-3.8-1.7-1.48-4.03-3.17-3.73-6.65.58-6.77,3.35-13.32,4.19-20.06s-.22-13.74.66-20.47c.1-.78,2.3-.97,2.66-1.71s-.89-2.54-.58-3.27c.29.05,1.17,1.74,1.46,1.79s1.73-1.05,2.02-1c.78,6.7-.43,13.66.35,20.4s3.21,12.5,3.99,19.28c6.64,0,12.56,1.85,19.14,1.88s13.18-2,19.77-2.3c4.3-.2,8.97-.77,11.79-4.02s2.76-8.06,2.87-12.26c.1-4,.34-8.62-2.24-11.82s-7.08-3.92-11.08-4.73c-1.64-.33-3.03-2.51-4.72-2.65s-3.48,1.79-5.15,1.73c-2.76-.11-3.99-2.39-5.28-3.6s-3.61-2.37-3.67-5.16c-.06-2.45,2-4.9,2.06-7.35s-1.89-4.9-1.95-7.35c-.04-1.43,1.41-3.41.65-4.36s-2.63.13-4.27.17c-1.68.04-3.74-1.19-4.72-.27s.12,3.07-.09,4.74c-.06.53-2.11.87-2.15,1.4s1.92,1.2,1.9,1.73c-.09,1.92-2.14,3.75-2.21,5.67s1.84,3.95,1.68,5.86c-.17,2.14-2.41,2.85-3.47,3.78s-2.16,3.01-4.31,2.68c-1.73-.26-3.12-2.3-4.94-2.9-1.56-.52-4.39-.6-5.75-2.3,1.64-.33,4.31.48,5.66.21,1.68-.34,2.02-2,3.34-2.27-.14-2.65,1.56-4.9,1.39-7.4s-2.28-5.15-2.13-7.69c.17-2.92,2.84-4.97,4.28-7.25s2.07-5.55,4.62-7.04c3.81-2.23,8.05-.76,11.66.58s7.69,2.69,9.6,6.78c.64,1.37-.71,3.51-.29,4.99s2.69,2.53,2.95,4.02c.25,1.42-1.65,3.08-1.61,4.54s1.7,2.13,1.77,3.58c1.91.31,3,2.27,4.87,2.54s4.2-1.36,6.02-.85c7,1.93,11.51,7.53,15.27,13.06s7.36,11.47,7.15,18.86Z"/>
        <path class="cls-1" d="M290.29,77.08c-.12-.12,1.1-1.72.93-1.86-.14-.12-1.55,1.31-1.72,1.18-5.24-4.1-9.24-9.8-14.51-13.86-5.27-4.06-11.78-6.46-17.19-10.32-2.78-1.99-4.65-5.49-7.66-7.17s-7-1.41-10.12-2.81c-2.55-1.14-4.85-2.8-6.38-1.74s-.85,3.9-1.03,6.62c-.15,2.14-2.17,4.23-2.13,6.39s2.12,4.25,2.19,6.39c.28,8.59-1.42,17.24-1.13,25.82s2.59,17.1,2.85,25.69c.06,1.93-.99,4.01-.04,4.74,1.01.78,2.91-.83,4.64-1.1.95-.15,2.43,1.53,3.37,1.19s.94-2.55,1.73-3.11c7.39-5.19,15.92-8.78,23.28-14.03,7.36-5.24,13.53-12.14,20.86-17.43.53-.38,2.38.21,2.68-.47.28-.63-1.26-2.2-.94-2.79,0,0,1.69,1.06,1.69,1.05s-1.5.1-1.5.1c0,0,.25-1.6.25-1.6s-.46.45-.46.45c.02-.03,1.78.91,1.8.89s-1.68-1.09-1.66-1.11c.3-.49,2.34-.16,2.4-.49.07-.39-1.76-.2-2.19-.63ZM244.67,99.84c-4.16-8.9,1.91-10.25,1.91-20.07s-5.99-11.12-1.91-20.06c7.53,3.15,15.56,7.63,23.06,10.76s16.41,5.35,23.93,8.48c-7.5,3.4-16.42,5.89-23.96,9.31-7.47,3.39-15.46,8.13-23.03,11.56Z"/>
        <path class="cls-1" d="M52.63,180.62c9.97,3,18.47,8.53,27.03,12.87,9.14,4.63,18.94,9.34,26.57,15.44-7.63-6.09-16.52-12.58-25.66-17.21-8.56-4.34-18.54-6.17-28.51-9.17,0,0,1.25-.68,1.25-.68.14-.48-.67-1.25-.67-1.25Z"/>
        <path class="cls-1" d="M161.24,288.64c-.42.04-1.93-.91-2.36-.87s-.64,2.07-1.07,2.12c0,0,.89-1,.89-1s-1.13-1-1.13-1c.43-.05,1.07,1.9,1.48,1.86s1.76-1.08,2.18-1.11Z"/>
        <path class="cls-1" d="M291.74,79.35s-1.68-1.07-1.7-1.05c-.01.01,1.64,1.14,1.63,1.15,0,0-1.32-1.38-1.32-1.38s1.21,1.53,1.21,1.53c0,0-1.57-1.24-1.57-1.23,0,0,.91,1.62.9,1.62-.01,0,.24-1.92.23-1.93s-1.23.3-1.24.3c.03-.01,1.3,1.47,1.33,1.45s-.79-1.84-.76-1.86c0,0,.85,1.81.86,1.81s.44-.42.44-.42Z"/>
      </g>
    </g>
  </g>
</svg>