<?xml version="1.0" encoding="UTF-8"?>
<svg id="Layer_2" data-name="Layer 2" xmlns="http://www.w3.org/2000/svg" viewBox="0 0 466.97 346">
  <defs>
    <style>
      .cls-1 {
        fill: #fff;
        stroke-width: 0px;
      }
    </style>
  </defs>
  <g id="Layer_7" data-name="Layer 7">
    <g id="PtukBt.tif">
      <g>
        <path class="cls-1" d="M464.63,153.84c-4.16-26.99-10.08-52.8-21.55-76.22-11.47-23.42-28.24-43.91-47.06-63.7-2.73-2.87-4.36-7.02-7.57-9.13s-7.43-1.91-11.4-2.8c-.49-.09-.32-1.98-.82-1.98s-.3,1.87-.79,1.98c-2.47.74-5.55-.1-7.52,1.29s-2.1,4.43-3.26,6.88c-4.94,10.45-12.47,19.34-18.85,28.83-6.39,9.5-11.75,19.81-19.02,28.72-7.56,9.27-17.31,16.42-26,24.5s-16.47,17.26-25.65,24.86c-2.62,2.17-6.15,1.96-8.88,2.92s-5.41,3.32-8.76,3.26c-34.15-.61-68.28-3.17-102.44-3.7-34.16-.53-68.35.95-102.5.42-3.98-.06-6.88-1.57-8.1-.38s.26,4.14.28,8.1c.12,21.99-1.74,43.99-1.64,65.97s2.16,43.97,2.14,65.96c-.01,10.75-2.22,21.47-2.45,32.21s1.5,21.52,1.38,32.26c0,1.13-1.76,2.66-1.38,3.83s2.68,1.39,3.36,2.29c1.21,1.61,1.17,4.35,2.63,5.77s4.42,1.53,5.62,3.15c.95,1.28.65,3.65,1.76,4.21s2.85-1.09,4.44-1.08c32.59.14,65.16,2.3,97.75,2.48,32.58.18,65.18-1.63,97.77-1.42,3.89.02,7.74,2.13,11.63,2.26s7.82-1.7,11.71-1.58c13.47.05,13.47,2,26.94,2s13.47-1.93,26.94-2c1.81-.14,3.7,1.71,5.51,1.56s3.47-2.28,5.28-2.41c4.59-.32,8.58.33,10.65-1.76s1.33-6.05,1.37-10.67c.08-11.49,2.14-22.97,2.18-34.46s-1.92-22.99-1.88-34.48c0-.95,2-1.9,2-2.92,0-.91-.9-2.86-.9-3.92,7.35,1.83,13.52,2.17,18.6-.78,5.35-3.1,8.77-9.42,13.57-13.44,2.42-2.02,5.09-4.01,4.91-7.1-.15-2.54-2.99-4.77-4.7-7.68-3.49-5.94-5.31-12.89-8.87-18.8s-8.84-10.78-12.4-16.69c-1.22-2.02-.77-5.08-2.11-7.22-1.2-1.91-3.98-4.14-5.38-6.37,4.78-.79,10.24.05,14.79-.75s9.08-3.55,13.75-4c8.59-.83,17.15,1.03,25.63,1.76,8.46.73,17.23.39,25.5,3.06,1.41.46,2.09,2.88,3.47,3.46s3.49-.67,4.87-.11c4.07,1.67,7.7,3.64,10.46,2.31s3.37-5.35,4.14-9.76c.55-3.14,2.99-6.16,3.19-9.4s-1.84-6.45-2.32-9.6ZM258.15,132.88c-4.86,10.37-7.91,21.39-6.28,30.79s8.4,18.08,16.63,26.31c-12.34,10.71-26.29,20.42-38.55,31.05-12.38,10.74-24.24,23.16-36.46,33.75-24.56-17.96-45.8-39.93-67.17-60.93-21.48-21.11-43.77-42.72-65.37-63.69,32.68.53,66.2,2.53,98.84,3.06,32.66.53,65.69-.88,98.36-.35ZM54.05,139.74c12.1,12.16,24.37,25.08,36.26,37.02,12.1,12.16,25.81,23.5,37.69,35.44-12,16.05-25.81,31.49-37.78,47.49s-24.24,32.92-36.16,48.87c-7.25-41.49,4.62-42.44,1.98-84.47-2.65-42.31-8.96-42.8-1.98-84.34ZM59.8,322.27c11.93-17.59,25.31-34.96,37.73-51.65,12.58-16.92,24.22-34.93,37.49-51.16,7.22,6.02,14.14,13.64,21.21,19.54s15.57,10.4,22.69,16.34c1.66,1.38,2.05,4.31,3.71,5.68s4.61,1.2,6.29,2.56c2.32,1.88,3.3,4.57,4.85,4.5s2.35-2.83,4.57-4.8c7.87-6.93,17.06-12.35,24.93-19.26s14.43-15.34,22.3-22.26c.46-.4,2.22.75,2.72.34.45-.36,1.02-2.23,1.54-2.65,15.24,16.37,28.55,34.44,42.96,51.65,14.24,17.01,29.36,34.74,42.95,52.83-46.05-.28-92.26-2.43-137.98-2.71-45.75-.28-91.95,1.33-137.97,1.05ZM342.35,310.48c0,.11-1.97-.12-2-.02-.06.15.04,1.26.03,1.28-13.8-16.43-26.09-34.16-39.96-50.67-13.78-16.4-29.23-31.7-43.12-48.24,2.81-2.41,7.26-4.7,10.27-7.29s4.56-6.51,7.55-8.98c.39-.32,1.78,1.22,2.43,1.14s1.56-1.95,2.03-1.75c6.67,2.74,12.92,6.02,19.46,5.84s13.34-3.85,19.74-7.25c3.74,6.73,6.22,14.77,9.84,21.3s9.1,12.31,12.74,18.92c.31.55-1.31,1.9-1.15,2.54s2.21,1.08,2.21,1.71c.01,11.91-1.99,23.82-2,35.73s1.97,23.82,1.95,35.73ZM391.83,163.28c-6.65.75-13.57-.1-20.16,1.19s-12.73,4.7-19.28,6.11c-2.73.59-5.44.71-5.81,2.51-.33,1.61,2.07,3.31,3.49,5.58,5.17,8.24,8.61,17.56,13.76,25.81s12.02,15.41,17.26,23.61c1.31,2.04.1,4.09-.15,5.57s.09,3.82-2.11,5.07c-1.51.86-4.03.22-5.43,1.29s-1.59,3.76-3.02,4.74c-2.55,1.75-5.19.73-7.17.44s-4.83-.25-6.43-2.98c-4.51-7.66-7.22-16.36-11.62-24.08s-10.52-14.47-14.89-22.21c-.94-1.66.05-4.3-.73-6.06s-3.34-2.64-4.21-4.33c-1.07-2.06-1.25-4.76-2.73-5.15s-2.84,1.84-4.61,3.42c-6.55,5.85-16.2,6.02-25.01,4.72-8.67-1.28-17.96-4.04-23.26-10.8-5.7-7.27-6.22-16.68-5.28-25.3s3.36-17.58,10.44-23.68c.14-.12,1.23,1.57,1.61,1.49.2-.04,1.21-1.25,1.52-1.34.93,7.38.77,14.86,3.45,21.37s8.07,11.69,12.78,17.38c1.14,1.38,1.32,4,2.67,4.41s2.59-1.56,4.18-2.7c1.74-1.26,4.04-1.9,4-3.38s-2.58-2.32-3.85-3.77c-4.82-5.5-6.51-12.53-8.79-18.98s-5.38-12.98-5.72-20.14c-.04-.9,2.08-1.69,2.43-2.68s-.65-3.09.04-3.64c14.06-11.34,28.36-22.23,40.16-35.56,11.8-13.33,20.88-28.85,30.46-44.16.2-.32,2.03.64,2.44.23.26-.25.85-1.41,1.23-1.81,2.96,24.7,7.98,47.9,18.27,68.77,10.39,21.09,25.98,39.41,42.68,57.27-5.32,0-11.47-.7-16.78-.78s-10.58,1.96-15.84,2.56ZM383.61,83.76c3.29-.59,7.46-.22,10.23-.72,3.32-.6,6.75-2.9,9.51-3.39,2.34,4.65,3.16,10.49,5.49,15.11s6.44,8.39,8.71,13.05c.22.46-1.65,1.38-1.76,2.04-.11.61,1.54,1.88,1.28,2.35-1.34,2.43-4.47,3.84-6.04,6.51-1.32,2.24-2.54,5.94-4.17,8.72-3.91-7.35-6.18-15.7-9.92-22.72-3.83-7.19-9.5-13.76-13.32-20.94ZM454.06,173.39c-2.07-1.38-3.7-4.34-5.46-5.42-2.07-1.28-5.13-.95-6.67-2.47-4.25-4.21-6.99-9.89-11.11-14.23s-9.64-7.37-13.67-11.79c-.54-.6.87-2.41.76-3.49s-1.92-2.41-1.61-3.17c1.05-2.58,4.06-4.29,5.28-6.77s1.31-6.39,2.51-8.85c3.9.8,7.38,2.62,9.03,1.64,1.92-1.13.97-4.34.54-8.42-.85-8.11-.98-16.23-4.18-23.31s-9.21-12.55-14.72-18.55c-.82-.89-.46-3.22-1.48-3.93s-3.06.43-4.19.01c-.6-.22-1.46-2.06-2.36-1.85-1.04.25-.79,1.99-.95,2.46-.81,2.45-3.61,2.52-5.32,3.29-1.84.83-3.38,2.94-5.39,3.35-2.22.44-4.78-1.24-7.19-.97-2.15.24-5.14,2.02-7.63,2.33-1.16-5.7-.55-12.08-1.7-17.65s-4.26-10.9-5.28-16.55c-.53-2.93,1-6.19.68-9.17s-2.5-5.87-2.52-8.85c0-1.35,2.22-2.58,2.76-4.01.57-1.52-.11-4.03.93-4.81.68-.51,2.58,1.49,4.23,2.14,1.37.54,3.83-.28,4.6.55,4.19,4.47,7,10.26,11.12,14.81s9.67,7.99,13.28,12.94c10.01,13.75,17.14,29.16,24.54,44.24,7.4,15.07,15.22,30.14,19.49,46.68,1.19,4.64-.1,9.76.4,14.58s2.79,9.41,3.25,14.18c.15,1.54-2.05,3.04-2.37,4.93-.25,1.44.65,4.2.4,6.12Z"/>
        <path class="cls-1" d="M27.62,129.33c-1.25,1.58-3.35.55-4.77.46s-3.54.94-4.93-.17c-2.92-2.31-4.61-6.19-7.54-8.49s-7.32-3.31-10.25-5.61c-.65-1.07,1.85-1.77,1.85-3.02s-2.4-1.72-1.93-2.88c1.77-1.83,4.44-1.34,6.23-1.35s4.2-.9,6.1.75c2.13,1.85,3.1,5.14,5.35,6.85s5.74,1.78,7.98,3.49c1.53,1.17,1.03,3.53,1.4,4.95s1.79,3.37.5,5.01Z"/>
        <path class="cls-1" d="M39.61,109.19c-1.63,1.03-3.35-.57-4.71-1.04s-3.66-.02-4.66-1.55c-2-3.05-2.39-7.16-4.41-10.19s-5.71-5.02-7.56-8.16c-.5-.85,1.12-2.53,1.1-3.7s-1.81-2.57-1.51-3.53c.23-.73,2.5-.09,3.54-.65.78-.42,1.27-2.73,2.1-3.28.83.69.98,3.06,1.73,3.63.86.65,3.05-.08,3.6.71,2.09,2.99,2.47,7.14,4.48,10.18s5.67,4.98,7.7,8.01c1.02,1.52-.26,3.51-.36,4.9s.63,3.64-1.04,4.68Z"/>
        <path class="cls-1" d="M65.82,97.64c-.67.6-3.1.86-3.86,1.66-.81.84-.83,3.25-1.76,3.36-.91.1-1.85-2.12-2.97-2.66-1.21-.58-3.63-.2-3.89-1-.97-3.04.1-6.68-.6-9.82s-3.23-5.97-3.61-9.15c-.11-.88,2.29-1.62,3.18-2.7.84-1.02.83-3.48,1.74-3.76.74-.23,1.8,2.02,2.96,2.73,1.09.67,3.54.42,3.81,1.22,1.06,3.18-.04,6.98.76,10.42.73,3.14,3.41,6.17,4.26,9.71Z"/>
      </g>
    </g>
  </g>
</svg>