<?xml version="1.0" encoding="UTF-8"?>
<svg id="Layer_2" data-name="Layer 2" xmlns="http://www.w3.org/2000/svg" viewBox="0 0 307.87 282.18">
  <defs>
    <style>
      .cls-1 {
        fill: #fff;
        stroke-width: 0px;
      }
    </style>
  </defs>
  <g id="Layer_7" data-name="Layer 7">
    <path class="cls-1" d="M304.44,212.01c-1.01-2.73-.05-6.22-1.07-8.96s-3.97-4.62-5.42-7.14c-14.66-25.52-27.61-52.01-42.34-77.49-14.73-25.48-31.23-49.92-46.04-75.35-2.75-4.73-4.07-10.38-7.16-14.91s-7.91-7.86-11.02-12.36c-.69-1.01.07-3.37-.82-4.32-.95-1.03-3.03-.24-4.16-.58-4.33-1.3-7.78-5.15-11.98-6.86s-8.88-1.2-13.54-1.43c-.43-.02-.54-2.08-.97-2.2s-1.13,1.71-1.55,1.61C156.12,1.95,156.14,0,153.9,0s-2.23,1.96-4.47,2c-.33.09-.97-1.76-1.3-1.66s-.26,2.14-.6,2.18c-9.45,1.17-18.52,2.22-25.76,6.85s-11.96,12.43-16.76,20.67c-16.06,27.59-33.77,54.22-49.73,81.86s-30.17,56.3-46.13,83.94c-3.39,5.86-7.52,11.23-8.74,17.51s.59,12.82,1.45,19.53c2.13,16.58,9.4,30.53,21.32,38.98,12.48,8.84,28.76,10.88,43.82,8.56,9.26-1.43,17.97-2.9,24.79-7.82s11-12.8,15.62-20.85c7.24-12.61,16.23-24.22,23.51-36.81,7.27-12.59,12.82-26.18,20.09-38.78.26-.45,2.24.16,2.56-.32.27-.41-.2-2.4.13-2.9.34.56-.27,2.57.01,3.03.33.53,2.34-.01,2.63.48,7.29,12.64,12.81,26.3,20.09,38.94,7.28,12.65,16.3,24.28,23.65,36.89,5.47,9.39,10.99,17.93,19.21,22.84,8.25,4.93,18.37,5.72,29.22,6.03,12.97.37,25.78-1.98,35.66-9.36,9.84-7.34,15.8-18.96,19.41-31.41.47-1.61,2.79-2.75,3.16-4.39s-1.26-3.55-.87-5.19c.15-3.14,2-3.09,2-6.24s-1.9-3.11-2-6.25c-.24-1.1,1.56-2.45,1.35-3.56s-2.39-1.69-2.78-2.74ZM57.52,270.24c-12.25-.02-22.67-6.76-30.72-14.84s-14.75-18.53-14.71-30.78c.04-12.2,6.6-22.58,14.42-30.65s18.19-14.98,30.29-14.99c12.25-.01,22.84,6.51,31.13,14.2,8.56,7.94,15.62,18.24,15.61,30.27,0,12.68-6.66,23.37-14.69,31.63-8.14,8.36-18.74,15.19-31.33,15.17ZM145.92,163.2c-4.85,8.53-11.47,16.05-16.38,24.55-4.9,8.5-8.09,17.99-13,26.49-.12.2-1.9-.75-2.14-.47-.14.17-.52,1.25-.73,1.52-1.82-8.75-3.16-17.3-7.74-23.98-4.63-6.76-12.07-10.99-19.79-15.46-7.78-4.51-15.22-8.87-23.53-9.48-8.08-.6-17.5,1.49-26.19,4.3,9.91-17.17,21.58-33.58,31.36-50.51s18.34-35.43,28.18-52.49c3.02,10.61,7.33,21.6,12.59,30.87s12.94,17.47,18.12,26.87c3.05,5.54,4.48,12,7.67,17.46s8.13,9.92,11.25,15.42c.29.52-1.36,1.84-1.28,2.55.08.75,1.88,1.88,1.6,2.38ZM286.16,251.64c-4.4,6.17-10.99,9.2-17.23,12.2-6.05,2.91-12.51,6.31-20.17,6.51-8.34-.34-15.31-4.26-21.81-8.15-6.36-3.81-13.13-8-17.43-15.38-9.21-15.84-16.7-32.69-25.89-48.54-9.19-15.85-20.1-30.72-29.23-46.61-6.9-12-11.97-25.05-18.78-37.1s-15.37-23.11-22.3-35.09c-7.11-12.3-4.99-27.08.88-39.38s15.47-23.01,29.77-26.01c6.66-1.4,13.04.59,19.12,1.92s12.77,2.24,18.23,6.13c2.17,1.54,2.72,4.98,4.45,7.18s4.85,3.37,6.23,5.67c6.75,11.22,11.73,23.5,18.38,34.78,6.65,11.28,14.98,21.58,21.55,32.91,9.56,16.5,17.4,34,26.91,50.53,9.52,16.53,20.72,32.09,30.1,48.7,4.67,8.28,4.88,17.01,4.41,25.18s-1.67,16.81-7.19,24.54Z"/>
  </g>
</svg>