<?xml version="1.0" encoding="UTF-8"?>
<svg id="Layer_2" data-name="Layer 2" xmlns="http://www.w3.org/2000/svg" viewBox="0 0 447.75 475.23">
  <defs>
    <style>
      .cls-1 {
        fill: #fff;
        stroke-width: 0px;
      }
    </style>
  </defs>
  <g id="Layer_7" data-name="Layer 7">
    <g id="yT5Ic7.tif">
      <g>
        <path class="cls-1" d="M43.99,169.63s-.7,1.71-.7,1.71-.89-1.44-.88-1.45c0,0,1.89.44,1.89.43s-2,0-2-.02c0,0,.1-.44.1-.43s1.59-.24,1.59-.24Z"/>
        <path class="cls-1" d="M42.58,171.05s1.61-.27,1.61-.28.11-.46.11-.47c0,0-2,0-2,.02s1.9.46,1.89.47c0,0-1.6-1.16-1.6-1.16-.36.35-.01,1.42-.02,1.42Z"/>
        <path class="cls-1" d="M402.57,172.14c-8.03-14.06-14.94-28.99-24.34-41.84s-21.36-23.7-33.33-34.64c-11.96-10.92-23.54-22.11-37.09-30.65s-28.03-14.05-42.91-20.7c-1.92,8.55-5.84,14.59-10.74,20.72s-9.93,11.91-19,14.44c1.05,3.81.46,7.04,1.47,10.77s3.98,6.98,5.09,10.71c6.33,21.31,11.84,42.82,21.01,62.79s21.81,38.02,35.29,55.9c6.53,8.66,11.96,18.24,19.38,26.06s16.69,13.71,25.15,20.53c2.04,1.65,1.63,4.31,2.05,6.1s1.94,4.07.85,6.37c-10.29,21.66-22.38,42.47-32.67,64.13-10.29,21.66-18.77,44.19-29.06,65.84-.35.74-2.52.47-2.97,1.16s-.79,2.6-1.22,3.3c.25-.87,2.16-2.19,2.4-3.07s-1.41-2.37-1.08-3.22c5.25-13.71,12.37-26.7,17.62-40.4s8.65-28.12,13.94-41.82c3.21-8.29,8.31-15.84,11.56-24.14s4.8-16.23,8.07-24.56c-28.3-21-47.95-47.63-64.96-76s-30.49-57.94-41.69-90.46c-9.99,33.14-24.17,62.28-41.77,89.97-17.73,27.9-38.36,54.08-65.8,75.38.05.33-1.53-.05-1.5.19.04.32,2.01.12,2.1.37,8.56,22.57,15.26,45.84,23.82,68.41s18.98,44.43,27.5,67.02c.51,1.36-.23,3.37.6,3.83.89.49,2.53-1.26,3.82-1.16,8.19.63,16.23,3.3,24.42,3.98s17.46.35,25.65,1.03c-8.13,1.13-17.37,1.06-25.51,1.82s-16.16,3.39-24.33,3.99c-6.79.49-13.73-1.14-20.53-.72s-13.43,2.89-20.2,3.6c-4.08.43-8.29.8-10.5,3.63s-1.57,7.17-1.17,11.08c.37,3.7.6,7.79,3.4,10.01,2.62,2.07,6.7,1.52,10.59,1.52,29.53.02,59.06,2.02,88.58,2.02s59.05-2.01,88.58-2.02c3.63,0,7.44.74,9.94-1.11,2.65-1.96,2.91-5.81,3.59-9.23.7-3.52,1.96-7.39.32-10.44s-5.52-4.1-8.92-5.37c-1.53-.57-2.6-2.93-4.24-3.24s-3.54,1.48-5.17,1.39c-7.8-.43-15.52-2.75-23.33-3.08s-15.72,1.32-23.52.86c-5.45-.33-10.75-2.78-16.19-3.28s-11.6-.83-17.03-1.31c7.36-1.05,15.42-.02,22.78-.64,7.38-.62,14.6-3.11,21.98-3.65,1.08-.08,2.55,1.55,3.61,1.17s1.74-2.74,2.77-3.07c.6.33.66,2.64,1.26,3.04.67.45,1.87-1.03,2.52-1.05,4.49-.13,9.05,1.62,13.54,1.38s8.88-2.48,13.37-2.6c9.03-.25,16.27,4.34,21.97,9.31,5.99,5.23,11.22,12.06,11.18,20.88-.03,8.21-5.11,14.92-10.57,20.31s-12.14,10.35-20.41,10.43c-13.97.12-27.96-1.78-41.93-1.7-13.97.08-27.93,2.16-41.91,2.27-.98.01-2.09-1.89-3.07-1.78s-1.84,2.24-2.81,2.34c-4.49.04-4.5-2-8.99-2s-4.5,2.04-8.99,2c-5.72-.14-11.41-2.29-17.13-2.43s-11.48,1.73-17.21,1.64c-6.24-.1-12.45-2.13-18.69-2.17-6.24-.04-12.5,1.91-18.74,1.79-7.23-.14-13.29-4.7-18.46-9.18s-10.59-10.07-11.43-17.12c-.88-7.39,2.47-14.11,5.84-19.83,3.56-6.02,8.13-11.98,15.3-13.63,3.42-.78,7.2,1.07,10.82,1.15s7.19-1.64,10.71-1.56c3.55.08,7.01,2.25,10.64,2.47s6.89-1.55,10.6-1.35c-.31-.82.56-.87.34-1.48-.29-.79-2.37-.68-2.67-1.32-10.54-22.18-19.27-45.23-29.82-67.41-10.55-22.18-22.9-43.5-33.47-65.67-1.08-2.28.4-4.56.77-6.45s-.14-4.56,1.82-6.22c24.72-20.97,46.27-43.61,62.5-69.94,16.26-26.38,26.87-55.99,36.33-86.65,1.59-5.17,4.93-9.83,6.32-15.1s1.01-9.99,2.44-15.28c-9.01-2.57-14.13-8.35-18.95-14.31s-9.68-12.7-11.51-21.41c-.83.31-1-.65-1.74-.38-.81.29-.83,2.44-1.58,2.77-27.83,12.17-53.44,26.34-74.8,45.69s-38.02,43.47-53.15,69.74c-.91,1.57-3.57,2.07-4.54,3.6s-2.1,3.53-3.07,5.06c2.52-33.46,20.54-65.55,46.36-90.09,23.96-22.77,55.16-40.07,92-42.33.69-6.96,3.48-12,6.55-17.69s6.08-11.84,12.3-15.6c3.22-1.95,7.34-1.51,10.74-2.28,3.63-.83,8.01-2.26,11.5-1.63-2.59,1.88-6.99,3.17-9.83,5.1s-4.17,5.43-6.48,7.83c-5.59,5.83-9.94,12.75-9.8,20.17s4.92,14.37,10.78,19.57c4.73,4.2,9.66,8.28,15.44,8.71s11.29-2.92,16.49-6.45c5.34-3.62,10.59-7.74,12.39-13.64s-.22-12.14-2.43-18.32c-2.01-5.61-3.49-11.16-7.49-14.68s-10.24-5.95-15.83-7.75c10.33-3.61,20.65,1.49,28.5,10.28,6.14,6.88,11.93,15.25,13.85,27.13,28.28,2.46,51.65,12.53,72.32,26.41s39.16,32.04,52.73,56.7c3.39,6.15,5.04,15.99,7.53,24.76,3.18,11.19,4.98,22.28,2.64,25.68Z"/>
        <path class="cls-1" d="M84.31,221.52c-3.38,8.75-10.69,14.79-17.79,19.74-7.46,5.2-15.86,9.71-24.88,9.04-10.01-.74-18.18-6.23-25.12-12.21s-13.58-13.26-15.78-23.05c-2.54-11.28,1.88-21.85,7.99-30.16s15-15.68,26.5-16.38c1-.06,1.91,1.92,2.94,2.09.93.15,3.02-.79,4.02-.28-.79.33-2.94-.02-3.74.31s-.8,2.51-1.58,2.85c-7.13,3.14-13.84,6.64-17.2,12.64s-2.84,13.62-1.62,21.25c1.06,6.61,3.02,13.27,8.05,17.25s11.88,4.37,18.64,4.13c6.39-.23,13.23-1.41,17.88-5.84s6.14-11.22,6.67-17.59c.72-8.75.09-17.22-4.72-23.4s-13.44-9.33-22.12-11.08c6.82-1.45,13.6-.71,19.21,1.28s11.81,4.19,16.11,9.6c4.61,5.81,5.81,12.8,6.94,19.31s2.33,13.44-.4,20.48Z"/>
        <path class="cls-1" d="M446.35,220.09c-2.73,7.77-8.39,13.18-13.82,18.07s-11.41,9.92-19.67,11.31c-13.5,2.28-25.68-3.43-34.9-11.3s-16.78-19.23-16.33-32.78c.26-7.72,5.15-14.86,9.95-21.15s10.73-13.03,18.08-14.69c1.81-.41,3.84,1.46,5.76,1.58s4.73-.73,6.6-.25c-1.61.95-4.74,1.16-6.36,2.08s-2.15,3.58-3.66,4.67c-6.97,5.05-12.91,11.24-14.39,18.78-1.56,7.92,1.85,15.79,7.03,22.36,4.05,5.14,8.56,10.06,14.48,11.34s12.1-1.34,17.82-4.43c6.12-3.3,11.95-7.13,14.32-13.04s.78-12.69-1.34-19.33c-1.59-4.98-2.39-10.14-5.65-13.57s-8.44-4.55-13.17-6.62c-.77-.34-.78-2.49-1.83-2.9-.72-.28-2.18-.65-3.23-1.07,6.3-.94,11.79,1.33,16.71,2.93,5.3,1.72,10.93,3.25,14.94,7.74,5.09,5.69,6.76,12.75,8.25,19.32s2.97,13.65.4,20.96Z"/>
        <path class="cls-1" d="M226.04,372.4c-6.06-5.78-8.85-15.95-8.93-25.53-.08-8.62,1.69-18.57,8.33-25.73,6.95,6.23,9.41,16.2,9.31,25.41s-2.29,18.83-8.7,25.85Z"/>
      </g>
    </g>
  </g>
</svg>