<?xml version="1.0" encoding="UTF-8"?>
<svg id="Layer_2" data-name="Layer 2" xmlns="http://www.w3.org/2000/svg" viewBox="0 0 424.31 402.42">
  <defs>
    <style>
      .cls-1 {
        fill: #fff;
        stroke-width: 0px;
      }
    </style>
  </defs>
  <g id="Layer_7" data-name="Layer 7">
    <g>
      <path class="cls-1" d="M294.07,42.47c-37.59-18.08-74.14-28.77-109.85-26.48-36.04,2.31-70.17,17.68-103.23,44.4-33.38,26.98-55.28,57.32-64.3,92.27s-4.88,72.37,6.47,113c-.73-.58-1.79-1.58-2.34-1.96-.83-.56-2.87.3-3.18-.29-4.01-7.57-5.58-16.15-8.28-24.17s-6.66-15.81-7.92-24.29c-3.58-24.08-.02-46.71,6.05-68.24,6.09-21.61,14.92-42.85,29.26-62.07,15.73-21.08,35.26-37.16,56.01-50.78,20.69-13.58,43.18-25.1,69.08-30.59,3.42-.72,7.22.7,10.68.2s6.75-2.93,10.2-3.46c5.38-.2,5.42,2,10.81,2S198.95-.21,204.33.02c3.59.61,6.99,3.13,10.58,3.71s7.56-.76,11.11.01c12.54,2.73,23.59,8.91,34.59,14.65s22.4,11.26,32.02,19.68c.42.37-.61,2.21-.13,2.76.34.39,1.06,1.09,1.57,1.64Z"/>
      <path class="cls-1" d="M424.3,113.89c.13.66-1.98.87-1.98,1.54s2.17,1.05,1.94,1.69c-1.15,1.85-3.96,2.06-5.6,2.98s-3.14,3.2-5.37,3.01c-2.21-.18-4.31-2.24-6.53-2.37s-4.72,1.64-6.89,1.18c-.89-.19-1.22-2.6-2.19-3.34-1.23-.93-3.77-1.44-3.65-2,.28-1.22,2.67-1.91,3.4-3.15.8-1.35.61-3.93,1.72-4.35,2.34-.87,5.33.48,7.84.05s4.74-2.68,7.23-2.96c2.47-.27,3.83,2.12,5.29,3.37s4.1,2.14,4.79,4.33Z"/>
      <path class="cls-1" d="M375.55,100.73c-.46-2.32.76-5.11-.01-7.36s-3.47-3.77-4.18-6.03c-.19.04.32-1.27.13-1.23s.8,1.26.61,1.3c-2.13,11.67-4.97,23.26-6.48,35.09-1.5,11.72-2.25,24.42-6.89,35.69-8.51-5.8-17.49-12.22-26.79-15.92s-19.65-4.66-29.54-6.99c-4.86-1.14-9.32-4.09-14.19-5.17s-10.25-.31-15.01-1.79c-5.06-1.58-6.96-5.47-8.28-8.9s-2.71-7.49-.67-12.26c.93-2.19,3.82-2.36,5.52-3.37s3.04-3.49,5.05-4.07c4.15-1.2,8.87-.32,13.07-1.35s7.9-3.98,12.07-5.12c10.88-2.96,22.29-4.36,32.46-8.84,10.14-4.46,18.64-11.77,27.22-19.49.07-.06.77,1.67.88,1.68.14.01,1.07-1.64,1.08-1.64,2.65,2.78,2.1,7.59,3.57,11.15s3.47,5.48,7.25,7.6c-.27-4.82.42-8.83-.86-13.15s-4.94-8.05-6.89-12.25c-.9-1.95-1.17-4.19-2.54-4.22s-2.22,2.46-3.73,3.56c-5.89,4.3-13.14,6.33-19.6,9.53s-12.5,7.73-19.44,9.86c-7.19,2.21-15,2.2-22.32,3.99s-14.2,5.4-21.52,7.1c-8.2,1.9-14.9,2.75-18.91,6.75s-4.76,10.76-5.92,19.06c-.58,4.15-2.16,8.27-.82,11.73s5.23,5.38,8.7,7.82c2.22,1.57,3.56,4.72,6.03,5.97s5.78.47,8.38,1.25c5.42,1.64,10.37,5,15.87,6.36s11.49.7,17,2.04c1.49.36,1.51,2.41,2.13,3.22.59.78,2.6,1.35,2.46,2.97-.33,3.82-2.53,7.53-2.69,11.21-.17,4.02,1.64,8.26,1.48,11.74-2.01,2.39-5.72,3.57-7.62,5.72-2.03,2.31-2.33,5.79-3.92,8.26-4.8,7.48-11.19,13.96-15.86,21.52s-7.6,16.2-12.27,23.76c-.44.7-2.58.3-3.1,1.05-.45.64-.9,2.51-1.44,3.3-2.24-4.44-2.68-9.79-4.79-13.99s-6.14-7.73-8.35-11.98c-2.35-4.53-3.13-10.05-6.08-14.15s-7.76-6.47-11.98-9.51c-2.7-1.96-4.57-5.3-7.52-6.86s-7.25-2.81-10.11-4.39c12.18-9.36,18.94-21.11,19.16-33.28.25-13.86-7.4-26.7-16.01-35.01-9.07-8.75-20.02-14.72-31.57-14.49-11.51.24-22.2,6.62-30.97,15.75-8.19,8.53-16.06,20.89-15.93,34.26.11,11.64,6.63,22.77,19.04,32.15-1.2.3-3.25.37-4.37.66s-1.83,2.52-2.98,2.82c-10.84,2.79-21.24,5.7-29.93,11.74s-15.23,14.96-22.55,23.11c-7.72,8.61-16.14,16.61-22.59,26.12-6.44,9.52-10.8,20.41-16.91,30.18-5.82,9.3-13.48,17.44-19.45,26.65s-10.24,19.5-16.03,28.82c-1.57,2.53-4.75,4.32-5.95,7.12s-.27,6.32-.95,9.22c-1.03,4.34-2.37,9.1-.77,13.15,1.74,4.39,6.13,6.85,9.67,8.8,3.6,1.98,7.51,4.24,11.75,3.05,3.5-.98,6.13-4.75,9.56-7.94,2.34-2.18,6.02-3.08,8.18-5.47s2.66-6.15,4.59-8.7c8.99-11.93,19.54-22.71,28.46-34.7,8.92-11.99,16.22-25.19,25.13-37.19.35-.47,2.33.02,2.59-.52s-.16-.54.11-1.07c-1.22.77-3.23-.08-4.21.83-1.03.95-.53,3.35-1.43,4.39-9.27,10.76-20.04,20.23-29.3,31-9.26,10.77-16.99,22.85-26.24,33.63-2.65,3.08-6.77,4.7-9.78,7.34s-5.25,6.59-9.09,8.2c-1.97.83-3.66-.85-5.01-1.37s-3.73-.56-4.42-2.62c-1-3.02.46-6.33.67-9.31s-.71-6.55,1.07-9.25c7.73-11.72,17.1-22.36,24.87-34.06,7.78-11.69,13.98-24.46,22.02-35.97,5.9-8.44,13.55-15.63,19.75-23.87s10.99-17.6,17.53-25.54c5.58-6.77,13.23-11.24,20.43-15.76s14.58-9.42,23.51-10.43c7.1-.8,14.38.97,21.58.96s14.36-1.8,21.51-1.71c9.2.11,16.28,4.44,22.64,8.91s12.9,9.68,16.87,17.69c2.32,4.68,2.85,10.24,5.16,14.92s6.41,8.49,8.68,13.19c1.17,2.43.95,5.79,2.73,7.4s4.71.9,7.63,1.06c3.11.17,6.19,1.28,8.39-.12s2.63-4.85,4.18-7.4c3.13-5.17,7.96-9.32,11.09-14.5s4.59-11.38,7.82-16.5c2.38-3.79,6.55-6.42,9.05-10.14s3.35-8.53,5.77-12.29c.98-1.5,2.92-.68,3.99-.8s2.76-1.41,4.1-.45c2.78,1.99,3.18,5.87,4.09,8.95s2.66,6.56,1.3,9.74c-4.88,11.46-11.58,22.14-16.48,33.6s-7.99,23.69-13.02,35.09c-1.19,2.7-4.34,4.44-5.89,7s-1.64,6.17-3.51,8.45c-3.62,4.42-8.24,5.04-12.2,5.2s-8.6.04-12.8-3.74c-3.5-3.15-5.66-7.79-9.16-10.95s-8.32-4.86-11.78-8.06c-1.45-1.34-1.84-4.22-3.46-4.89s-3.35,1.08-5.42,1.95c-2.1.88-4.55.95-5.16,2.56s1.26,3.87,1.28,5.85c.06,4.71-1.93,9.43-1.93,14.14s1.98,9.42,1.98,14.13c0,10.54-1.98,21.09-1.96,31.63s2.02,21.08,2.02,31.63c0,4.23-2.33,6.25-3.98,7.93s-3.65,4.05-7.84,4.14c-8.97.2-17.99-1.53-26.96-1.27s-17.89,2.5-26.87,2.67c-3.87.07-7.75-1.95-11.63-2.05s-7.85,1.72-11.72,1.45c-2.85-.19-4.49-2.87-6.25-4.5s-4.54-3.07-4.85-5.96c-.36-3.26,1.41-6.69,1.25-9.97s-2.25-6.48-2.34-9.76c-.31-11.58,1.44-23.21,1.17-34.79s-2.54-23.11-2.89-34.69c-.08-2.76,1.65-5.66,1.34-8.42s-.67-5.27-.94-8.02c-1.38,17.33-4.56,34.46-5.65,51.76s-.11,34.77-1.12,52.1c-.43,7.24.06,14.01,4.21,18.33s10.88,5.11,18.13,5.14c7.77.03,15.53,2.19,23.31,2.33s15.56-1.74,23.34-1.79c5.74-.03,11.54,1.89,17.29,1.67s11.35-2.57,17.06-3.15c5.49-.56,10.34-.46,13.29-3.3s3.1-7.74,4.18-13.09c.52-2.54,2.86-4.85,3.09-7.46s-1.65-5.32-1.64-7.92c.06-10.47,2.06-20.93,2.03-31.4s-2.07-20.93-2.08-31.4c0-.82,2.04-1.6,2.08-2.51.04-.77-.54-2.59-.49-3.55,2.11,1.83,3.02,5.22,4.88,6.86,2.03,1.78,5.27,1.93,7.28,3.53,7.01,5.6,13.6,9.97,20.6,9.57s13.07-5.46,19.46-11.75c3.37-3.31,7.66-5.81,10-9.76s2.53-9.07,4.35-13.35c3.83-8.99,9.5-17.19,13.31-26.18s5.75-18.77,9.48-27.8c1.14-2.74,4.07-4.83,5.02-7.66s-.12-6.25.6-9.13c1.17-4.66,3.51-9.17,2.72-13.5s-4.42-7.46-7.91-11.11c-1.36-1.42-1.82-4.09-3.47-5.31-1.76-1.3-4.88-1.44-5.67-3.19-.8-1.78,1.09-4.25,1.23-6.46.13-2.06-1.6-4.2-1.7-6.2-.11-1.99,1.65-4.16,1.37-6.26-.25-1.89-1.86-4.69-2.12-6.87,2.82,1.27,5.4,4.25,7.93,5.35,2.75,1.2,6.23.59,8.74,1.95,2.69,1.45,4.3,4.77,6.89,6.4s6.21,1.6,8.81,3.22c.89.55.62,2.84,1.47,3.45s2.76-.5,3.68-.01c2.46,1.29,4.38,3.51,6.1,2.93s1.88-3.47,2.94-6.07c4.65-11.46,9.83-22.59,11.3-34.42s-.8-23.77-3.26-36.01ZM196.09,181.43c-1.01-.2-1.9-2.19-2.96-2.16s-2.19,2.11-3.23,2.11c-.06,0,1.12-1.06,1.12-1.12s-1.09.87-1.16.86c-.82,0-1.46-2.04-2.29-2.06s-1.52,1.97-2.33,2.1c-4.02.64-7.11-1.95-10.11-3.52s-6.9-2.52-9.37-5.34c-6.41-7.32-7.85-17.05-7.87-25.82-.02-9.31,1.89-19.04,8.97-25.22,4.94-4.31,11.91-5.24,18.31-6.14s13.45-1.89,19.27.97c5.77,2.84,9.15,9.03,12.28,14.86s6.43,11.72,6.08,18.35c-.28,5.16-3.31,9.45-5.29,13.81s-3.23,9.46-6.96,13.05c-1.93,1.85-5.01,1.74-7.24,2.67s-4.43,3.15-7.23,2.6Z"/>
      <path class="cls-1" d="M238.03,66.56c-4.02-.41-7.7-2.87-11.27-3.27-3.9-.44-7.77,1.17-11.49,1.01-22.74-1-44.57-.48-64.52,6.36s-37.2,19.68-53.55,36.15c-10.57,10.63-20.41,21.35-26.47,34.23s-8.04,27.37-9.92,42.17c-.63,4.93-2.83,9.77-2.93,14.77s1.92,10.03,1.76,15.01c-.04,1.1-2.04,2.17-2.03,3.28s2,2.41,2,3.51c-.26.09-1.82-.97-2.08-.88s-.9,1.83-1.16,1.92c-.56-.93.31-3.08-.31-3.99s-2.98-1.02-3.31-2.05c-4.08-12.73-3.58-25.58-2.65-38.01s2.38-25.28,7.89-37.31c10.32-22.52,25.49-40.22,42.57-55.02,17.06-14.78,36.7-27.22,60.9-33.45,12.54-3.23,24.99-2.05,37-.3s24.2,4.11,35.37,10.86c.73.44.33,2.6,1.24,3.24.64.45,2.03,1.15,2.96,1.79Z"/>
      <path class="cls-1" d="M369.53,275.56c-5.48,12.95-13.67,24.29-21.43,35.68s-15.33,23.15-26.04,32.43c-4.63,4.02-10.65,5.96-15.92,8.8s-10.23,6.82-16.36,7.92c-1.37.25-2.99-1.61-4.38-1.53s-2.76,2.14-4.15,2.25c-.12-.19.67-1.9.55-2.09s-1.86-.49-1.98-.68c1.24-1.19,3.92-1.12,5.15-2.34s1.16-3.92,2.53-4.97c14.53-11.21,29.11-22.07,40.71-35.72s19.93-29.71,28.03-46.28c4.05-8.28,9.23-16.05,12-24.74s3.05-18.07,4.85-27.09c.1-.51,2.16-.59,2.28-1.1s-1.67-1.53-1.52-2.03c.08-.27,2.05.22,2.19-.04s-1.29-1.7-1.16-1.96c.23-.08,1.45,1.53,1.68,1.45s.97-1.67,1.21-1.74c.4.98-.84,2.93-.4,3.91s2.74,1.45,2.89,2.5c1.52,10.05-1.19,19.64-3.27,29.04s-3.62,19.25-7.46,28.33Z"/>
      <path class="cls-1" d="M415.56,156.43c-.56,2.03-3.19,2.39-4.88,3.18-1.56.73-3.37,2.7-5.5,2.02-2.11-.68-3.54-3.29-5.61-4.13s-4.97,0-6.89-1.1c-.91-.52-.66-2.93-1.47-3.93-.91-1.14-3.31-1.9-3.18-2.83.27-1.88,2.75-2.38,4.17-3.32,1.3-.86,2.59-3.09,4.56-2.92,2.13.35,4,2.62,6.13,2.95s4.65-1.26,6.75-.77c2.49.59,3.02,3.2,3.86,4.89s2.73,3.51,2.06,5.96Z"/>
      <path class="cls-1" d="M410.08,83.52c-2.44.87-5.52-.29-8.09.44-2.42.69-4.57,3.34-7.19,4.12-.7-.53-1.15-2.88-1.95-3.38-1.04-.64-3.42-.36-3.47-1.04-.07-1.21,1.95-2.55,2.19-3.89.27-1.49-.85-3.78.02-4.52,1.79-1.51,4.92-1.19,7.02-2.36s3.34-3.97,5.48-4.94c2.3-1.03,4.45.81,6.26,1.69s4.6,1.32,5.44,3.63c.68,1.88-1.35,3.67-2.4,5.35-.92,1.47-1.26,4.17-3.31,4.9Z"/>
    </g>
  </g>
</svg>