<?xml version="1.0" encoding="UTF-8"?>
<svg id="Layer_2" data-name="Layer 2" xmlns="http://www.w3.org/2000/svg" viewBox="0 0 360.55 373.35">
  <defs>
    <style>
      .cls-1 {
        fill: #fff;
        stroke-width: 0px;
      }
    </style>
  </defs>
  <g id="Layer_7" data-name="Layer 7">
    <g id="Y6HzGU.tif">
      <g>
        <path class="cls-1" d="M357.73,148.49c-1.09-9.3-1.18-18.67-5.45-25.94s-12.19-11.71-22.03-15.16c4.69-5.25,9.21-11.28,10.6-17.31s-.5-12.8-1.05-19.4c-.73-8.59-.3-17.34-2.62-25.51s-7.31-15.38-11.25-23.04c-2.66-5.17-4.71-10.66-9.02-13.87s-10.16-3.62-15.86-4.72c-3.52-.69-6.85-3.19-10.46-3.51s-7.3,1.56-10.89,1.71c-13.85.57-27.78-.75-41.62-.01s-27.57,3.53-41.4,4.31c-3.61.2-7.38-1.53-10.99-1.18s-6.96,2.77-10.53,3.33c-6.16.95-12.13,1.42-16.1,4.94s-5.13,9.29-6.61,15.44c-.66,2.75-3.23,5.15-3.69,7.96s1.23,5.83,1.2,8.66c-.08,7.51-2.01,15.03-1.88,22.54s2.29,14.99,2.4,22.5c.02,1.18-1.98,2.37-1.99,3.54s1.97,2.57,1.97,3.71c-.23.09-1.8-.93-1.94-.86-.25.11.06,2.09-.1,2.1-.97.04-2.03-1.91-3-1.87s-1.89,2.07-2.86,2.07c-14.06.15-28.17-1.78-42.21-1.17s-27.81,3.73-41.74,6.03c-7.1,1.17-14.55.71-21.45,2.59s-13.05,6.05-19.71,8.83c-1.31.55-3.55-.34-4.32.57s.54,2.74.48,4.25c-.13,3.14-.6,6.38,1.3,7.78s4.81,0,7.78-1.15c11.17-4.3,23.13-5.41,34.72-7.5s23.17-5.22,35.05-5.78c8.41-.4,16.91,1.31,25.33,1.06s16.78-2.47,25.2-2.73c1.41-.04,2.85,1.95,4.26,1.96s3.56-1.65,4.98-1.65c.46,2.04-.77,4.96-.3,6.97s2.88,3.65,3.25,5.69c.37,2.08-.7,4.57.26,6.32s3.83,2.42,4.9,4.17c1.64,2.67,1.96,5.83,3.77,6.55s4.01-1.4,6.91-2.81c1.27-.62,3.38.56,4.68,0s2.06-2.96,3.43-3.24c1.55-.32,3.41,1.44,5.01,1.34s3.26-2.07,4.83-1.91c2.18.22,3.29,2.78,4.76,4.05s4.17,1.95,4.8,4.01c.66,2.18-1.24,4.21-1.86,6.11s-.17,4.59-1.9,6.11c-1.53,1.34-4.07,2.02-4.34,3.67-.29,1.74,1.93,3.12,3.06,4.72.99,1.4,1.01,3.86,2.31,4.25s2.6-1.63,4.24-2.32c8.18-3.47,16.59-6.21,23.02-11.7s10.43-13.32,14.87-21.07c.95-1.66,3.4-1.46,4.63-2.24s2.09-3.08,3.91-3.34c6.4-.9,13.09.1,19.48-.88s12.49-3.95,18.89-4.88c5.36-.77,11,.29,16.37-.49s10.59-3.42,15.99-3.64c7.09-.29,12.46,3.46,16.82,7.29s8.75,8.69,9.32,15.78c.53,6.7-1.27,13.52-1.23,20.26s1.91,13.48,1.81,20.2c-.25,16.32-2.57,32.61-2.92,48.93s1.26,32.69.86,49.01c-.09,3.74-2.22,7.41-2.45,11.16s1.41,7.7.87,11.4c-.97,6.75-4.79,12.15-8.21,17.27s-6.92,10.63-13.46,13.46c-1.42.62-2.72-.98-3.76-1.23-.97-.23-2.91.59-3.86-.78-2.28-3.3-3.48-7.53-6.47-10.09s-7.39-3.11-10.92-5.01c-.44-.24.19-2.22-.24-2.51s-2.23-.27-2.67-.55c7.25-10.94,13.43-21.54,14.9-33.07s-1.91-23.44-6.27-35.68c.11-.13,1.93.04,2-.05.13-.18-1.06-1.75-.98-1.78.69-.34,2.26,1.13,2.96.79s.5-2.46,1.19-2.82c4.78-2.47,10.32-3.72,14.09-7.23s5.3-8.79,7.58-13.8c2.7-5.93,5.25-11.77,3.92-17.26s-6.25-9.48-11.6-13.27c-2.48-1.75-4.16-5.06-6.97-6.4s-6.43-.57-9.36-1.35c-11.2-2.95-22.19-6.5-33.58-7.19s-22.82,1.52-34.34,2.14c-14.75.8-29.59-.65-44.36-.26s-29.5,2.61-44.27,2.75c-11.73.11-23.44-2.07-35.17-2.34s-23.49,1.39-35.22,1.17c-2.83-.05-5.86-.87-7.45.67-1.7,1.65-.83,4.59-.38,7.32.35,2.14-.07,4.8,1.69,5.87,1.46.89,3.93-.48,6.3-.45,9.91.13,19.8,2.34,29.71,2.49s19.83-1.78,29.74-1.91c14.38-.2,28.8,1.46,43.18,1.06s28.69-2.87,43.06-3.35c10.48-.34,21.03.9,31.52.5s21.02-2.43,31.52-1.34c4.2.44,8.01,3.04,12.05,4.12s8.71.75,12.41,2.91c3.61,2.11,4.47,5.95,5.43,9.03s2.42,6.75.59,10.51c-1.91,3.91-6.01,5.94-9.09,8.58s-5.66,6.39-9.66,7.95c-.46.18-1.19-1.78-1.86-2.02-.62-.22-2.27,1.08-2.64.7-1.41-1.42-1.22-4.32-2.53-5.85s-4.06-1.65-5.54-2.99c-7.77-7.04-15.12-14.11-24.2-17.37s-19.02-2.46-29.65-1.02c-1.83.25-4.03-1.16-5.84-.68s-3.44,2.87-5.28,2.83c-4.98-.11-9.97-1.25-14.24.39s-7.29,5.88-10.84,9.25c-3.22,3.05-7.66,5-10.53,8.42s-4.08,8.18-6.86,11.65c-.77.96-2.74.15-3.55.6s-1.29,2.55-2.53,2.55c-11.34.08-22.7-1.78-34.03-1.64-11.34.13-22.66,2.26-34,2.32-4.2.02-8.39-1.97-12.59-2.07s-8.53,1.68-12.71,1.25c-6.63-.67-10.98-5.15-14.42-9.5s-6.82-9.57-6.26-16.15c.28-3.23,2.9-5.89,3.94-8.84s.65-6.65,2.34-9.39c.74-1.19,3.1-1.82,3.09-2.9s-2.1-1.24-3.44-2.14c-1.35-.9-2.35-2.61-3.24-2.14-.97.51-.35,2.94-.93,4.01-1.47,2.69-4.83,4.41-6.3,7.13s-.99,6.32-1.91,9.24c-2.77,8.73-3.91,17.15-.34,23.94s11.15,10.65,19.82,13.5c2.19.72,3.91,3.3,6.19,3.8s4.87-1.11,7.17-.97c8.79.51,17.49,2.96,26.29,3.34s17.68-1.28,26.48-1.01c5.28.16,10.55,2.18,15.82,2.15s11.58-1.17,16.83-1.17c-3.87,19.53-4.19,36.86,2.66,51.21,6.87,14.36,20.43,24.93,37.69,34.5-.7,0-1.86-.12-2.48-.12-.68,0-1.37,2-2.01,1.97-8.61-.42-17.11-2.88-25.72-3.33s-17.3,1.14-25.91.81c-14.11-.53-28.15-3.04-42.27-3.51-14.12-.47-28.29,1.11-42.41.75-4.73-.12-9.47-1.98-14.2-1.81s-9.42,2.37-14.15,2.36c-4.92,0-7.33-2.5-9.21-4.51s-4.23-4.59-4.09-9.44c.08-2.84,2.07-5.69,1.99-8.53s-2.2-5.61-2.36-8.45c-.35-6.7.96-13.55.44-20.26s-2.88-13.43-2.59-20.13c.93-21.02,2.51-41.95.77-62.71s-6.81-41.14-11.24-61.7c-.44-2.07.54-4.49-.45-5.43-1.14-1.09-3.24.26-5.27.53-1.96.26-4.49-.36-5.51,1.06s.36,3.63.56,5.64c.06.58-1.86,1.4-1.77,1.98s2.15.82,2.27,1.39c3.22,16.44,3.7,33.24,5.37,49.84,1.66,16.59,4.52,33.16,4.54,49.92,0,5.51-2.14,11-2.24,16.5s1.85,11,2.04,16.5c.28,7.89-1.28,15.86-.79,23.74s3.02,15.63,3.49,23.5c.35,5.92-.11,11.03,2.56,14.35s7.73,3.95,13.49,5.45c1.85.48,3.4,2.81,5.34,3.04s3.97-1.67,5.88-1.75c20.82-.82,41.6,1.55,62.37,2.43,20.77.88,41.62.27,62.39,1.48,16.29.95,32.49,3.71,48.8,4.4,16.31.69,32.7-.69,49-.03,1.35.06,2.02,2.18,3.02,2.63s3.07-.4,3.95.64c2.83,3.34,4.43,7.91,7.75,10.65s7.97,3.37,12.08,5.08c5.54,2.31,11.01,4.27,15.68,2.4s7.26-7.03,9.51-12.63c.88-2.18,3.29-3.96,3.73-6.42.4-2.27-.78-5.66-.27-8.13,7.08-2.32,14.52-4.39,19.56-9.33s7.06-11.9,9.46-19.2c1.42-4.32,4.56-8.25,5.5-12.75s-.38-9.34-.08-13.87c.62-9.37,2.94-18.67,3.17-28.06.23-9.39-1.62-18.84-1.37-28.22.28-10.11,2.54-20.16,2.81-30.27s-1.46-20.27-1.17-30.38c.03-.89,2.13-1.58,2.28-2.47s-1.68-1.93-1.55-2.81c.06-3.5,2-3.48,2-6.98s-1.94-3.48-2-6.98c-.14-.95,1.7-2.07,1.55-3.02s-2.27-1.63-2.38-2.59ZM330.99,84.55c-.34,4.75-3.61,8.16-6.15,11.42s-5.07,7.25-9.67,8.62c-3.57,1.07-7.7-.07-11.39.63s-7.03,3.23-10.72,3.82c-6.7,1.07-13.72.1-20.43,1.08s-13.14,3.92-19.86,4.92c-2.11.31-4.51-1.37-6.62-1.06s-3.9,2.6-6,2.96c-2.34.4-5.1-.53-6.77.76s-1.5,4.23-2.6,6.34c-2.18,4.18-6.41,6.93-9.42,10.5s-6.27,8-10.05,11c-3.61-11.56-7.51-19.83-15.74-22.47-6.7-2.15-15.97.32-28.03,3.05-.43-4.04.15-9.18-.32-13.2s-2.86-7.92-3.05-11.96c-.4-8.54,1.28-17.15,1.03-25.7s-2.45-17.04-2.59-25.58c-.04-2.5,2.1-4.94,2.37-7.45s-1.31-5.29-.86-7.76c.84-4.6,3.86-6.88,6.15-9s4.84-4.95,9.5-5.31c9.42-.74,19,.6,28.43-.05s18.71-3.29,28.13-4.02c6.64-.51,13.45.83,20.08.21s13.12-3.21,19.77-3.6c3.65-.22,7.39,1.67,11.08,1.74s7.54-1.66,11.16-1.13c5.11.74,8.65,4.49,12.25,7.44s7.95,5.58,10.2,10.14c2.63,5.35,2.59,11.6,4,17.28s4.35,11.11,5.28,16.92c.51,3.16-1.16,6.58-1.02,9.8s2.09,6.49,1.86,9.68ZM240.64,325.2c-13.73,1.13-26.1-4.4-36.33-12-9.94-7.38-18.96-17.39-22.25-31.18-2.7-11.33.11-22.24,4.17-32.05s9.73-19.52,19.5-25.8c2.39-1.54,5.86-1.4,8.26-2.95s3.72-4.76,6.12-6.28c.42-.26,1.8,1.24,2.27,1.04s.53-2.28,1.01-2.3c9.4-.55,18.23,2.07,26.71,4.53s17.29,5,24.38,11.6c5.69,5.31,8.28,12.44,11.08,19.07s6.1,13.45,6.19,21.2c-.06,14.28-7.15,26.59-16.14,36.29-8.9,9.6-20.55,17.64-34.96,18.83ZM304.65,353.58c-.23,1.87-2.54,2.34-3.64,3.09-1.17.79-2.66,2.5-4.36,1.5-2.52-1.5-3.93-4.75-6.34-6.46s-6-2.02-8.12-4.03c-2.41-2.29-3.13-6.18-5.29-8.8s-5.92-4.49-8.12-7.1c1.96-1.36,5.38-1.89,7.15-3.12,1.93-1.34,3.39-4.42,5.21-5.68,2.79,2.19,4.78,6.1,7.56,8.27s6.82,2.82,9.52,5.1c2.51,2.12,2.64,5.7,3.63,8.46s3.19,5.55,2.8,8.78Z"/>
        <path class="cls-1" d="M55.66,137.45c-.08,1.93-2.57,2.85-3.84,4.04s-2.3,3.62-4.24,3.62c-2.05,0-3.09-2.46-4.32-3.74s-3.64-2.39-3.59-4.45c.05-2,2.55-3.01,3.86-4.26s2.43-3.7,4.43-3.66c2.01.05,2.98,2.55,4.19,3.91s3.59,2.51,3.51,4.55Z"/>
        <path class="cls-1" d="M101.56,131.72c-.01,1.95-2.47,2.96-3.69,4.19s-2.27,3.7-4.2,3.66c-1.86-.04-2.75-2.5-3.92-3.73s-3.58-2.17-3.61-4.05c-.03-1.89,2.45-2.99,3.63-4.3s2.2-3.88,4.05-3.88c1.86,0,2.84,2.51,4.07,3.85s3.67,2.37,3.66,4.27Z"/>
        <path class="cls-1" d="M74.89,133.53c.03,1.8-2.44,2.75-3.69,3.95s-2.23,3.62-4.05,3.59c-1.81-.03-2.65-2.43-3.76-3.58s-3.49-2.07-3.46-3.88c.03-1.72,2.49-2.6,3.65-3.78s2.04-3.64,3.76-3.67c1.69-.03,2.63,2.44,3.83,3.62s3.68,2.05,3.71,3.75Z"/>
        <path class="cls-1" d="M292.31,51.18c-1.86.24-3.97-1.54-5.83-1.33s-3.48,2.41-5.34,2.66c-8.77,1.2-17.87.1-26.63,1.33s-17.03,4.74-25.56,7.32c-.34.1-1.09-1.79-1.52-1.78-.5,0-1.73,1.56-1.93,1.32-2.36-2.8-3.8-6.52-6.78-8.17s-6.94-.9-10.53-1.5c-.18-.03.33-1.94.16-2.05s-1.62,1.25-1.74,1.11c-1.56-1.88-2.46-4.23-4.2-4.26s-3.28,2.56-5.16,3.45c-8.48,4.03-14.91,11.08-15.99,19.87s3.28,16.98,9.95,23.77c3.37,3.43,6.1,7.41,10.13,8.54s8.41-.84,13.04-2.17c4.54-1.29,9.27-1.85,12.1-4.89s3.04-7.79,3.99-12.42c.36-1.78,2.37-3.45,2.31-5.31s-1.64-4.56-1.64-6.36c5.18-.67,10.86.56,15.93-.09s10.37-3.3,15.44-3.96c.55,1.78-.12,4.8.39,6.51s2.96,2.85,3.62,4.53c.57,1.48.15,3.74,1.31,4.27s2.71-1.28,4.2-1.65c1.46-.36,3.61.44,4.28-.55s-.89-2.71-1.09-4.18c-.24-1.72,1.39-3.78,1.01-5.51s-2.29-4-2.66-5.74c4.29-.84,9.38.12,13.74-.73s8.28-3.66,12.63-4.49c1.97-.38,3.05,1.56,4.1,2.3s3.24,1.07,3.56,3.06c.18,1.08-1.72,2.43-1.64,3.53s2.15,1.94,2.35,3.02c.08.43-1.4,1.64-1.08,2.03.3.36,1.47-.93,1.73-.57.29-.33,1.29,1.09,1.63.78.37-.35-.98-1.66-.88-2.08,1.4-5.88,1.49-11.88-1.97-15.8s-9.46-4.57-15.43-3.79ZM205.33,91.2c-4.52-.04-7.67-3.45-10.4-6.35s-5.97-6.08-5.99-10.66c-.02-4.73,3.25-8.03,5.93-10.85s5.96-6.24,10.64-6.21c4.55.02,7.71,3.4,10.45,6.24s6,6.02,6.03,10.6c.03,4.57-3.33,7.92-6.08,10.82s-6.07,6.44-10.59,6.4Z"/>
      </g>
    </g>
  </g>
</svg>