<?xml version="1.0" encoding="UTF-8"?>
<svg id="Layer_2" data-name="Layer 2" xmlns="http://www.w3.org/2000/svg" viewBox="0 0 491.26 518.26">
  <defs>
    <style>
      .cls-1 {
        fill: #fff;
        stroke-width: 0px;
      }
    </style>
  </defs>
  <g id="Layer_7" data-name="Layer 7">
    <g id="BHYodf.tif">
      <g>
        <path class="cls-1" d="M489.53,70.71c.43-.47,1.74.04,1.74-.6s-.65-.14-1.26-.31c-9.88-1.4-19.35-4.81-29.23-6.23s-20.03-.81-29.94-2.04c-4.42-.55-7.32-3.5-10.27-5.63s-6.61-3.89-8.34-8.18c-2.7-6.69-3.91-14.06-7.1-20.56s-8.3-12.01-11.56-18.44c-.8-1.58-.33-4.11-1.58-5.45s-3.23-.91-4.38-2.27c-1.29,1.44-3.5,1.08-4.86,2.47s-1.09,4.08-1.97,5.78c-3.03,5.83-7.96,10.73-10.89,16.62s-3.86,12.7-6.09,18.87c-2.11,5.86-6.61,8.56-10.49,11.13s-8.24,5.74-14.03,6.37c-8.76.94-17.74.15-26.43,1.4s-16.35,3.81-25.01,5.02c6.64,7.04,11.27,14.49,17.62,21.31s14.47,12.41,21.36,18.85c3.93,3.67,4.66,8.29,5.79,12.23s2.96,8.32,1.87,13.43c-1.98,9.3-5.61,18.29-7.24,28-1.53,9.11-1.5,17.86-3.22,27.8,9.33-4.92,18.06-7.7,26.54-12.11,9.1-4.74,16.84-11.15,25.35-16.13,4.02-2.35,8.05-1.57,11.56-1.51s7.6-.57,11.55,1.71c8.49,4.88,16.17,11.24,25.21,15.96,8.4,4.39,16.96,7.22,26.23,12.11-1.95-11.09-2.19-20.88-3.95-30.91-1.9-10.78-5.65-20.82-7.28-31.21-.28-1.78,1.6-4.01,1.82-6.06.24-2.27-.83-5.18.37-6.36,7.85-7.7,17.24-13.79,25.31-21.27s14.77-16.31,22.84-23.78ZM428.27,126.85c1.49,6.69.75,13.82,1.98,20.98,1.11,6.47,3.71,13.96,5.03,21.36-7.28-3.92-13.82-9.31-19.99-12.69-6.99-3.82-14.43-5.49-21.15-8.56-2.07-.95-4.3-3.33-6.95-3.33s-4.88,2.39-6.94,3.34c-6.74,3.11-14.22,4.79-21,8.49-6.32,3.45-12.92,8.8-19.89,12.56,1.27-7.76,4.18-15.69,5.38-22.74,1.29-7.56.43-15.11,1.11-22.44.23-2.46,1.7-5.53.75-8.22s-4.03-4.19-5.64-6.09c-4.6-5.42-8.02-11.94-13.16-17.18-4.86-4.96-11.59-9.6-16.79-14.98,7.34-1.09,15.58-.72,22.61-1.74s14.01-4.15,21.05-5.63c2.26-.48,5.49.19,7.68-1.32s2.69-4.75,3.83-6.74c3.68-6.5,8.79-12.27,12.17-19.31,3.13-6.51,5.35-14.75,8.86-21.97,3.37,7,5.56,15.13,8.62,21.6,3.25,6.86,8.29,12.53,11.94,18.89,1.23,2.14,1.82,5.52,4.15,7.18s5.73,1.11,8.15,1.65c7.19,1.59,14.11,4.7,21.95,5.81,6.93.98,15.37.56,23.49,1.77-5.46,5.21-12.02,9.79-16.79,14.42-5.24,5.09-8.94,11.33-14.22,15.79-3.37,2.84-7.07,4.68-8.11,7.91s.92,6.97,1.87,11.19Z"/>
        <path class="cls-1" d="M381.41,277.89c-3.62.82-1.22,2.74-1.22,6.45s2,3.71,2,7.43c0,26.15-1.98,52.3-1.98,78.45,0,26.15,2,52.3,1.94,78.45-.02,10.4-2.15,20.79-2.31,31.19s.96,19.86.82,30.27c15.85,4.98,16.31,1.95,32.92,1.95s27.73,14.71,32.26-1.27c15.98-56.32,1.96-58.27,1.96-116.81s13.83-60.44-1.96-116.81c-4.43-15.8-15.41-.39-31.79-1.27-16.36-.88-16.64-1.65-32.64,1.97ZM434.51,503.38c-1.78,9.68-10.82-1.18-20.66-1.18s-18.88,10.86-20.66,1.18c-9.68-52.69,1.98-53.75,1.98-107.33s-11.66-54.63-1.98-107.33c1.78-9.68,10.82,1.18,20.66,1.18s18.88-10.86,20.66-1.18c9.68,52.69-5.5,53.94-1.98,107.39s11.66,54.57,1.98,107.26Z"/>
        <path class="cls-1" d="M296.94,346.56c-15.41,38.24-1.93,40.85-1.93,82.08s-13.48,43.84,1.93,82.08c6.21,15.41,15.69,1.37,32.3,1.37s26.09,14.04,32.3-1.37c15.41-38.24,1.93-40.85,1.93-82.08s13.48-43.84-1.93-82.08c-6.21-15.41-15.95,2.74-32.06-1.34-17.65-4.47-26.34-14.07-32.55,1.34ZM349.79,503.49c-2.59,9.51-10.82-1.26-20.68-1.26-9.86,0-18.09,10.77-20.68,1.26-9.51-34.98,1.96-36.51,1.96-72.76s-11.48-37.78-1.96-72.76c2.59-9.51,10.82,1.26,20.68,1.26s18.09-10.77,20.68-1.26c9.51,34.98-5.39,36.77-1.96,72.85s11.47,37.69,1.96,72.66Z"/>
        <path class="cls-1" d="M212.57,375.19c-14.93,30.64-1.9,33.65-1.9,67.73s-13.03,37.09,1.9,67.73c7.28,14.93,15.71,1.44,32.33,1.44s25.05,13.5,32.33-1.44c14.93-30.64,1.9-33.65,1.9-67.73s13.03-37.09-1.9-67.73c-7.28-14.93-15.96,2.6-32.08-1.41-17.52-4.36-25.29-13.52-32.57,1.41ZM265.6,503.66c-3.17,9.37-10.84-1.32-20.72-1.32s-17.55,10.69-20.72,1.32c-9.37-27.66,1.95-29.53,1.95-58.73s-11.31-31.07-1.95-58.73c3.17-9.37,10.84,1.32,20.72,1.32s17.55-10.69,20.72-1.32c9.37,27.66-5.28,29.83-1.94,58.84,3.41,29.61,11.31,30.95,1.94,58.62Z"/>
        <path class="cls-1" d="M130.73,407.98c-13.6,22.05-1.85,25.38-1.85,51.29s-11.75,29.24,1.85,51.29c8.39,13.6,15.12,1.52,31.1,1.52s22.72,12.07,31.1-1.52c13.6-22.05,1.85-25.38,1.85-51.29s11.75-29.24-1.85-51.29c-8.39-13.6-15.33,2.22-30.87-1.5-16.66-3.99-22.95-12.1-31.33,1.5ZM180.94,503.81c-4.14,8.88-10.7-1.42-20.5-1.42-9.8,0-16.36,10.3-20.5,1.42-8.88-19.05,1.91-21.44,1.91-42.46s-10.78-23.41-1.91-42.46c4.14-8.88,10.7,1.42,20.5,1.42s16.36-10.3,20.5-1.42c8.88,19.05-5,21.82-1.9,42.6s10.77,23.26,1.9,42.31Z"/>
        <path class="cls-1" d="M250.71,137.42c5.12-4.64,11.34-8.19,16.21-13.4,4.61-4.94,7.59-10.46,12.6-15.72-7-.97-12.69-3.36-19.39-4.34s-13.93.09-20.77-.42c-3.68-.27-5.89-2.92-8.18-4.47s-5.59-2.72-7.09-6.04c-3.03-6.75-4.42-14.28-7.78-21.17-3.15-6.46-7.31-11.67-10.74-18.76-3.48,7.22-7.53,12.62-10.63,19.14-3.35,7.05-4.9,14.68-8.62,21.15-1.23,2.13-4.74,2.82-7.14,4.43s-4.25,4.57-6.68,5.09c-6.79,1.43-13.99.51-20.81,1.44s-12.78,3.06-19.48,4.01c4.73,5.09,7.46,10.53,11.88,15.4s10.64,8.54,15.63,12.99c3.5,3.13,3.94,7.26,4.88,10.64s2.69,7.24,1.62,11.61c-1.63,6.66-4.99,12.93-6.43,20.05-1.3,6.43-1.08,12.57-2.6,19.93,7.02-3.68,13.33-5.51,19.47-8.8,6.78-3.63,12.38-8.74,19.05-11.57,2.49-1.05,5.96.35,9.04.36s6.56-1.38,9.04-.32c6.72,2.85,12.39,7.96,19.13,11.53,6.25,3.31,12.57,5.15,19.52,8.76-1.38-7.56-1.06-13.92-2.27-20.61-1.32-7.32-4.57-13.9-5.96-20.83-.79-3.92,1.14-7.23,2.14-10.39s1.25-6.9,4.32-9.69ZM239.48,174.71c-.75,0-2.37-.54-3.11-.55s-1.87,1.92-2.61,1.91c-4.72-2.28-8.58-7.21-13.3-9.85-5.11-2.85-10.69-3.25-15.78-3.23-5.47.03-11.42.78-17.42,4.21-4.83,2.76-10.52,6.99-16.35,9.84,4.9-12.51,8.78-24.25,5.85-34.09s-11.6-16.39-25.01-22.75c2.3-.74,5.01-1.34,6.49-1.92,2.57-1,3.89-3.55,5.42-3.42,10.66.93,19.22.22,25.31-4.8s8.79-13.9,11.73-23.33c.27-.87,2.58-.74,3.31-1.68.54-.69,1.15-2.73,1.82-3.7,2.52,4.84,2.78,11.22,4.95,16.11,2.43,5.49,6.64,9.2,10.75,12.17,4.46,3.22,9.72,6.17,16.64,7.01,5.53.67,12.68.63,19.14,1.83-10.94,7.34-20.89,14.53-24.43,23.86-3.53,9.3-.69,19.8,6.63,32.36Z"/>
        <path class="cls-1" d="M396.99,242.59c-4.99,3.57-7.9,4.24-9.81,3.35-1.69-.78-4.36-2.23-6.9-7.49-1.53-3.17-1.26-7.21-2.87-10.56-1.47-3.05-3.01-5.36-4.67-8.81-21.28,49.2-53.37,81.14-91.01,102.94-38.35,22.22-83.46,34.4-133.58,37.56-1.08-6.08-.72-9.77.22-11.51,1.06-1.97,3.13-3.56,9.55-3.96,28.82-1.8,56.83-4.89,82.67-14.43s48.79-25.21,70.53-44.99c10.86-9.87,21.73-19.5,29.78-31.86,7.58-11.63,12.16-25.07,17.55-39.58-5.63,2.58-10.11,3.97-14.96,6.2-5.28,2.42-9.93,6.63-15.16,9.03-2.1-2.66-3.25-6.14-3.45-8.42-.18-2.03-.19-4.8,4.21-6.75,7.27-3.24,15.32-4.79,22.66-8.25s14.23-8.59,21.7-12.09c3.89,8.24,6.41,17.66,10.18,25.65s9.57,15.92,13.37,23.97Z"/>
        <path class="cls-1" d="M95.41,144.17c-6.7-.33-12.12-3.25-16.91-6.15s-9.63-6.21-11.57-13.45c-.97-3.58-.83-7.71-2.83-11.3-1.74-3.13-4.38-4.95-6.27-8.67-2.26,4.58-5.57,7.26-7.59,11.18-2.27,4.4-2.46,9.37-4,13.71-1.57,4.41-5.31,6.28-8.22,8.32s-6.02,4.94-10.46,5.34c-4.56.42-9.34-.92-14-.19-4.42.69-7.82,2.7-12.58,3.41,3.6,3.7,5.1,7.63,8.17,10.88,3.44,3.64,8.11,5.53,11.68,8.54,3.39,2.85,3.96,6.77,4.95,10.01s2.73,6.77,1.48,11.06c-1.2,4.12-3.84,7.98-4.39,12.3s1.05,8.8.43,13.06c.25.57-1.41,1.47-1.16,2.05s.72.03.98.6c11.77-12.08,24.1-15.53,36.03-14.68s23.62,5.28,35.72,16.35c-.73-4.69-.68-7.82-1.1-11.17-.59-4.69-3.05-7.89-4.24-11.32-2.41-6.93-.92-13.03.79-18.43s4.01-11.23,10.07-15.44c2.88-2,6.75-2.89,9.51-5.62,2.37-2.35,3.22-5.32,6.13-8.06-4.04-.59-6.42-2.51-9.62-3.03-3.87-.63-7.52.86-10.98.69ZM78.57,195.3c-7.11-6.21-13.95-11.44-20.14-11.85-6.82-.45-13.94,4.42-20.42,11.04.82-10.88,2.8-17.5,1.45-22.3s-6.69-9.08-13.51-17.65c8.09-.07,16.83-.49,22.11-4.94,4.49-3.78,6.72-11.54,8.06-20.97,3.37,7.95,6.31,16.34,10.91,20.96,4.94,4.97,12.95,6.4,22.33,5.35-7.84,4.74-13.52,10.63-14.66,17.42-1.05,6.28,1.55,14.59,3.88,22.92Z"/>
      </g>
    </g>
  </g>
</svg>