<?xml version="1.0" encoding="UTF-8"?>
<svg id="Layer_2" data-name="Layer 2" xmlns="http://www.w3.org/2000/svg" viewBox="0 0 370.73 369.44">
  <defs>
    <style>
      .cls-1 {
        fill: #fff;
        stroke-width: 0px;
      }
    </style>
  </defs>
  <g id="Layer_5" data-name="Layer 5">
    <g>
      <path class="cls-1" d="M357.45,306.17c3.33,3.86,3.28,4.21-.5,7.36-4.75,3.97-9.52,7.92-14.82,11.43,4.1-4.96,8.19-9.92,12.34-14.93-10.65-9.52-21.25-18.97-31.82-28.48-3.65-3.28-7.23-6.65-10.77-10.05-3.69-3.53-3.73-6.22-.29-9.97,2.43-2.64,4.85-5.27,7.69-8.36-22.16-3.27-43.63-6.44-65.42-9.66,3.23,21.86,6.38,43.21,9.66,65.39,3.12-2.85,5.81-5.33,8.52-7.8,3.89-3.56,6.25-3.5,9.8.4,12.77,14.06,25.51,28.16,38.58,42.58,5.78-4.83,11.63-9.71,17.48-14.6.16.15.3.3.45.44-5.34,6.41-10.65,12.83-16.04,19.19-1.61,1.9-3.16.93-4.64-.4-6.14-5.54-12.03-11.42-18.58-16.44-3.6-2.76-6.68-6-10.13-8.87-3.86-3.2-7.48-6.68-11.44-10.25-4.25,4.46-8.36,8.72-12.4,13.05-2.22,2.39-4.57,4.25-8.1,3.2-3.6-1.07-4.87-3.83-5.41-7.25-1.04-6.62-2.2-13.23-3.33-19.85-.22-1.24-.54-2.48-.83-3.79-67.83,38.4-139.67,6.2-168.3-35.84-35.22-51.72-32.87-115.6,6.3-162.5,38.29-45.87,103.94-58.7,157.77-31.93,52,25.87,80.65,84.91,68.03,140.85.25-3.55.52-7.11.75-10.67,1.72-25.91-4.27-50.04-17.72-72.13-20.75-34.07-51.42-53.88-90.81-58.39-68.56-7.86-121.49,41.28-131.55,97.67-11.96,67.11,33.55,131.42,100.86,141.94,25.19,3.93,49.36.57,72.61-9.76.71-.31,1.39-.68,2.07-1.04.22-.12.37-.33.51-.46-2.86-18.11-5.59-36.2-8.61-54.25-1.99-11.91.44-14.69,12.33-12.99,15.07,2.16,30.12,4.44,45.18,6.64,1.77.26,3.58.34,5.5.52,1.49-3.26,2.9-6.37,4.31-9.48.2.09.4.17.59.26-1.38,3.65-2.76,7.31-4.23,11.19,7.25,1.26,15.44,2.68,23.62,4.1,1.65.28,3.47.2,4.92.89,2.06.97,5.05,2.21,5.47,3.89.56,2.19-.25,5.58-1.77,7.3-4.28,4.8-9.22,9.01-14.04,13.58,5.17,5.67,10.17,11.16,15.77,17.32,3.48-6.78,6.97-13.03,9.97-19.51,12.93-27.99,18.82-57.42,15.93-88.14-4.95-52.54-27.98-95.48-69.84-128.05-25.32-19.69-54.01-31.27-85.78-34.46C121.96,6.49,48.98,58.53,25.19,130c-21.34,64.08-9.56,122.97,34.94,174.21,28.09,32.34,64.16,51.01,106.48,57.32,37.65,5.6,73.52-.28,107.4-17.79.8-.41,1.59-.86,2.4-1.25.2-.1.48-.05,1.87-.18-2.21,1.38-3.57,2.27-4.96,3.09-1.55.93-3.11,1.84-4.7,2.69-31.49,16.71-64.9,23.51-100.54,20.75-82.86-6.43-147.68-69.89-163.38-143.84-1.9-8.93-2.66-18.1-3.96-27.15-.18-1.25-.49-2.49-.74-3.73v-15.52c.77-6.37,1.27-12.8,2.34-19.13C13.36,94.44,47.97,46.72,107.43,17.74,135.72,3.94,165.91-1.43,197.31.32c89.38,5.03,154.05,69.76,169.27,143.95,10.14,49.44,1.88,95.7-26.63,137.87-.51.74-.9,1.54-1.38,2.36,6.33,7.26,12.62,14.44,18.87,21.67Z"/>
      <path class="cls-1" d="M124.93,129.76c18.36-4.01,45.06-2.73,63.92-3,18.93.27,45.46-1.04,63.91,3-10.59,2.09-21.08,3.4-31.71,4.92-15.97,2.19-32.24,2.51-48.33,1.59-10.74-.63-21.26-2.33-31.87-3.85-5.28-.8-10.59-1.56-15.91-2.66h0Z"/>
      <path class="cls-1" d="M143.27,151.8c12.98-3.96,32.07-2.74,45.58-3,8.08.17,26.24-.33,34.07.76,3.87.48,7.71,1.16,11.51,2.24-7.51,2.08-14.88,3.39-22.45,4.92-11.38,2.19-23.18,2.52-34.74,1.59-7.71-.63-15.13-2.32-22.67-3.85-3.73-.8-7.5-1.56-11.3-2.66h0Z"/>
      <path class="cls-1" d="M189.83,133.01c3.85,11.33,6.45,21.79.5,33.09-7.8,15.92-16.14,27.01-34.85,29.24-4.01.44-7.96.41-11.84.16l6.03-3.65c-1.26,3.2-2.44,6.93-2.04,10.09.78,5.13,5.92,8.08,9.9,11.25,5.62,4.15,11.22,8.47,16.06,13.72,11.23,13.43,25.31,24.64,43.24,27.55-18.71,2.91-37.26-7.55-50.28-20.43-3.18-2.84-6.57-5.34-10.1-7.77-5.67-4.01-12.66-7.65-17.18-13.91-6.71-9.36-2.97-19.73,1.09-29.1,7.61.88,16.14,1.44,22.96-1.12,5.65-1.98,10.34-5.83,14.44-11.26,3.21-4.17,6.43-8.08,8.92-12.57,4.15-7.62,3.08-16.76,3.14-25.28h0Z"/>
    </g>
  </g>
</svg>