<?xml version="1.0" encoding="UTF-8"?>
<svg id="Layer_2" data-name="Layer 2" xmlns="http://www.w3.org/2000/svg" viewBox="0 0 446.24 442.74">
  <defs>
    <style>
      .cls-1 {
        fill: #fff;
        stroke-width: 0px;
      }
    </style>
  </defs>
  <g id="Layer_4" data-name="Layer 4">
    <g>
      <path class="cls-1" d="M244.73,264.32c-8.76-13.21-16.76-26.98-24.38-40.87-10.38-18.25-21.29-36.23-32.72-53.83-8.54-12.78-17.84-27.09-25.45-40.36,0,0-.5-.86-.5-.86l-.25-.43c-1.21-1.91-1.39-5.25-.94-6.72.33-1.83,1.04-3.04,1.38-4.25.01-.04.08-.47.18-1.15.1-.68.22-1.56.55-2.72,1.22-4.85,6.27-8.18,11.52-7.16.12.01-.07-.03-.37,0-.31,0-.67.11-.86.18-.2.08-.28.11-.41.2-.2.14-.44.33-.6.54-.45.56-.52.92.03-.4.69-1.52,2.31-3.54,3.95-4.41,3.45-2.3,8.04-1.32,11.16.09.51.17.22.08.72.17,3.66.36,7.82,1.69,9.83,5.54,14.85,24.79,28.37,50.95,42.15,76.26,21.95,40.89,47.64,81.2,69.29,122.01,0,0,.46.88.46.88,0,0,.23.44.23.44.9,1.49,1.17,3.46.83,5.05-.45,2.38-1.45,3.37-1.8,5.55-.38,1.82-.53,3.75-2.11,5.56-1.51,1.82-4.33,2.65-6.59,2.29-.64-.07-.53-.07-.64-.08-.07-.03-.47.18-.55.23-.09.08-.11-.04-.38.52-1.21,3.08-4.63,5.37-8.15,4.27-1.34-.28-2.61-1.05-3.71-1.34-2.31-.58-5.01-.49-6.85-2.68-1.97-2.94-3.41-6.33-4.52-9.67-1.46-4.99-3.74-9.58-6.57-13.92-2.9-4.27-6.79-8.2-9.03-12.96,3.04,4.49,7.13,7.65,10.72,11.69,2.58,3.15,4.92,6.48,6.79,10.12,1.81,3.86,3.44,7.6,5.93,11.05,0,0,.27.4.27.4.07.09.05.04.08.07.06.01.2.1.59.19,1.09.15,2.37.23,3.72.41,1.71.23,3.08,1.14,4.42.97-.02-.02-.03,0-.05-.01-.02,0-.06.03.03-.05.12-.09.19-.17.21-.22.06-.11.05-.12.32-.82.9-3.03,4.6-5.38,7.83-5.02.71.02.63-.05.66-.08,0,0,.17-.13.17-.13,0,0,.03-.02.03-.02-.08.03-.18.1-.24.15-.13.12-.05.05,0-.33.14-1.32.2-2.51.59-4.12.26-1.27.92-2.36.97-3.3,0-.2-.08.04.05.4-10.82-17.28-22.71-35.82-33.96-52.82-14.49-22.19-28.04-44.92-41.13-67.96-12.79-22.88-24.89-46.61-37.83-69.4,0,0-3.87-6.87-3.87-6.87,0,0-.12-.21-.12-.21,0-.01-.07-.13-.03-.05l.09.16c.33.48.82.98,1.32,1.23.42.21.38.12.04.05-1.15-.16-3.65-.65-4.9-1.2,0,0-1.67-.68-1.67-.68-.31-.13-.38-.08.09-.07.27.01.63-.03,1.09-.16.59-.17,1.11-.52,1.5-1,.21-.27.35-.53.33-.52,0-.13-.5,1.52-1.82,3.08-.59.69-1.32,1.36-2.07,1.86-2.04,1.54-5.56,2.17-7.85,1.61.78.05,1.77-.37,2.3-1,.57-.61.61-.99.57-.88-.27,1.16-.39,2.18-.88,3.87-.36,1.12-.7,1.83-.91,2.35,0,0-.34.85-.34.85-.03.05.11-.55-.19-1.36-.07-.18-.16-.4-.26-.55l.23.43c15.08,28.22,32.48,55.14,46.04,84.21,9.11,19.17,17.04,38.65,26.24,57.74h0Z"/>
      <path class="cls-1" d="M164.57,139.46c-10.56,14.09-22.2,27.37-33.74,40.64-11.18,13.37-22.56,26.87-32.22,41.27-3.22,4.8-6.35,9.75-9.82,14.67-6.9,9.86-15,18.71-23.43,27.25-2.19,2.22-4.68,4.35-7.53,6.25-6.48,4.28-13.82,5.24-20.09,9.29-1.13.69-2.69,1.67-3.82,2.32-5.21,3.17-12.33,4.68-17.69,6.11-1.83.64-2.66.87-3.48,2.28-.64,1.2-.97,3.5-1.03,5.07,0,1.63-.17,3.39-.04,4.96.09,2.94.49,5.97,1.63,8.64,1.18,2.7,2.81,4.65,5.15,7.19,3.48,3.62,7.53,7.87,10.59,12.13,4.18,5.81,7.61,12.14,10.06,18.87,1.05,2.97,1.97,6.04,2.71,8.87,1.43,5.16,2.34,9.36,6.05,12.92,2.45,2.59,6.17,4.62,9.31,6.33,2.32,1.03,4.62,2.38,6.86,1.02,3.72-2.71,8.19-8.5,12.75-11.47,2.47-1.83,5.4-3.22,8.07-4.71,5.34-2.87,8.6-6.42,13.88-10.09,5.81-3.88,12.42-5.53,17.98-6.88,5.76-1.43,11.6-2.72,17.52-3.75,11.65-2.17,23.7-2.53,35.37-3.46,17.38-1.5,34.65-4.59,51.84-7.64,16.62-3.34,35.3-6.85,52.07-8.9-22.91,5.32-45.27,12.36-68.21,17.67-11.51,2.63-23.11,5.06-34.84,6.69-5.89.85-11.8,1.37-17.53,2.04-11.49,1.28-22.55,3.84-33.64,7.08-4.92,1.36-10.51,2.95-14.59,5.89-1.96,1.37-3.99,3.32-6.43,5.35-3.04,2.55-6.44,4.82-9.93,6.71-1.66.85-3.49,1.97-4.98,3.07-4.87,3.43-7.92,8.7-13.2,12.17-8.84,5.79-19.13-.18-26.62-5.3-19.15-13.93-6.36-29.46-33.8-56.51-6.5-6.69-9.67-13.98-9.74-23.58,0-5.54-.07-10.65,2.6-15.82,5.12-9.82,17.93-7.68,25.96-12.56,2.4-1.41,5.5-3.24,8.02-4.36,5.19-2.6,11.08-3.46,15.72-6.34,2.08-1.29,4.12-2.93,6.12-4.8,4.15-3.91,8.37-7.96,12.28-12.12,8.17-8.36,14.52-17.68,21.54-27.11,21.38-28.41,48.11-51.59,72.34-77.36h0Z"/>
      <path class="cls-1" d="M66.14,266.92c7.7,7.36,13.36,17.63,18.66,26.76,4.85,8.12,11.37,19.3,16.23,27.41,3.74,6.29,6.97,13.03,8.96,20.14-2.68-2.6-5.1-5.32-7.53-7.98-4.32-4.87-10.36-11.31-14.02-16.64-4.23-6-7.96-12.32-11.16-18.93-2.88-5.76-5.63-14.22-7.78-20.32-1.16-3.41-2.38-6.84-3.36-10.44h0Z"/>
      <path class="cls-1" d="M29.18,305.43c-.1,1.22-.54,2.41-1.3,3.37-1.05,1.4-2.97,2.16-3.87,3.25-1.19,1.22-2.33,1.34-3.94,2.18-.78.45-1.87,1.15-3.04,1.39-.88.2-1.8.17-2.68-.01-.32-.09-.61-.16-.93-.29.01-.36.06-.64.07-.96.26-1.61-.04-3.04.1-4.6.85-4.29,6.29-7.68,10.51-6.58,1.78.77,3.07,1.6,5.07,2.25h0Z"/>
      <path class="cls-1" d="M43.58,328.96c-.1,1.17-.56,2.3-1.34,3.17-.75.87-1.86,1.42-2.57,1.84-1.18.69-.86,1.04-1.88,1.56-.98.59-1.1.12-2.32.74-1.38.86-3.71,1.68-5.48.94-.3-.12-.56-.21-.85-.37l.07-.92c.26-1.5-.2-2.78-.14-4.22.73-4.12,6.38-7.19,10.24-5.58,1.08.59,1.63,1.43,2.78,2.02.41.23,1.07.58,1.5.81h0Z"/>
      <path class="cls-1" d="M56.46,352.54c-.1,1.16-.57,2.28-1.36,3.13-.76.85-1.87,1.37-2.57,1.77-1.17.65-.8,1-1.78,1.49-.95.55-1.02.03-2.22.63-1.38.83-3.7,1.62-5.44.84-.29-.13-.55-.22-.84-.39l.07-.91c.27-1.48-.22-2.74-.17-4.15.73-4.1,6.44-7.08,10.22-5.35,1.04.62,1.53,1.48,2.64,2.09.4.25,1.05.61,1.46.85h0Z"/>
      <path class="cls-1" d="M94.49,398.1c-3.79-3.12-5.35-8.09-9.04-11.27-2.83-2.82-6.45-2.45-9.75-4.93-2.59-2.25-3.76-6.53-2.19-9.76,2.04-3.67,6.84-2.92,9.35-5.54,1.8-1.8,1.98-3.96,3.32-6.14,2.01-2.99,4.25-4.6,7.49-6.02,3.2-1.21,5.57-.7,8.18-2.35,2.86-1.9,3.71-5.38,6.69-7.73,2.54-2.16,6.57-1.93,9.06.35,1.52,1.41,2.96,2.84,4.35,4.39,1.83,1.99,3.5,4.14,4.96,6.43,2.87,4.4,4.48,9.97,5.81,14.77,1.9,6.62,4.81,12.74,8.54,18.52,2.48,3.97,5.38,7.22,8.63,10.72,2.57,2.74,5.43,6.27,7.2,9.86,1.5,2.99,2.54,6.31,3.36,9.54.18.93.61,2.86.79,3.8.92,3.99-.99,7.93-5.12,8.91-3.66.99-6.71.21-9.83,1.8-2.69,1.41-3.72,4.54-5.74,6.85-1.31,1.43-3.21,2.4-5.15,2.44-3.23.1-6.84-1.06-8.65-3.9-2.09-3.6-1.9-7.6-4.96-10.52-1.57-1.8-3.3-3.24-5.38-4.58-2.08-1.39-3.94-3.12-5.48-5.02.99.73,1.98,1.45,3.01,2.08,1.03.63,2.1,1.14,3.22,1.62,4.68,1.96,9.44,5.35,11.4,10.23.92,1.85,1.34,3.75,3.18,4.38.55.24,1.3.27,1.92.35.49-.02,1.21.03,1.63-.2.88-.47,1.02-1.19,1.79-2.6,1.11-2.49,3.02-5.31,5.47-6.96,3.25-2.38,7.85-2.61,11.31-3.49.27-.09.27-.2-.01.02-.24.13-.48.65-.54.84-.26-.89-.8-2.85-1.07-3.83-.53-1.54-1.05-3.24-1.71-4.68-2.94-7.49-10.46-12.37-15.2-19-.62-.77-1.76-2.38-2.3-3.2-2.88-4.37-5.33-8.9-7.34-13.79-3.56-8.72-3.83-16.91-9.78-23.87-1.3-1.64-2.82-3.32-4.27-4.86.48.23,1.4.35,2,.08.32-.14.4-.2.44-.24-.87.77-1.7,2.04-2.76,3.32-1.79,2.36-4.65,4.67-7.68,5.61-2.22.94-5.38.88-7.32,1.31-.68.2-1.5.61-2.32,1.12-1.96,1.12-2.3,2.45-3.32,4.36-.76,1.38-1.84,2.67-2.93,3.66-.22.21-.68.6-.93.78-2.32,1.98-5.82,2.41-8.4,3.07-.25.1-.27.11-.31.07-.01,0-.14.12-.17.47-.1.99.06,2.6.73,3.29,1.36,1.39,4.1,2.15,5.88,3.51,2.23,1.52,3.76,3.75,5.08,6.05,1.74,3.31,2.55,6.9,4.87,9.9h0Z"/>
      <path class="cls-1" d="M145.85,343.48c1.4,2.06,1.98,4.93,2.1,7.31.21,2.13.78,3.87,1.46,5.82.83,2.27,1.59,2.86,2.82,5.33,1.38,3.05,2.01,6.1,1.56,9.46-.2,1.46-1.17,3.35-1.73,4.29-.21.33-.27.58-.33.96-.14.59-.16.63.14,1.4.69,1.33,1.67,3.89,1.25,5.7-.23,1.46-.75,2.66-1.7,3.89-1.51,2.01-4.54,2.22-6.42,1.39-.27-.15-.53-.09-.82.02-1.03.23-1.28,1.34-2.07,2.19-.51.54-1.12.89-1.74,1.04.63-1.28.26-1.99.2-3.39-.05-2.82,2.53-4.89,5.06-5.35.65-.17,1.15-.33,1.01-.45-.02-.02-.15-.03-.22,0-.35.04-.65.35-.9.53-.1.15-.09-.1-.11-.19-.04-.09-.06-.16-.11-.16-.09-.03-.14.21-.24.17-.65-.64-1.54-1.87-2.04-3.11-1.46-3.26-.86-7.43.84-10.35.29-.65.09-1.43.05-2.16-.26-3.13-2.34-6.51-2.2-9.92-.06-2.64.35-5.59,1.45-7.95,1.16-2.24,1.97-4.01,2.71-6.45h0Z"/>
      <path class="cls-1" d="M226.36,162.3c3.84-1.46,8.25.17,12-1.33,2.33-.84,3.76-2.95,6.04-4.39,1.97-1.36,4.8-1.31,6.77.1,4.65,3.76,8.84,8.16,11.96,13.38,2.38,3.99,3.97,8.85,5.72,12.82,3.42,7.72,7.89,15.07,13.52,21.38,1.84,2.12,3.96,4.12,6.16,6.56,4.52,4.82,7.61,11.25,9.15,17.67.79,2.93,1.61,6.29.15,9.21-2.13,4.18-6.82,4.8-9.71,7.6-4.33,4.1-5.23,10.52-9.28,14.88,1.82-4.35,1.6-9.06,3.26-13.47.59-1.6,1.24-3.15,2.24-4.56,1.61-2.53,4.94-4.64,6.73-6.47.64-.71.39-1.2.16-2.03-2.13-6.05-4.84-11.84-9.59-16.32-1.96-1.94-4.3-4.04-6.53-6.39-4.43-4.71-8.09-10.07-11.12-15.77-1.5-2.82-2.83-5.81-3.93-8.81-2.1-5.73-3.12-10.99-6.21-16.04-1.77-3.01-4.13-6.13-6.42-8.9,0,0-.04-.07-.04-.07,0,0,0,0,0,0,0,0,0-.08.02-.06.01,0,.04-.05.03-.06-.02,0-.03-.02-.06-.05-.12.02-.26,0-.5.11-2.02.86-3.91,2.39-6.4,2.96-2.49.58-5.16.33-7.57-.44-2.03-.78-4.28-1.49-6.54-1.53h0Z"/>
      <path class="cls-1" d="M439.95,65.39c-.38-4.24.09-8.61.67-12.78.46-4.14.26-8.39-.21-12.5-.53-4.2-1.99-8.33-2.29-12.64-.4-3.95-.03-8.38-1.53-11.83-2.42-5.2-9.83-3.5-14.69-3.75,0,0-6.4.07-6.4.07-8.53.08-17.08-.08-25.62-.28-25.51-.89-50.87-1.82-76.38-1.78-27.64-.19-55.34,1.24-82.99.19-3.12-.03-7.87-.49-10.5.69-3.75,1.79-2.67,8.31-3.03,13.27-.12,4.29-.29,8.58-.55,12.88-.5,8.53-1.45,17-2.05,25.47-.84,12.61-1.21,25.38-1.17,38.05.4,12.34.45,26.09-.4,38.35-.83-17.11-3.49-33.86-4.39-50.97-.4-8.55-.63-17.09-.58-25.69.05-8.53.73-17.02.8-25.5.06-4.2.03-8.42-.04-12.64.06-4.8-.59-9.15,1.16-14.19,2.66-7.69,10.78-9.33,17.71-9.07,1.89.02,7.57.02,9.57.03,33.53.04,68.71-1.7,102.17-.09,25.55.79,50.95,3.59,76.47,4.75,0,0,6.36.34,6.36.34,5.69.44,12.56-.2,17,4.51,4.21,4.74,2.85,11.43,2.95,16.98-.03,4.23,1.12,8.34,1.19,12.63.06,2.2-.01,4.36-.16,6.51-.35,6.46-2.9,12.51-3.04,18.98h0Z"/>
      <path class="cls-1" d="M441.95,92.73c.9,9.53.8,19.19.48,28.74-.12,9.45.33,18.97.98,28.37,1.03,12.1,3.06,24.25,2.81,36.46-.66,4.7-4.38,6.4-6.91,9.66-1.88,2.4-5.07,4.66-8.44,4.39-2.17.02-4.3-.06-6.51-.3-3.3-.36-6.08-1.15-9.22-1.33-2.81-.18-5.93-.14-8.72.11-3.12.27-5.97,1.11-9.27,1.5-2.22.27-4.36.35-6.53.38-1.52.14-3.61-.76-4.65-1.42-.24-.15-.4-.16.1,0,.2.05.8.18,1.51.04,1.08-.19,1.94-.77,2.49-1.53.08-.09.17-.27.18-.29l.05-.11s0,0-.01.03c-.47,1.5-1.07,3.09-2.32,4.22-.21.18-.6.55-.82.74-5.66,5.43-12.39,8.51-17.98,13.76-6.31,5.32-10.43,12.39-16.72,17.71-1.63,1.58-3.88,2.69-6.08,2.95-4.68.47-7.96-1.14-11.71-3.06-3.85-1.96-7.72-6.36-7.14-11.23.02-1.52.75-3.69,1.59-4.99.58-.8.75-1.98.56-2.9-.05-.29-.24-.66-.73-1.68-.48-.98-.85-2.38-.92-3.5-.24-2.32.57-4.47.11-6.43-.97-.57-3.12-.34-4.41-.42-2.92-.15-5.83-.44-8.71-1-6.19-1.55-12.16-2.79-18.56-2.92-6.33-.19-12.74,1.08-19.05.13,6.49-.18,12.55-2.28,18.97-2.9,3.25-.3,6.47-.37,9.78-.23,5.89.41,11.61,1.66,17.52,1.23,7.93-1.07,11.7,1.89,11.2,10,.02,1.32-.1,1.93.45,2.92.21.4.88,1.4,1.29,2.64.89,2.94.71,5.94-.73,8.65-.68,1.18-.74,2.45.17,3.46,1.42,1.57,8.2,4.83,9.97,2.99,3.71-3.44,6.5-7.13,9.6-11.19,4.46-5.36,9.27-9.83,14.95-13.87,4.04-2.65,7.03-4.79,10.32-7.9,0,0,.21-.19.21-.19l.1-.1c-.09.08-.18.17-.26.26-.58.74-.44.75-.42.58.24-.8.76-2.33,1.41-3.17.89-1.26,2.24-2.21,3.92-2.51,2.34-.4,4.16.61,5.65,1.46-.1-.08-.77-.2-1.02-.2-.2,0-.07,0-.03,0h.14c5.12.21,9.81-1.27,14.97-1.73,3.56-.24,6.82-.22,10.36.06,4.79.39,9.19,1.91,13.92,1.98,0,0,1.11.03,1.11.03,0,0,.5.01.5.01-.05-.01-.1.02-.15.02-.22.05-.2.14.08-.07.92-.76,1.86-1.95,2.99-3.05,1.18-1.1,2.26-1.87,3.1-2.78.23-.3.15-.2.15-.01,0,0,.01.08.01-.06,0,0,0-.59,0-.59.03-.91.05-4.93.07-5.89.19-9.58-.84-18.79-.83-28.55.02-6.47.28-12.86.74-19.28,1.04-12.83,3.5-25.27,4.34-38.07h0Z"/>
      <path class="cls-1" d="M366.24,105.98c1.43-.25,2.3-.35,3.14-.55,15.4-3.6,25.38-15.67,24.42-29.53-1.06-15.33-12.2-26.17-28.68-27.3-7.68-.53-15.44-.32-23.15-.15-4.89.11-7.15,2.6-7.15,7.44-.04,27.82-.04,55.64,0,83.47,0,4.34,2.67,7.25,6.39,7.35,3.87.1,6.69-2.96,6.72-7.51.06-7.72.02-15.45.02-23.16v-10.6c11.54,13.1,22.3,25.35,33.11,37.56,3.74,4.23,7.21,4.82,10.5,1.95,3.2-2.82,3.04-6.55-.56-10.67-8.12-9.31-16.28-18.59-24.76-28.28ZM350.21,92.69c-2.25.07-2.18-1.21-2.18-2.76.04-4.38.02-8.74.02-13.11h-.04c0-.15,0-.3,0-.44.47-4.8-1.05-9.71.81-14.44,8.8.72,18.22-2.62,26.11,3.84,4.82,3.96,6.79,9.21,5.03,15.21-2.06,7.03-7.43,10.72-14.45,11.47-5.05.53-10.19.08-15.29.23Z"/>
      <path class="cls-1" d="M297.15,49.64c-6.29-1.77-12.71-1.09-18.18-1.26-4.55,0-8.19-.05-11.83,0-6.22.11-8.43,2.31-8.43,8.42-.02,27.09,0,54.18,0,81.28,0,5.44,2.35,8.55,6.46,8.62,4.12.07,6.67-3.1,6.67-8.42.02-8.31.11-16.61-.05-24.91-.06-2.74.53-3.75,3.52-3.66,5.38.18,10.79.1,16.15-.32,14.95-1.14,26.92-12.73,28.41-27.22,1.53-14.78-8-28.39-22.71-32.55ZM289.65,96.21c-4.96.13-9.91-.05-14.86.13-2.35.09-2.98-.74-2.9-2.99.15-4.8.04-9.61.04-14.42h-.09c0-4.81.11-9.62-.04-14.42-.07-2.13.61-2.74,2.7-2.68,5.09.15,10.19-.04,15.29.11,9.23.27,16.99,8.24,16.93,17.19-.06,8.97-7.88,16.84-17.07,17.08Z"/>
    </g>
  </g>
</svg>