<?xml version="1.0" encoding="UTF-8"?>
<svg id="Layer_2" data-name="Layer 2" xmlns="http://www.w3.org/2000/svg" viewBox="0 0 463.08 459.29">
  <defs>
    <style>
      .cls-1 {
        fill: #fff;
        stroke-width: 0px;
      }
    </style>
  </defs>
  <g id="Layer_6" data-name="Layer 6">
    <g>
      <path class="cls-1" d="M442.81,289.73c-.58-.05-.63-2.19-1.25-2.66s-2.74-.02-2.89-.56c-.78-2.82.48-6.15-.17-9s-3.21-5.27-3.84-8.13c-.29-1.33,2.14-2.76,3.19-4.27s1.49-4.29,2.82-4.53c4.96-.87,9.74-1.4,11.97-4.51s1.14-7.67-.19-12.67c-1.4-5.26-1.17-11.07-3.04-16.21s-5.79-9.46-7.97-14.45c-1.73-3.93-3.07-7.9-6.35-9.32s-7.2.31-11.31,1.26c-2.09.48-4.68-.83-6.67-.19-2.13.68-4.21,3.28-6.09,3.86-2.65-2.24-4.25-6.12-6.82-8.28s-6.84-3.58-9.45-5.79c2.49-2.72,6.08-5.48,6.71-8.52s-1.64-6.21-3.27-9.49c-1.12-2.27-.8-5.57-2.38-7.66s-4.82-2.64-6.78-4.24c-4.09-3.31-7.73-7.23-12.57-8.75s-10.3-.43-15.41-1.09c-1.8-.23-3.59-1.92-4.87-1.29s-1.06,3.13-2.06,4.63c-1.82,2.75-5.38,4.3-7.36,6.99s-3.08,6.87-5.06,9.61c-2.42-2.63-4.91-5.85-7.65-6.37-2.98-.56-6.17,1.7-9.2,1.94-1.58.13-2.07-1.83-2.76-2.43-.73-.62-2.69-.87-2.75-2.41-.09-2.03,1.73-4.18,1.55-6.2s-2.34-3.93-2.4-5.95c-.12-3.97.73-8.17-1.17-11.08s-5.97-3.71-9.89-4.82c-2.96-.84-5.69-3.36-8.83-3.67s-6.32,1.64-9.39,1.84c-3.75.25-7.75-.9-11.47-.09s-7.19,3.58-10.95,3.76c-2.79.13-5.24-.71-6.19.5-1.11,1.41.48,4.06.4,6.33-.09,2.84-2.11,5.65-2.09,8.44s1.81,6.39,1.81,9.12c-2.79.49-6.42-.8-9.08-.39s-5.01,2.88-7.6,3.7c-2.6.83-5.85.1-8.34,1.3s-5.12,4.14-7.61,5.29c-5.13-7.66-9.19-13.5-14.42-14.09s-10.27,4.02-17.04,10.28c-1.6,1.48-4.57,1.42-6.23,2.84s-2.05,4.34-3.73,5.72c-3.22,2.66-7.65,4.01-10.34,7.09s-3.33,7.49-5.18,11.35c-.87,1.83-3.18,2.98-3.13,4.41.05,1.59,2.47,2.41,3.61,3.96,1.1,1.5.69,4.18,1.89,5.63s3.9,2.86,5.1,4.33c-6.28,4.46-12.81,8.48-16.45,14.44s-4.2,13.54-5.35,21.11c-.97,0-2.85-1.26-3.75-1.26-.95,0-1.88,2.01-2.8,1.99-22-.5-43.95-3-66.11-3.51s-44.03.99-66.35.48c-.71-3.4-.54-8.15-1.38-11.76s-3.48-6.8-3.69-10.41c-.65-10.88.74-21.87.29-32.76s-2.75-21.75-2.76-32.65c-.02-16.91,2.2-33.81,2.49-50.73.29-16.91-1.34-33.86-1.07-50.77,0-.37,2.05-.48,2.16-.88.09-.35-1.19-1.88-1.1-2.29.81,0,1.99,1.91,2.74,1.9.79,0,1.57-2,2.33-1.99,36.15.49,72.28,2.93,108.44,3.41,36.16.48,72.34-1.01,108.5-.38,10.67.19,21.25,2.72,31.91,3.34s21.41-.67,32.07-.14c8.47.43,16.84,2.86,25.32,3.27s17.03-1.22,25.51-.92c1.54.05,3.28,1.77,4.81,1.43s3.86-1.78,5.34-2.05c.75,19.81-2,19.86-2,39.68s1.67,19.81,2,39.63c.66-.06.41.84,1.01.75.65-.09,1.27-2.13,1.87-2.05,2.56.33,4.76,1.53,5.68.41s-.6-3.47-.61-5.82c-.02-9.25,2.09-18.49,2.22-27.74s-1.75-18.51-1.75-27.76c0-4.71,2.01-9.47,1.87-14.19s-2.41-9.3-2.99-13.97c-1.62-12.94-3.58-23.67-10.01-31.05s-16.84-10.7-29.65-13.3c-7.54-1.54-14.96-4.32-22.7-4.89s-15.59,1.1-23.27.51c-5.83-.44-11.55-2.76-17.39-3.04s-11.75,1.46-17.58,1.15C229.26,1.87,229.27,0,212.13,0s-17.14,1.93-34.28,2c-1.41.15-2.93-1.67-4.33-1.51s-2.62,2.3-4.03,2.4c-1.38.1-2.91-1.8-4.29-1.7s-2.63,2.18-4.01,2.27c-1.38.09-2.9-1.81-4.28-1.72s-2.63,2.18-4.02,2.27c-4.61.3-9.35-1.39-13.97-1.09s-9.09,2.6-13.7,2.91c-1.84.12-3.82-1.75-5.67-1.62s-3.55,2.25-5.39,2.38c-1.55.11-3.25-1.78-4.8-1.66s-2.96,2.22-4.52,2.34c-1.13.08-2.42-1.83-3.56-1.74s-2.11,2.17-3.25,2.26c-1.92.15-4-1.69-5.92-1.53s-3.67,2.32-5.58,2.49c-.92.08-2.02-1.84-2.94-1.76s-1.66,2.16-2.58,2.24c-5.03.47-10.27-.96-15.29-.33s-9.75,3.31-14.76,4.04c-5.01.73-10.3-.49-15.31.27s-9.71,3.5-14.72,4.22c-.22.03-.76-1.91-.98-1.87s-.06,2.05-.28,2.09c-.22.05-.88-1.86-1.09-1.8s.06,2.05-.16,2.11c-.6.15-1.74-1.6-2.33-1.42s-.6,2.28-1.19,2.46c-.14.04-.87-1.82-1.01-1.78s.33,1.99.2,2.04c-.14.04-.86-1.83-.99-1.79s.29,2,.16,2.04c-.11.03-.76-1.86-.87-1.83s.33,1.99.22,2.02c-.22.06-.96-1.81-1.18-1.75s.05,2.05-.17,2.11c-.11.02-.67-1.9-.78-1.88s.2,2.01.09,2.03c-.12.02-.66-1.91-.77-1.88s.29,1.99.18,2.02-.79-1.85-.89-1.82.4,1.97.3,2.01c-.08.03-.87-1.82-.95-1.78s.55,1.94.47,1.98c-.01,0-.87-1.8-.88-1.8,0,0,.91,1.78.9,1.79-.07.03-.96-1.77-1.03-1.74s.73,1.87.66,1.91c-.03.01-.96-1.76-.99-1.74-.03.02.87,1.8.84,1.82-.05.02-1.09-1.69-1.13-1.66s.94,1.77.89,1.8c-.07.04-1.21-1.61-1.28-1.56s1,1.73.94,1.78c-.06.05-1.34-1.49-1.4-1.45s1.16,1.64,1.1,1.69c-.21.18-1.81-1.04-1.98-.84s1.28,1.6,1.14,1.83c-.02.03-1.75-.98-1.77-.95s1.68,1.08,1.66,1.12c-.12.22-2.03-.43-2.13-.19s1.7,1.13,1.63,1.38c-.02.08-1.97-.38-1.99-.3s1.9.65,1.88.73c0,.01-1.96-.41-1.96-.4s1.95.44,1.95.45c-.01.05-1.99-.3-2-.24s1.94.5,1.93.56c-.01.07-2-.2-2.01-.13s1.96.44,1.95.51c0,.05-1.99-.23-2-.18s1.97.38,1.96.43c-.01.1-2.01,0-2.02.11s1.98.38,1.97.48c-.01.11-2.02.08-2.02.19s1.99.32,1.98.43c-.43,12.09-2.9,24.09-3.39,36.18s1.01,24.25.51,36.33c-.07,1.56-2.2,2.98-2.35,4.53s1.67,3.21,1.54,4.76C1.94,134.1,0,134.1,0,159.81s1.92,25.71,2,51.43c.15,1.18-1.68,2.5-1.52,3.68s2.3,2.11,2.44,3.3c.51,4.39-1.12,9.03-.68,13.44s2.95,8.52,3.79,12.86c1.87,9.63,4.48,17.98,10.53,23.39s15.03,7.22,24.25,8.78c10.2,1.71,20.23,4.85,30.55,5.83s20.82-.24,31.12.72c5.08.47,10.02,2.79,15.05,3.07s10.84-1.32,15.8-1.03c.49,3.15-.78,7.23-.4,10.24.39,3.18,2.85,5.77,3.89,8.64,1.17,3.2,1.6,7.02,4.19,8.54,2.43,1.43,6.96.78,10.62-.12-1.25,9.97-2.31,19.68.79,27.94s10.2,14.76,17.89,21.36c-3.13.87-7.19,2.12-9.04,4.06s-1.45,5.46-1.98,8.57c-.52,3.02-2.3,6.05-1.56,8.83s3.84,4.6,5.63,7.02c2.66,3.63,3.8,8.44,6.61,11.96s7.23,5.71,10.2,9.08c2.11,2.4,3.61,5.7,6.4,6.59s5.89-.95,8.99-1.78c2.69-.73,5.96.12,8.49-.97s5.09-4.23,7.54-5.24c6.01,3.71,11.31,9.28,17.5,13.1s13.61,6.26,19.77,10.06c-1.94,6.21-3.92,11.79-1.83,15.35,1.97,3.36,7.09,4.24,13.59,5.93,4.59,1.2,8.93,4.1,13.7,4.72s9.69-1.06,14.43-1.14c5.79-.09,11.66.47,16.33-2.18s7.03-7.79,9.98-13.05c.29-.52,2.27.35,3.01,0s1.28-2.45,1.88-2.35c5.43.85,10.57,2.14,15.24.56s8.26-5.94,12.56-8.92c1.78-1.24,4.7-.88,6.46-2.18s2.53-4.32,4.31-5.62c.26.56-.07,2.42.15,2.9.25.53,2.29.17,2.53.67,3.12,6.28,5.18,11.39,9.18,12.69s8.64-1.66,14.76-5.13c3.92-2.22,8.81-2.78,12.67-5.1s6.64-6.4,10.45-8.8c2.88-1.82,6.75-2.47,8.78-5s1.78-6.28,2.62-9.69c.84-3.41,2.41-7.02,1.13-10.06s-4.97-4.42-8.02-6.16c-1.29-.74-2.07-3.15-3.29-3.16s-1.6,2.1-2.64,3.47c-.94,1.24-2.94,2.03-2.7,3.17s2.67,1.33,3.6,2.42c1.58,1.84.57,4.42.47,6.34s.61,4.59-1.21,6.23c-1.73,1.55-4.79,1.54-6.62,2.98s-2.54,4.44-4.47,5.73c-3.25,2.17-7.65,2.56-11.02,4.63s-5.95,5.89-9.36,8c-.67-1.45-.48-4.14-1.01-5.32-.63-1.4-2.99-1.75-3.67-2.95-.69-1.23.36-3.51-.38-4.71s-3.15-1.16-4.13-2.15c-2.35-2.39-4.41-4.95-6.77-4.48s-3.34,3.67-4.76,6.64c-.24.5-2.21-.16-2.64.26s.29,2.36-.19,2.64c-2.54,1.45-6.06,1.15-8.63,2.56s-4.22,4.56-6.84,5.86c-.59.3-1.8-1.48-2.61-1.5s-2.04,1.71-2.65,1.42c-3.27-1.53-6.1-4.16-9.35-4.17s-6.18,2.64-9.46,3.99c-1.72.71-4.3.25-5.08,1.58-.74,1.26.86,3.15,1.26,5.12.15.74-1.85,1.59-2.01,2.42s1.48,2.2,1.16,2.9c-1.59,3.55-5.32,4.73-8.15,6.37s-5.65,4.32-9.34,4.57c-4.83.33-9.36-2.15-13.94-3.16s-9.65-.62-14.1-2.32c-2.88-1.1-3.25-3.39-3.97-4.73s-2.41-2.92-1.72-5.92c.74-3.25,2.68-5.98,1.81-8.14s-4.11-2.74-7.04-4.37c-5.31-2.95-9.73-7.55-15.09-10.41s-11.69-3.99-16.95-7.03c-3.67-2.12-6.56-5.4-9.97-5.46s-5.94,2.91-9.48,5.95c-2.64,2.26-5.57,1.3-7.96.82s-5.41-.41-7.62-2.92c-2.17-2.49-2.78-6.31-4.86-8.88s-5.69-3.96-7.65-6.62c-.92-1.25-.03-3.65-.73-5.07s-3.14-2.13-3.63-3.6c-.68-2.03,1.14-4.01,1.64-5.82s-.09-4.39,1.53-5.86c2.78-2.52,6.06-4,6.46-6.47s-2.27-4.78-4.57-7.81c-4.24-5.58-5.98-12.42-8.53-18.64s-6.11-12.35-6.7-19.36c-.22-2.59.57-5.33-.83-6.77-1.5-1.53-4.46-.8-6.76-1.28-2.42-.51-2.94-2.98-3.89-4.31s-3.13-2.65-3.1-4.95c.05-3.83,2.08-7.66,2.06-11.49s-2.1-7.62-2.26-11.44c-.07-1.51,2.02-2.21,2.58-3.14s.26-3.13,1.6-3.73c2.19-.98,5.21-.12,7.4-1.12s3.45-3.83,5.55-4.98c1.9-1.03,4.8-.41,6.63-1.58s2.44-4.05,4.12-5.41c1.4-1.13,3.41-1.87,3.04-2.84-.34-.92-2.56-.33-4.23-.7-.46-.1-.65-2.12-1.16-2.16-.45-.03-1.99.85-2.52.8,1.13-6.62,5.11-12.02,8.18-17.44s5.64-11.6,10.65-15.96c2.03-1.76,4.79-2.53,5.02-4.27s-2.25-3.17-3.83-5.35c-.44-.61.62-2.44.1-3s-2.49.3-3.01-.23c-2.01-2.03-1.37-4.1-1.5-5.44s-1.09-3.27.68-5.56c1-1.3,3.62-1.18,4.81-2.34s1.06-3.72,2.3-4.8c1.98-1.73,5.31-1.87,7.34-3.54s2.79-4.86,4.79-6.57c5.43-4.65,8.84-5.25,11.4-5.14s5.8,1.17,10.5,6.64c1.74,2.03,2.86,5.1,5.07,5.81,2.6.85,4.92-1.09,6.86-2.62,3.72-2.94,8.76-3.58,12.93-5.53s7.81-5.4,12.26-6.87c4.39-1.45,8.24-1.57,9.75-3.99s-.03-5.99-.34-10.57c-.09-1.25,1.82-2.64,1.74-3.83-.09-1.34-1.55-3.46-1.62-4.55,2.8,0,5.88,1.96,8.55,1.97s5.44-2,8.15-2.08c1.87-.06,3.88,1.7,5.75,1.49s3.63-2.41,5.49-2.41c4.85.01,7.27,2.5,9.16,4.51s4.26,4.56,4.09,9.38c-.07,2.15-2.16,4.27-2.19,6.43s2,4.26,2.18,6.41c.12,1.53-.92,3.54.08,4.39.92.78,2.97-.48,4.5-.25,2.71.41,5.08,2.85,7.78,3.38s5.82-.83,8.48-.16c3.21.8,6.25,2.96,9.25,2.51s5.27-3.41,7.95-5.27c1.94-1.35,4.94-1.56,6.58-3.36s1.73-5,3.43-6.66c.45-.43,2.27.61,2.86.21.67-.46.99-2.58,1.54-2.48,3.86.71,7.18,3.45,10.84,4.73s8.07,1.32,11.17,3.9c2.51,2.09,2.21,5.16,2.66,7.54s1.99,4.99,1.07,8c-.74,2.42-3.92,4.54-4.33,7.13s1.68,4.43,3.93,6.8c1.86,1.96,2.33,5.31,4.27,7.18s5.28,2.2,7.37,3.91c.85.7,1.02,2.99,2.19,3.37s2.65-1.39,3.75-1.45c3.05-.18,6.29,1.51,9.33,1.13s5.79-2.81,8.82-3.29c2.52-.4,3.98,1.51,5.36,2.22s3.79.84,4.81,3.2c1.08,2.48.42,5.73,1.56,8.18s4.08,4.16,5.01,6.69c.63,1.73-.77,4.08-.39,5.91s2.59,3.46,2.65,5.3c.03.91-2.22,1.51-2.83,2.51s.06,3.16-.71,3.69c-2.2,1.52-5.26,1.99-7.26,3.8s-3.15,5.06-5.96,5.78c-.77.2-2.67-.15-3.22,1.08-.47,1.04,1.1,2.76.98,3.69-.19,1.38-2.17,2.77-2.05,4.2s2.33,2.55,2.63,3.92c.73,3.44-.34,7.3.51,10.72s3.62,6.43,4.21,9.9c.34,1.99-.61,4.2.39,5,1.06.85,3.2-.6,5.05-.46,2,.14,3.81,2.31,5.81,2.58s4.38-1.32,6.32-.81c2.1.57,2.51,3.15,3.4,4.66s2.99,3.04,2.6,5.18c-.93,5.09-3.82,9.82-4.78,14.9s0,10.56-1.08,15.62c-.83,3.9-2.92,4.88-4.18,5.91s-2.63,2.9-6.59,3.05c-2.01.07-4.28-1.54-5.88-.79s-1.61,3.33-2.75,5.16c-2.49,4.01-6.79,6.86-9.41,10.79s-3.56,8.94-6.06,12.95c-.99,1.6-3.56,2.39-4.31,4.14s.45,4.15-.33,5.87c.28.18-.92.96-.64,1.13s.59-1.35.87-1.17c5.31-3.54,10.63-6.75,13.99-11.83s4.95-12.13,7.86-17.54c6.53,1.97,14.04,3.53,19.26.55,4.8-2.75,6.9-8.83,8.03-16.64.68-4.68,3.5-9.01,4.33-13.66s-.31-9.62.33-14.3c1.05-7.63,1.68-14.01-1.59-18.14s-9.7-4.98-17.31-5.57ZM12.19,25.79c3.26-.24,7.48.8,10.6.57s6.22-2.46,9.39-2.77c15.16-1.48,30.51-1.16,45.66-2.72,15.16-1.57,30.14-5.03,45.34-6.12,23.02-1.65,46.15-.64,69.21-1.04,23.05-.4,46.13-2.23,69.2-1.54,8.79.26,17.5,2.55,26.28,2.93s17.67-1.18,26.44-.6c3.17.21,6.12,2.63,9.28,3.29s6.82-.4,9.83.64c7.58,2.63,12.73,9.08,17.11,15.15,4.61,6.38,8.68,14.09,8.36,21.72-5.67-.5-11.96-2.74-17.55-3.27s-11.41.98-17.04.73c-18.31-.82-36.54-3.7-54.85-4.47s-36.69.58-55.02.23c-25.16-.47-50.3-2.78-75.46-2.94s-50.33,1.82-75.5,1.92c-7.64.03-15.38-1.31-23.01-.49s-15.02,3.79-22.63,4.49c-.76.07-1.67-1.87-2.44-1.83s-2.44,1.15-3.23,1.2c-.39-6.18,2.8-6.44,1.99-12.57s-3.51-6.51-1.96-12.5ZM45.86,265.66c-.27-.02-.37-2.03-.64-2.06s-.75,1.93-1.01,1.9c-.27-.03-.29-2.04-.55-2.08s-.82,1.9-1.08,1.86c-.22-.03-.1-2.04-.32-2.08s-.81,1.88-1.03,1.84c0,0,.5-1.93.49-1.93s-.51,1.93-.52,1.93c-.06-.01.24-1.99.18-2s-.53,1.93-.6,1.91c-.22-.05,0-2.04-.22-2.1s-.92,1.83-1.14,1.77c-.25-.06.01-2.06-.23-2.13s-1.06,1.78-1.3,1.7c-.21-.06.19-2.04-.02-2.1s-1.06,1.75-1.27,1.68c-.07-.02.55-1.93.48-1.95s-.83,1.82-.9,1.79c-.05-.01.6-1.9.56-1.92s-.8,1.83-.84,1.81c-.17-.06.39-1.98.23-2.05s-1.07,1.73-1.23,1.66c-.21-.09.37-2.01.16-2.11s-1.24,1.63-1.44,1.54c-.2-.09.47-1.99.27-2.09s-1.3,1.58-1.5,1.48c-.1-.05.72-1.87.63-1.92s-1.13,1.67-1.22,1.61c-.36-.19.27-2.13-.08-2.34s-1.74,1.28-2.09,1.06c-.14-.09.81-1.86.66-1.95s-1.38,1.49-1.52,1.4c-.11-.07.91-1.8.8-1.88s-1.39,1.47-1.49,1.39c-.07-.05,1.04-1.72.97-1.77s-1.29,1.54-1.36,1.48c-.01,0,1.16-1.62,1.14-1.63-.01,0-1.25,1.55-1.27,1.54-.31-.23.6-2.04.3-2.28s-1.85,1.08-2.15.83c-.15-.12.98-1.77.83-1.9s-1.62,1.24-1.76,1.11c-.14-.13,1.05-1.74.91-1.87s-1.63,1.22-1.78,1.08c-.16-.15,1.04-1.76.88-1.92s-1.72,1.11-1.88.95c0,0,.7-1.71.7-1.71s-.71,1.71-.71,1.71,1.71-.71,1.71-.71-.95-1-.95-1c.8.05,1.48,2.09,2.28,2.13s1.7-1.9,2.5-1.85c1.58.09,3.04,2.18,4.61,2.27s3.27-1.82,4.84-1.73c2.36.14,4.59,2.27,6.95,2.41s4.82-1.72,7.18-1.58c1.58.09,3.04,2.18,4.63,2.27s4.13-.42,5.72-.33c-2.2,1.31-5.76,1.34-7.88,2.61s-3.3,4.29-5.47,5.54c-.37.21-1.53-1.46-1.97-1.35s-.74,2.12-1.17,2.09ZM96.37,263.31c-1.39.85-3.79-.03-5.13.78s-1.71,3.37-3.07,4.18c-.04.02-1.08-1.69-1.12-1.67s.86,1.81.82,1.83c-.18.09-1.09-1.69-1.29-1.64s.02,2.05-.19,2.07c-.06.01-.38-1.96-.45-1.95s.08,2,0,2.01c-.07,0-.27-1.98-.34-1.98s-.1,2-.17,2c-.06,0-.06-2-.12-2s-.24,1.99-.29,1.98c-1.06-.07-1.99-2.14-3.05-2.21s-2.26,1.85-3.33,1.77c-1.07-.08-2-2.15-3.07-2.23s-2.28,1.84-3.35,1.77c-.54-.04-.93-2.07-1.47-2.11s-1.23,1.91-1.77,1.87c-.82-.06-1.49-2.11-2.31-2.17s-1.78,1.87-2.61,1.81c-.83-.06-1.51-2.12-2.34-2.18s-1.8,1.87-2.64,1.81c0,0,.06-2,.06-2s-.48.12-.49.12c.78-.42,2.5.91,3.27.5s.59-2.6,1.35-3.01c.38-.21,1.71,1.34,2.09,1.14s-.21-2.17.16-2.37c.75-.4,2.45.95,3.19.54s.54-2.57,1.28-2.97c1.1-.6,3.15.58,4.25,0s1.27-2.94,2.37-3.52c.44-.23,1.48,1.57,2.03,1.54s1.04-2,1.54-1.99c4.07.12,8.09,2.26,12.34,2.4,3.94.14,8.43-1.65,12.81-1.5-1.59.97-4,1.98-5.45,2.87-1.57.97-2.04,3.6-3.51,4.5ZM137.47,258.07c-.59,1.7-2.96,2.59-3.44,4.01-.55,1.64.77,3.87.09,5.3-.24.52-2.24-.17-2.82.25s-.66,2.55-1.22,2.56c-4.09.1-8.18-1.88-12.33-2.02s-8.36,1.55-12.52,1.02c.38-.21,1.44-.53,1.82-.74s-.19-2.18.2-2.38c.13-.07,1.16,1.65,1.29,1.58s-.61-1.93-.48-1.99c2.89-1.37,6.62-1.02,9.51-2.41s5.04-4.55,8.04-5.65c.12-.04.89,1.81,1,1.77s-.33-1.99-.21-2.02c.24-.07.95,1.82,1.2,1.77s.15-2.06.41-2.1c.25-.04.74,1.92.99,1.89s.34-2.04.59-2.06c.42-.02.92,1.96,1.34,1.95s.82-2.01,1.25-2.01c.71,0,1.44,2,2.18,2s1.37-2.02,2.1-2.07c0,0-.28,1.95-.28,1.95.47.17,1.28-.62,1.28-.61Z"/>
      <path class="cls-1" d="M177.84,0c-1.4.15-2.93.33-4.33.49s-2.63,2.3-4.04,2.4c-14.75,1.04-29.65-.05-44.4.94s-29.34,4.05-44.06,5.41c-10.07.93-20.34.27-30.36,1.73s-19.72,5.02-29.72,6.47c-1.77.26-3.94-1.18-5.67-.64s-2.93,3.04-4.68,3.41c-2.05.44-4.45-.31-5.34.91s.52,3.45.45,5.47c-.43,12.09-2.9,24.09-3.39,36.18-.49,12.08,1.01,24.25.5,36.33-.07,1.56-2.19,2.98-2.35,4.53s-.33,3.21-.47,4.77c0-17.89,2-35.79,2-53.7S.48,18.08.48.15C29.95.15,59.95,2,89.42,2s58.95-2,88.43-2Z"/>
      <path class="cls-1" d="M380.65,370.5c-6.58,8.4-15.46,14.04-23.95,19.7-8.46,5.64-17.08,11.66-27.47,14.37-12.21,3.18-24.62,2.71-36.76,2.5s-24.58-.16-36.65-3.8c-13.74-4.14-24.65-12.2-34.47-20.84s-19.19-18.44-24.78-31.72c-7.63-18.16-9.76-36.75-9.59-54.85s2.67-36.56,11.92-54.26c6.19-11.83,15.61-20.63,25.3-28.51s20.11-15.25,33.31-18.45c5.51-1.33,11.23.07,16.72.29s11.3-.75,16.69,1.03c.7.23.2,2.41.75,3.08.51.62,2.74.89,3.27,1.44-.72.29-2.89-.37-3.62,0-.81.41-1.28,2.6-2.02,2.5-22.99-3.09-44.75,2.29-61.14,16.04-15.96,13.39-25.68,33.97-29.52,56.57-2.11,12.39-4.42,24.54-2.94,36.51,1.48,11.97,6.67,23.18,11.79,34.67,5.34,11.97,10.92,23.03,19.9,30.84s20.69,11.77,33.33,15.35c12.83,3.63,25.35,7.32,38.01,6.89s24.84-4.95,37.26-9.96c15.93-6.44,29.64-14.22,38.94-26.09s13.63-27.22,16.53-43.94c4.03-23.28,3.19-43.99-5.22-61.93s-24.06-32.22-42.82-45.48c-4.15-2.93-7.52-7.17-12.02-9.61s-10-3.01-14.43-5.51c-.66-.37-.36-2.49-1.03-2.85s-2.51.86-3.18.5c.06-.22,1.78-.87,1.85-1.08s-.92-1.72-.85-1.94c.89.13,1.76,2.2,2.65,2.31s2.18-1.71,3.04-1.46c22.39,6.4,39.09,18.81,52.39,33.56,13.38,14.84,24.01,32.82,28.71,55.3,3.34,16.01,1.58,31.52-1.64,46.31s-8.03,29.53-18.24,42.55Z"/>
      <path class="cls-1" d="M229.07,153.19c-.28,2.05-2.81,2.7-4.36,3.75-1.37.93-2.66,3.24-4.86,3.19-7.29-.17-14.51-2.44-21.8-2.69s-14.62,1.5-21.91,1.38c-14.57-.25-29.11-2.46-43.69-2.65-14.57-.19-29.17,1.64-43.74,1.46-9.02-.11-18.01-2.21-27.02-2.32-9.01-.1-18.05,1.79-27.07,1.68-.57,0-1.12-1.98-1.72-2.03-.65-.05-1.9,1.65-2.35,1.33-.68-.47-.22-2.59-.88-3.2-.75-.7-3.02-.63-3.09-1.39-.06-.57,2.21-.84,2.97-1.59.69-.68.68-2.94,1.35-3.04,6.36-.97,13.03-.11,19.41-1.07s12.61-3.73,19.04-4.02c12.53-.58,25.14,1.13,37.69.92s25.07-2.33,37.61-2.58c0,.13-.99,1.28-.99,1.42s1.04-.75,1.04-.61c10.44.25,20.83,2.46,31.27,2.71s20.94-1.48,31.39-1.13c2.45.09,4.71,2.37,7.15,2.8s5.27-.98,7.65-.41c1.74.42,2.56,2.75,3.76,3.88,1.13,1.07,3.45,1.99,3.14,4.2Z"/>
      <path class="cls-1" d="M373.17,290.42c-.26-6.8.31-13.58-2.59-18.95s-8.58-8.36-15.01-11.57c-3.46-1.72-6.48-4.34-9.83-4.11s-6.02,3.24-9.26,5.31c-.44.28-2-1.05-2.5-.75-.6.36-.99,2.42-1.41,2.28-2.34-.78-4.26-2.09-5.47-1.11-1.33,1.08-.65,4.08-1.45,5.71-2.41,4.9-6.15,9.26-7.47,14.46s-.11,10.79-.29,16.26c0,.6-2.02,1.16-2.02,1.76s1.99,1.15,2.03,1.75c.39,6.51.24,12.66,3.06,17.01,3.21,4.95,8.96,6.84,14.83,8.32,6.48,1.64,13.02,2.99,18.67.53s9.08-8.05,12.62-13.85c2.2-3.61,5.66-6.63,6.7-10.56s-.46-8.29-.62-12.49ZM359.02,307.49c-1.48,2.69-4.83,3.45-7.15,4.93s-4.41,4.19-7.45,4.47c-4.22.39-7.22-2.4-9.82-4.59s-5.86-4.65-6.27-8.86c-.56-5.77,1.87-11.3,2.89-16.87s.7-11.58,2.42-17.09c.99,0,2.81,1.46,3.7,1.47.97.01,1.85-1.99,2.77-2.04,6.21-.33,10.74,3.03,14.47,6.3s7.66,7.23,8.32,13.45c.34,3.24-1.8,6.28-2.43,9.32s.11,6.68-1.45,9.52Z"/>
      <path class="cls-1" d="M194.78,114.55c0,.93-2.38,1.47-3.21,2.49s-.73,3.39-1.65,3.7c-1.88.63-4.33-.83-6.35-.53s-3.92,2.43-5.9,2.39c-18.84-.35-37.64-2.73-56.48-3.14-18.84-.41-37.73,1.14-56.57.65-4.57-.12-9.04-2.39-13.6-2.72s-9.27,1.27-13.83.92c-.87-.07-1.46-2.16-2.34-2.38s-2.48,1.31-3.24.88c-.68-.39.03-2.49-.5-3.15s-2.76-.79-3.29-1.39c.64-.47,2.91-.24,3.55-.79.69-.6.6-2.85,1.36-2.96,2.96-.43,6.19,1.12,9.18.79s5.87-2.56,8.86-2.59c10.89-.1,21.78,1.88,32.67,1.89s21.75-1.96,32.64-1.96c.11,0,1.02.89,1.02.79s-1.13-1.21-1.02-1.21c10.21,0,20.44,1.97,30.65,1.97s20.43-1.98,30.64-1.89c2.07.02,4.01,2.17,6.08,2.49s4.6-1.14,6.56-.49c.91.3.82,2.72,1.61,3.71s3.18,1.61,3.17,2.54Z"/>
      <path class="cls-1" d="M184.61,84.25c-.32.97-2.78.95-3.87,1.79s-1.65,3.23-2.69,3.3c-5.09.33-10.28-1.47-15.38-1.34s-10.17,2.17-15.27,2.21c-7.51.06-15.02-1.93-22.53-1.94s-15.05,1.97-22.56,1.97c0-.3,1.04-1.59,1.04-1.89s-1.02.4-1.02.11c-11.19,0-22.35-2-33.54-2-11.19,0-22.37,2-33.56,1.99-.56,0-1.22-1.93-1.82-1.92-.68.01-1.91,1.74-2.32,1.41-.8-.62-.1-2.8-.77-3.6s-3.04-1-3.7-1.77c.72-.62,3.13-.72,3.85-1.45.81-.83.81-3.22,1.7-3.31,3.13-.32,6.42,1.49,9.58,1.38s6.26-2.14,9.42-2.18c20.72-.2,41.46,1.61,62.19,1.44s41.43-2.34,62.15-2.5c.82,0,1.7,1.96,2.59,2.04,1.01.08,2.73-1.4,3.27-.87.73.73-.03,2.96.58,4,.71,1.21,2.96,2.26,2.68,3.13Z"/>
      <path class="cls-1" d="M310.94,266.26c-.14,1.53-2.4,1.97-3.32,2.84s-1.58,3.07-3.14,3.01c-4.27-.16-8.44-2.38-12.71-2.64s-8.66,1.45-12.92,1.16c-.7-.05-1-2.19-1.73-2.43-.64-.21-.63.57-1.37.36-.38,4.88-2,4.82-2,9.71s.73,4.8,1.97,9.53c2.44-.47,4.13.28,6.6-.2s4.55-2.91,7.02-3.35c.59-.1,1.34,1.86,1.94,1.87s1.35-1.91,1.94-1.85c1.83.2,2.91,2.42,4.24,3.31s3.78,1.28,4.02,3.4c.19,1.77-2.28,2.89-3.75,4.16-1.28,1.09-2.41,3.55-4.42,3.52-2.75-.05-5.34-2.35-8.08-2.72s-5.71,1.17-8.44.82c-.43-.05-.43-2.13-1.02-2.3-.39-.11-.16.94-.74.78,0,2.59-2.04,4.86-2.07,7.32s1.99,4.99,2.17,7.48c.2,2.64-.91,5.18.27,6.24s3.61-.3,6.26-.31c1.71,0,3.58,1.79,5.28,1.53s3.08-2.56,4.76-2.84c1.11-.18,2.6,1.51,3.69,1.24s1.82-2.49,2.93-2.63c2.05-.26,3.51,1.91,4.9,2.66,1.62.87,4.15,1.31,4.45,3.21.28,1.78-1.97,2.91-3.23,4.19-1.06,1.07-1.75,3.54-3.74,3.87-3.09.5-6.49-.98-9.61-.58s-6.1,2.69-9.23,2.77c-5.99.15-10.13-3.28-13.42-6.55s-6.72-7.35-6.62-13.39c.09-5.47,2.41-10.85,2.83-16.31s-1.05-11.08-.56-16.53c.19-2.06,2.51-3.82,2.96-5.86s-.96-4.53-.42-6.53c.32-1.17,2.3-.94,3.17-1.36.78-.37,1.84-2.1,3.09-1.4.23.13-.07,2.1.27,2.16.4.07.23-1.63.38-1.78,1.81-1.87,4.8-1.06,7-1.46s4.48-2.3,6.79-2.3c2.99,0,5.92,2.1,8.91,2.27s6.13-1.56,9.1-1.26c1.67.17,2.01,2.47,2.79,3.54s2.91,2,2.77,3.62Z"/>
      <path class="cls-1" d="M134.13,187.92c-11.71,0-11.71-2-23.43-2s-11.72,2.09-23.43,2c0-.18,1.01-1.35,1.01-1.53s-1.02.63-1.02.45c-7.89,0-15.75-1.97-23.63-1.97s-15.78,1.98-23.66,1.88c-1.61-.02-3.33-1.84-4.96-2.28s-4.16-.41-4.32-2.74c-.15-2.16,2.34-2.43,3.86-3.07s2.8-2.72,4.3-3c2.87-.52,6.07.94,8.97.55s5.66-2.66,8.58-2.72c12.76-.27,25.56,1.54,38.33,1.38s25.51-2.29,38.27-2.42c2.39-.03,3.7,2.27,5.05,3.19,1.57,1.07,4.01,1.83,4.23,4.06.22,2.24-2.1,3.43-3.44,4.68-1.24,1.15-2.4,3.54-4.7,3.54Z"/>
      <path class="cls-1" d="M235.8,336.4c-1.33.39-3.14-1.3-4.5-1.09s-2.61,2.38-3.92,2.62c-1.14-.18-2.1-2.31-3.14-2.45-1.12-.16-2.56,1.63-3.61,1.38-1.9-.46-2.08-2.76-2.77-3.93s-2.6-2.46-2.11-4.32c.45-1.69,2.87-1.85,4.13-2.6s2.57-2.81,4.26-2.39c5.02,1.24,9.74,2.72,13.28.97,3.89-1.93,5.19-6.61,6.13-11.53.94-4.93,1.5-9.9-1.32-13.34-2.65-3.24-7.66-3.89-12.75-4.65-1.26-.19-2.29-2.31-3.56-2.44s-2.73,1.76-3.99,1.65c-6.15-.53-9.68-5.22-11.81-9.64s-3.6-10.1-.2-15.25c2.65-4,8.76-5.59,14.18-7.16s11.47-3.49,15.81-1.4c.84.41.27,2.66.9,3.5.59.79,2.94,1.13,3.56,1.85-.73.51-3.05.3-3.76.87-.76.61-.71,2.89-1.56,3.07-1.52.32-3.33-1.63-4.91-1.59s-2.93,2.05-4.45,2.38c-1.83.39-4.25-1.16-6.09-.62s-2.82,3.06-4.31,4.17c-1.04.78-3.38,1.07-3.9,2.64-.48,1.46,1.21,3.38,1.19,4.74-.02,1.74-.63,3.68.62,4.36,1.18.64,3.28-.95,4.73-.8,1.19.13,2.18,2.29,3.37,2.42s2.43-1.8,3.61-1.89c5.99-.48,11.18,3.63,15.64,7.69s9.01,8.5,9.86,14.52c.88,6.19-2.4,11.71-5.63,16.55s-6.94,9.95-13,11.72Z"/>
      <path class="cls-1" d="M59.23,265.06c1.67.12,3.17,2.24,4.81,2.36s4.35-.5,6-.38c-1.64-.12-4.19-1.49-5.86-1.61s-3.44,1.75-5.11,1.63c0,0,.79-.29.79-.29s-.63-1.71-.63-1.71Z"/>
      <path class="cls-1" d="M85.16,266.93c.05,0-.01,2.01.04,2.01s.18-1.99.23-1.99c-.06,0-.1,0-.16,0s-.2,1.99-.26,1.99c-1.06-.07-1.98-2.14-3.05-2.21s-2.9,1.56-3.97,1.48c1.06.07,2.76.44,3.82.51s2.26-1.85,3.32-1.78Z"/>
      <path class="cls-1" d="M96.84,262.33c-1.39.85-4.26.95-5.6,1.76s-1.71,3.37-3.07,4.18c-.04.02-1.04-1.7-1.08-1.68s-.62.92-.66.93c.04-.02,1.57.84,1.61.82s-.92-1.78-.88-1.8c1.36-.81,3.75.08,5.13-.75s3.17-2.61,4.56-3.46Z"/>
      <path class="cls-1" d="M25.43,256.24c.3.25.87,1.73,1.17,1.97s2.21-.11,2.52.11c-.31-.22-.98-1.44-1.29-1.68s-2.11-.15-2.4-.4Z"/>
      <path class="cls-1" d="M314.07,33.63c-.03,1.87-2.36,2.29-3.96,3.09-1.23.61-2.51,2.79-4.52,2.77-1.15-.24-2.1-2.36-3.27-2.56s-3,1.39-4.04.87c-.69-.35-.21-2.54-.8-3.3-.66-.85-2.88-1.32-2.78-2,.12-.82,2.39-.93,3.1-1.73s.45-3.02,1.24-3.31c1.08-.4,2.65,1.41,3.88,1.39s2.43-1.93,3.6-1.89c1.84.06,2.9,2.2,4.1,3.08s3.48,1.44,3.44,3.6Z"/>
      <path class="cls-1" d="M288.47,32.76c.07.63-2.2,1.09-2.86,1.92s-.68,3.16-1.3,3.19c-2.1.13-4.2-1.9-6.31-2.05s-4.43,1.57-6.51,1.26c-.44-.07.07-2.17-.32-2.95-.35-.7-2.45-1.21-2.37-1.73.11-.65,2.26-.62,2.76-1.26s0-2.75.62-2.98c1.16-.43,2.87,1.27,4.1,1.09s2.31-2.28,3.5-2.47c.69.1,1.4,2.09,2.07,2.13.78.05,2.15-1.64,2.65-1.27.72.54.18,2.68.85,3.4.73.79,3.02.87,3.12,1.71Z"/>
      <path class="cls-1" d="M336.78,34.3c-.15,2.25-2.52,2.42-3.82,3.03-1.38.65-2.68,2.61-4.35,2.78-.52-.06-1.1-2.04-1.62-2.06-.6-.02-1.78,1.71-2.17,1.43-.79-.58-.5-2.79-1.32-3.46-.95-.79-3.34-.75-3.44-1.63-.09-.76,2.3-1.07,3.23-1.96.75-.72.31-2.91,1.03-3.49.42-.34,1.77,1.27,2.42,1.19.59-.07,1.06-2.07,1.63-2.09,2.07-.08,3.35,2.13,4.6,2.8,1.62.88,3.95,1.53,3.82,3.46Z"/>
    </g>
  </g>
</svg>