<?xml version="1.0" encoding="UTF-8"?>
<svg id="Layer_2" data-name="Layer 2" xmlns="http://www.w3.org/2000/svg" viewBox="0 0 383.84 400.39">
  <defs>
    <style>
      .cls-1 {
        fill: #fff;
        stroke-width: 0px;
      }
    </style>
  </defs>
  <g id="Layer_7" data-name="Layer 7">
    <g id="O0gYnZ.tif">
      <g>
        <path class="cls-1" d="M381.3,274.29c-.09-16.4,1.84-32.81,1.77-49.21s-2.14-32.79-2.22-49.19c-.04-7.31.03-13.65-3.43-17.66s-9.73-4.79-17.06-5.36c-5.18-.41-10.31-2.54-15.52-2.53s-10.39,2.15-15.58,2.29c-22.35.6-44.76-.77-67.11-.11-22.35.66-44.64,3.33-66.99,4-2.1.06-4.31-1.78-6.42-1.6s-5.06,1.62-7.18,1.78c.56-6.37,3.06-12.75,3.6-18.9s-.9-12.69-.35-18.91c.34-3.9,2.25-5.14,3.23-6.19,1.04-1.12,2.21-2.85,6.19-2.95.36,0,.76,2.03,1.14,2.04.41,0,.29-1.87.59-2.05,2.79-1.75,5.5-.04,7.82.67s5.49.52,7.77,1.98c.13.08-.72,1.89-.59,1.96s1.11-1.69,1.25-1.63c9.71,4.1,18.64,10.05,28.35,14.15,9.71,4.1,20.2,6.34,29.94,10.37,4.35,1.8,7.4,4.08,9.5,2.93s1.88-4.94,2.84-9.55c1.3-6.27,4.46-12.16,5.65-18.46s.8-13.6,1.99-19.9c7.53.57,15.1.29,19.67-3.57s5.77-10.71,6.01-18.29c.11-3.74,1.57-7.63.42-11.01s-4.65-5.48-7.19-8.32c-2.82-3.16-5.05-6.67-8.56-7.5s-7.42,1.36-11.44,2.36c-.16-.8.63-2.71.5-3.37-.15-.77-2.25-1.08-2.39-1.79-1.09-5.54-.16-11.48-1.23-17.03s-4.13-10.69-5.35-16.2c-.75-3.4-.28-6.51-1.88-7.35s-3.92,1.29-7.16,2.54c-12.1,4.68-25,7.4-36.92,12.47-11.92,5.07-22.7,12.43-33.88,19.14-.95.57-3.22-.05-4.01.93s.33,2.95.15,4.02c-1.07,6.54-4.04,12.78-4.97,19.34s.2,13.39-.61,19.96c-.37,3.05-2.54,5.95-2.67,9.12-.12,2.99,1.5,6.82,1.33,10.05-3.07,0-6.72-1.72-9.58-1.72-3.01,0-5.94,2-8.87,2.02-4.77.03-8.87-2.55-12.94-4.14s-8.83-2.5-12.06-6.2c-5.94-6.81-6.3-18.32-3.11-28.17,2.75-8.49,8.22-17.27,19.68-20.15,4.45-1.12,9.38.05,13.93-.67s8.76-3.34,13.27-4.18c1.15-.22,2.82,1.31,3.94.88s1.33-2.69,2.44-3.08c-.05-.22,1.38.22,1.33,0s-1.2.76-1.25.54c-4.86-.43-9.49-3.05-14.35-3.57s-9.85,1.1-14.73,1.19c-8.36.16-16.09.67-21.94,4.85s-8.95,11.41-12.23,18.95c-3.28,7.51-6.59,14.61-5.8,21.78s5.46,13.17,10.82,19.69c.62.76-.67,2.66-.38,3.73s2.37,1.89,2.36,2.88c-.03,2.57-2.18,5.05-2.37,7.61s1.58,5.26,1.42,7.82c-.36,5.7-2.71,11.27-3.07,17.01s1.28,11.59.92,17.38c-.69-.15-2.09-1.48-2.73-1.63-.68-.16-1.65,1.67-2.31,1.62-4.63-.37-9.09-2.96-13.72-3.41s-9.36,1.24-13.99,1.49c-9.99.53-18.62,2.84-23.5,9.09-4.86,6.23-5.06,15.22-3.47,25.02.45,2.75-.9,5.87-.23,8.61s3.32,5.14,3.95,7.92c-.62.11-2.4-.75-2.98-.64-.61.12-.95,2.2-1.55,2.24-7.16.5-14.45-1.03-21.61-.54s-14.17,2.98-21.32,3.54c-1.61.13-3.52-1.5-5.11-1.1s-2.51,2.74-4.09,3.1c.04.28-1.3-.23-1.26.05s1.18-.56,1.22-.28c4.43.23,8.7,2.49,13.13,2.74s8.96-1.53,13.39-1.39c6.49.2,12.94,2.31,19.43,2.43,6.49.11,13.04-1.76,19.53-1.54,3.64.13,5.54,2.82,7.29,4.68s4.32,3.94,4.29,7.54c-.2,25.31-2.4,50.62-2.6,75.93-.2,25.32,1.59,50.65,1.38,75.97-.03,3.9-2.57,5.93-4.34,7.71s-3.84,4.3-7.72,4.3c-10.73-.01-21.46-2.03-32.19-2.03s-21.46,1.99-32.19,1.99c-3.62,0-5.5-2.54-7.2-4.26s-4.22-3.63-4.27-7.21c-.4-25.08,1.18-50.2.74-75.28-.43-25.08-2.88-50.13-3.32-75.21-.07-3.82,2.13-7,3.57-10.01s1.89-5.65,6.02-7.12c-4.13-1.25-7.36-1.68-10.2.25-2.65,1.8-3.02,5.96-3.89,10.34-.82,4.13-3.45,8-3.93,12.21s1.22,8.56,1.14,12.77c-.42,22.51-2.78,44.99-3.1,67.5-.31,22.51,1.42,45.05,1.2,67.57-.05,5.83.77,11.85,4.76,15.71s10.06,4.5,15.85,4.55c2.64.03,5.29,2.02,7.93,2s5.26-2.06,7.91-2.11c8.99-.14,18.01,1.76,27,1.63s17.94-2.3,26.92-2.57c6.52-.2,12.13-.15,15.57-3.41s3.73-8.88,4.45-15.33c.23-2.02,2.35-3.9,2.43-5.94s-1.9-4.11-1.9-6.14c0-1.79,1.91-3.63,1.81-5.34-.11-1.88-1.3-4.6-1.38-6.21,13.81.91,27.51,3.81,41.23,4.71s27.73-.17,41.54.73c-1.36,1.99-3.68,4.49-4.98,6.49s-1.12,5.22-2.71,7c-3.44,3.84-8.25,6.17-12.31,9.08s-7.89,6.65-13.51,6.96c-2.17.12-4.6-1.48-6.75-1s-3.8,3-5.91,3.51c-.74.18-2.2-1.26-2.89-.84s.2,1.65-.47,2.03c.74.61-.02,2,.6,2.28.82.38,2.06-1.38,2.82-1.32,6.7.51,13.25,3,19.95,3.5,6.7.5,13.55-1.01,20.25-.51,3.83.29,7.51,2.57,11.35,2.87s7.75-1.4,11.58-1.11c12.24.13,12.23,2,24.48,2s12.23-1.86,24.48-2c3.29-.31,6.68,1.41,9.97,1.11s6.37-2.6,9.65-2.99c2.44-.28,5.12,1.41,7.56,1.11s4.63-2.59,7.07-2.9c2.9-.37,6.06,1.25,8.96.88s5.55-2.72,8.45-3.09c.17-.02.6,1.94.78,1.92s-.5-1.73-.33-1.75c.06-.22,1.8.52,1.86.31s-1.58-.01-1.52-.23c-.74-.51-.12-2.6-.85-3.16s-2.44.66-3.29.39c-1.25-.4-1.91-2.72-3.17-3.1s-3.06,1.19-4.33.88c-.77-.19-1.1-2.31-1.87-2.46s-1.88,1.69-2.65,1.58c-2.8-.39-4.94-2.89-7.45-3.82s-5.76-.43-8.09-2.19c-3.44-2.59-5.77-6.58-9.1-9.25s-7.87-4.22-10.41-7.82c-.16-.24,1.32-1.61,1.14-1.87-.15-.22-1.97.67-2.15.4-.08-.12,1.48-1.38,1.39-1.51-.08-.12-1.83.86-1.92.73,0,0,1.74-.09,1.74-.1s-1.67.17-1.68.17c-.05-.07,1.5-1.34,1.45-1.41s-1.77.96-1.82.89c0,0,.85.47.86.47s-.05-2-.04-2c.42-.02.92,1.95,1.29,1.93.42-.03.68-2.05,1.04-2.07.35-.02.79,1.96,1.11,1.94.34-.01.64-2.02.97-2.02,15.17,0,30.33,1.98,45.5,1.98,15.16,0,30.33-2,45.5-1.99,3.72,0,7.43,1.41,10.43.33,3.31-1.18,5.12-4.65,7.53-7.12.7-.71,2.88-.18,3.5-1.01s-.49-2.75.04-3.65c.55-.93,2.84-1.01,3.3-2.05.44-.99-1.01-2.76-.64-3.85,0-.02,1.88.69,1.89.67s-1.77-.93-1.76-.95c.02-.05,1.76.94,1.79.89.03-.04-1.53-1.29-1.49-1.34.04-.04,1.58,1.23,1.62,1.19s-1.42-1.41-1.39-1.45c.04-.04,1.55,1.27,1.59,1.23s-1.41-1.42-1.37-1.46c.02-.02,1.58,1.22,1.6,1.2s-1.76-.66-1.74-.68c0-14.97,2-14.97,2-29.93s-1.95-14.96-2-29.93c-.1-1.19,1.77-2.48,1.66-3.68s-2.2-2.3-2.2-3.49ZM289.81,52.86c3.33.38,6.65,2.73,8.96,4.74,2.45,2.13,5.76,4.1,6.2,7.29.62,4.49-2.01,7.49-4.82,10.49-2.17,2.31-5.69,5.32-10.31,7.14-2.48-6.84,2.79-7.78,1.93-15.01s-3.63-7.58-1.97-14.66ZM272.15,13.74c3.87,18.12,4.32,36.97,4.41,54.98s-.18,36.96-4.48,54.89c-10.89-3.22-22.1-8.08-32.85-11.27-10.84-3.22-22.21-4.53-32.98-7.81-.6-.18-.11-2.32-.6-3.08-.46-.72-2.63-.94-2.68-1.6-.49-7.38,1.1-14.88.7-22.27s-2.8-14.65-3.27-22.03c-.19-2.92,1.49-6.01,1.14-8.91s-2.23-6.56-2.55-9.45c12.09-3.96,24.85-6.06,36.81-9.98s24.24-9.53,36.34-13.5ZM178.41,110.19c-1.19,5.08-4.19,10.5-5.4,15.45s-.42,10.45-1.29,15.51c-1.55,8.98-4.93,17.68-6.26,26.7s-.61,18.34-1.86,27.36c-.21,1.53-2.24,1.68-2.9,2.3-.69.65-1.08,2.59-2.63,2.51-2.82-.15-4.28-2.56-5.86-3.86s-4.21-2.33-4.71-5.16c-.24-1.33,1.63-2.9,1.57-4.26s-2.05-2.67-2.06-4.02c-.04-10.27,1.97-20.54,1.96-30.81s-2.05-20.52-2.17-30.79c-.03-2.93,1.67-5.98,1.31-8.99-.34-2.84-1.72-6.63-2.04-9.7,4.91,3.13,9.75,7.08,14.97,8.21s11.77-.2,17.38-.43ZM263.58,385.19c-11.64.31-23.88-1.28-35.82-.97-11.64.31-23.58,2.6-35.53,2.91,1.88-2.18,4.63-4.45,6.33-6.35,1.87-2.09,2.01-5.34,3.47-7.53,1.39-2.08,4.27-3.33,5.38-5.67s1.05-5.95,2.21-8.3c9.73-1.1,9.9,1.99,19.69,1.99s10.14-3.77,19.77-1.98c2.43,4.09,3.74,9.54,6.09,13.49s6,8.31,8.42,12.39ZM370.05,337.88c-.15,2.41-2.79,3.55-4.48,4.95-1.52,1.26-2.89,3.82-5.41,4.03-3.46.29-7.04-1.54-10.51-1.44s-6.91,2.13-10.37,2.15c-22.81.12-45.64-1.87-68.45-1.8-22.82.07-45.61,2.19-68.42,2.52-14.93.21-29.91-1.26-44.89-.65-14.86.61-30.45,3-45.48,3.56-5.53-5.57,1.71-8.55,1.71-16.4s-8.75-14.13-1.32-16.64c42.73,1.29,85.77,4.85,128.55,5.23,42.66.38,85.38-2.45,128.18-6.04,0,3.35-.92,7.59-.9,10.74s2,6.57,1.8,9.78ZM370.14,267.13c-.04,7.54-2.05,15.07-2.04,22.68s1.98,15.3,1.98,22.98c-2.21-.33-5.17-1.94-7.29-2.26s-4.62,1.33-6.78,1.02c-13.22-1.88-26.32-4.59-39.6-4.8s-26.58,2.1-39.88,2.28c-16.76.24-33.56-1.59-50.33-1.34-16.77.25-33.49,2.58-50.24,3.13-10.02.33-20.14-.97-30.15-.18-10,.79-19.84,3.68-29.84,4.4-.51.04-1.09-1.96-1.75-1.97-.48,0-1.83,1.6-2.5,1.6,0-.85,1.79-2.33,1.79-3.2s-2-1.72-2.01-2.58c-.13-14.35,1.8-28.73,1.68-43.08s-2.26-28.68-2.53-43.03c-.15-7.69-.27-13.88-3.98-17.42s-9.94-3.46-17.57-3.6c-.27,0-.4-2.03-.8-2.09-.25-.03-1.56,1.42-1.95,1.38,0-.62,1.84-1.77,1.83-2.41s-2-1.32-1.95-1.95c.26-3.46,2.58-6.75,2.87-10.21s-1.43-7.05-1.26-10.51c.19-3.92,3.03-6.22,5.12-8.33s4.34-4.97,8.31-5.13c4.22-.18,8.52,1.69,12.74,1.56s8.36-2.28,12.58-2.49c1.64-.09,3.49,1.67,5.21,1.39,1.57-.25,3.9-2.04,5.67-2.29-.15,2.93-2.23,6.29-2.41,9.18s1.68,5.88,1.71,8.79c.03,3.15-1.91,6.37-1.73,9.52s2.45,6.09,2.94,9.2c.52,3.32.18,6.99,2.22,9.17s5.77,2.1,9,2.83c3.12.71,6.03,3.12,9.26,3.39s6.55-1.63,9.76-1.6c2.33.02,4.67.58,5.7-.92s-.27-4.2.06-6.11c.56-3.19,3-6.09,3.45-9.3s-1.11-6.71-.64-9.91c.58-4.05,3.15-7.81,3.74-11.81s-.34-9.13.24-13.08c5.52,0,11.38,1.81,16.58,1.8s10.74-2.01,16.04-1.94c23.72.28,47.41,2.58,71.13,2.89,23.72.3,47.46-1.4,71.18-1.11,5.33.06,8.15,2.89,10.37,5.39s4.79,5.54,4.71,10.79c-.23,14.88-2.37,29.74-2.46,44.63s1.85,29.78,1.77,44.66Z"/>
        <path class="cls-1" d="M261.51,359.59c.42-.02.93,1.95,1.3,1.93.42-.03,1.53-1.67,1.9-1.69-.37.02-1.6-.33-2.02-.3-.37.02-.64,2.04-1.06,2.06,0,0,.84-1.45.84-1.45s-.95-.56-.95-.56Z"/>
        <path class="cls-1" d="M280.11,397.12c2.44-.29,5.93.79,8.37.49s5.72-1.32,8.16-1.63c-2.44.31-5.96-.65-8.4-.35s-5.68,1.2-8.13,1.49Z"/>
        <path class="cls-1" d="M314.07,393.73c-2.9.37-6.9-.48-9.81-.12s-6.68,1.78-9.58,2.15c2.9-.37,6.93.2,9.83-.16s6.65-1.5,9.55-1.87Z"/>
        <path class="cls-1" d="M74.28,288.34c.3-.22,1.57,1.26,1.83,1s-1.22-1.08-1.14-1.44c-.29-.63,1.4-1.48,1.15-2.14s-2.25-.3-2.71-.81c-4.66-5.11-8.35-11.23-13.73-15.44s-12.23-6.33-18.28-9.65c-2.83-1.56-5.33-3.48-7.23-2.45s-1.68,4.21-2.1,7.38c-.38,2.9-2.53,5.69-2.57,8.64s2.04,5.86,2.13,8.78c.16,4.9-1.6,9.88-1.32,14.78s2.61,9.65,2.98,14.54c.08,1.02-1.67,2.61-1.33,3.71.39,1.27,2.41,1.2,3.22,1.64.89.49,1.81,2.53,3.12,2.42s1.92-2.3,2.8-2.87c3.66-2.39,8.41-3.2,11.98-5.75s5.87-6.77,9.31-9.47c2.21-1.74,5.58-2.18,7.59-4.16s2.49-5.36,4.52-7.31c-.16-.25,1.28-.39,1.12-.64s-2.12.34-2.28.09c.1.04.79.72.89.76s-.03-1.64.07-1.6ZM43.79,302.23c-2.71-5.57,1.9-6.64,1.9-12.83s-4.57-7.23-1.9-12.83c4.97,2,10.4,5.33,15.28,7.29s11.22,3.03,16.13,4.99c-4.9,2.15-11.21,3.39-16.15,5.55s-10.28,5.64-15.25,7.82Z"/>
        <path class="cls-1" d="M65.72,376.23c-.99.45-2.7-1.1-3.71-.84-1.15.3-1.98,2.48-2.85,2.72-1.53-.25-2.78-2.38-4.06-2.54-1.5-.19-3.35,1.5-4.6,1.02-.79-.31-.81-2.62-1.65-3.25-1.11-.83-3.55-1.17-3.43-1.69.27-1.19,2.6-1.83,3.25-3.03.69-1.28.25-3.75,1.3-4.29,1.63-.84,4.1.51,5.98.13s3.42-2.56,5.25-2.77c1.73-.2,2.65,1.95,3.75,2.83s3.39,1.12,3.8,2.83c.38,1.58-1.34,3.14-1.62,4.48s.31,3.61-1.41,4.41Z"/>
        <path class="cls-1" d="M340.16,35.87c-.03,2.82-3.6,5.15-6.05,7.32-2.77,2.45-5.83,5.68-7.94,5.06-1.37-.41-1.36-3.28-2.02-5.06s-2.58-3.83-1.84-5.12c.52-.91,2.79-.74,3.38-1.62s-.41-2.89.22-3.73c.83-1.12,3.09-.78,4.18-1.42s2.43-2.51,3.9-1.59c1.14.72.91,3.18,1.79,4.1,1.1,1.13,3.69,1.37,4.38,2.06Z"/>
        <path class="cls-1" d="M339.93,98.9c-.58,1.41-2.99,1.87-3.75,2.98-.97,1.42-1.32,3.95-2.72,3.89-2.55-.05-4.69-3.34-6.98-5.33-2.62-2.28-6.19-4.43-6.16-6.37.02-1.51,2.88-2.18,4.63-3.17,1.63-.92,3.43-3.17,4.96-2.63,1.06.37,1.33,2.66,2.35,3.14s2.91-.79,3.9-.26c1.29.68,1.13,2.94,1.8,3.99s2.63,2.18,1.99,3.75Z"/>
        <path class="cls-1" d="M348.36,67.34c.05,2.41-2.29,3.51-3.68,4.72-1.28,1.12-2.49,3.47-4.95,3.52-2.28.04-3.91-2.26-5.49-2.95-2.19-.96-4.93-1.6-4.94-3.5,0-2.58,3.1-4.11,5.54-5.74,2.04-1.36,4.12-4.04,7-4.09,1.63-.02,2.28,2.45,3.28,3.94.83,1.24,3.18,2.28,3.22,4.09Z"/>
        <path class="cls-1" d="M309.96,248.96c-.15.26-1.69-.99-2.16-.87-.44.11-1.03,2.04-1.32,1.92-5.24-2.04-9.8-5.85-15.04-7.88s-11.24-2.31-16.34-4.68c-7.91-3.69-14.86-9.36-22.73-13.31s-15-6.67-22.95-10.63c-4.38,13.96-1.95,14.34-1.95,28.97s.37,14.62,1.99,29.16c3.05-1.85,5.49-2.72,8.36-4.49s4.94-5.34,7.96-6.96c4.44-2.37,9.84-2.89,14.35-5.14s8.15-6.25,12.69-8.44c1.02-.5,2.35,1.03,3.44,1.14.88.09,2.56-1.28,3.61-.39.82.69,1.9,2.3,3.57,1.97,1.36-.26,2.5-2.62,3.75-2.78,1.35-.17,2.98,1.6,4.32,1.39s2.56-2.42,3.9-2.63c.11.26-.74,1.9-.63,2.16s1.89.8,1.99,1.06c-1.18.96-3.71.6-4.87,1.6s-1.25,3.6-2.58,4.33c-6.62,3.59-14.21,5.36-20.88,8.87s-12.4,8.77-19.05,12.29c-3.93,2.08-8.8,2.4-12.72,4.49s-6.88,5.96-10.78,8.11c-2.64,1.45-4.99-.07-6.67-.91s-4.25-1.98-4.32-5.04c-.3-13.44,1.41-26.92,1.14-40.36-.28-13.44-2.54-26.84-2.78-40.28-.07-3.6,2.72-5.43,4.7-6.8s4.88-3.17,8.03-1.46c10.34,5.61,19.73,12.95,30.06,18.57s21.61,9.53,31.87,15.27c3.28,1.84,5.36,5.61,8.46,7.78s7.27,2.78,10.33,4.97c.77.55.07,2.69.67,3.49s2.79.57,3.23,1.41c.21.4-1.68,1.23-1.83,1.84-.14.55,1.46,1.85,1.21,2.28Z"/>
      </g>
    </g>
  </g>
</svg>