<?xml version="1.0" encoding="UTF-8"?>
<svg id="Layer_2" data-name="Layer 2" xmlns="http://www.w3.org/2000/svg" viewBox="0 0 436.48 411.29">
  <defs>
    <style>
      .cls-1 {
        fill: #fff;
        stroke-width: 0px;
      }
    </style>
  </defs>
  <g id="Layer_7" data-name="Layer 7">
    <g id="KuP3My.tif">
      <g>
        <path class="cls-1" d="M434.45,215.84c0-.91,1.99-1.9,1.93-2.81s-2.14-1.54-2.34-2.43c-1.72-7.52-5.24-14.16-11.39-16.78s-13.32-.59-20.07,3.25c-7.05,4.02-15.07,6.38-22.07,10.51-6.99,4.13-12.93,10.02-19.88,14.22-2.14,1.3-5.3,1.11-7.31,2.63s-2.79,4.67-4.81,6.14c-.2.15-1.45-1.41-1.7-1.3s-.08,2.11-.34,2.11c-2.69.02-5.39-1.97-8.12-1.97s-6.12,1.64-8.88,1.64c0-3.29,1.78-7.1,1.78-10.21s-2-6.39-2.03-9.56c-.08-7.8-1.57-15.57-6.7-20.69s-12.9-6.59-20.7-6.67c-1.62-.02-3.24-2.02-4.9-2.02s-3.88.26-5.58.26c19.32-15.73,34.35-32.28,40.84-51.85,6.56-19.79,4.13-41.55-4.57-65.39-7.18-19.66-16.79-36.35-31.37-47.26S262.94,2.26,242.01,1.18c-26.98-1.39-49.49,3.24-66.87,16.3s-28.46,33.63-37.07,58.52c-.24-.25-.73-1.56-1.01-1.86-.26-.27-1.99.81-2.25.52-10.22-11.32-20.62-20.86-33.21-25.08-12.68-4.26-26.61-2.85-41.52.69-14.8,3.51-27.84,8.43-37.27,17.83-9.37,9.34-14.44,22.43-18.55,37.02-.43,1.54-2.75,2.59-3.12,4.15s1.25,3.38.88,4.94C1.84,118.86,0,118.83,0,123.49s1.85,4.64,2,9.3c.36,1.49-1.26,3.24-.91,4.73s2.65,2.5,3.02,3.98c1.92,7.61,3,15.38,6.88,21.82s10.25,11.03,16.05,16.31c.39.35-.57,2.19-.11,2.61.36.33,1.62.94,2.11,1.38-7.49.87-14.24,1.62-18.78,5.58s-6.25,10.46-8.25,17.46C1.07,251.63,0,251.62,0,296.59s1.33,44.96,2,89.93c1.41,4.82,1.59,9.8,4.43,13.45s7.66,5.04,12.45,7.07c1.03.43,1.34,2.69,2.4,3.06s2.45-1.2,3.5-.81c26.31.19,26.3,2,52.61,2s26.29-1.28,52.59-2c2.3-1.5,4.8-1.46,5.78-3.03,1.25-1.99-.35-4.33-1.1-6.71-.67-2.13-.48-4.87-2.29-5.85-1.55-.83-4,.63-6.41.63-15.13,0-30.26-2-45.39-2s-30.26,2-45.39,2c-.57,0-1.13-2-1.7-2s-1.14,2-1.7,2c-4.56-.05-7.29-2.95-9.6-5.29s-5.18-5.09-5.19-9.66c-.01-18.45,1.98-36.9,1.98-55.35s-2-36.9-2-55.35c0-9.05,2-18.1,2-27.14s-2-18.1-1.99-27.15c0-4.99,2.84-7.91,5.2-10.3s5.28-5.24,10.27-5.24c44.4,0,88.8,1.99,133.2,1.99s88.8-2,133.2-1.99c4.98,0,7.89,2.85,10.27,5.25s5.2,5.32,5.2,10.3c0,27.36-1.99,54.71-1.99,82.07s2,54.71,1.99,82.07c0,5.12-2.82,8.1-5.2,10.52s-5.35,5.27-10.46,5.27c-15.63,0-31.25-1.99-46.88-1.99-15.63,0-31.25,2-46.87,2.01-3.3,0-6.81-.4-8.53,1.52-1.9,2.13-.87,5.34.48,8.33.51,1.15-.17,3.27.84,4.19s2.71-.02,3.6.9c26.3.45,26.29,2,52.6,2s26.31-1.95,52.61-2c.18-.11.92,1.58,1.1,1.46s-.49-2.01-.3-2.07c7.59-2.24,14.32-4.26,18.08-9.24s3.86-12.03,3.87-19.93c0-4.19,2-4.19,2-8.37s-2.45-4.32-1.99-8.48c.93,0,2.75,1.11,3.52,1.1.89,0,1.71-2,2.53-1.99,3.1.04,5.73,2.13,8.58,2.79,2.64.61,6.06-.12,8.85,1.79,8.03,5.49,15.27,12.28,23.69,17.2s17.93,7.92,26.41,12.7c7.78,4.38,16.1,5.64,22.44,1.84s9.19-11.73,9.2-20.61c.02-26.94,2.02-53.88,2.02-80.82s-2.01-53.88-2.03-80.82ZM77.23,183.9c-16.26-.04-30.39-8.5-41.15-19.31s-19.15-24.98-19.11-41.24c.04-16.27,8.49-30.39,19.3-41.15,10.81-10.76,24.97-19.15,41.24-19.11,16.26.04,30.39,8.5,41.15,19.3,10.77,10.81,19.16,24.97,19.13,41.23-.04,16.26-8.51,30.38-19.32,41.15-10.81,10.77-24.98,19.16-41.24,19.12ZM125.65,183.6c5.21-4.45,10.7-9.66,14.5-14.93s6.19-12.65,8.76-18.96c3.93,6.43,7.58,13.9,12.56,19.2,4.93,5.24,11.38,10.29,17.57,14.7-12.94,2.81-13.6-3.18-26.79-1.97s-13.64,4.69-26.6,1.97ZM151.04,99.84c-.02-22.83,11-42.9,26.03-57.99,15.03-15.09,35.05-26.2,57.88-26.27,22.86-.07,43.02,11.03,58.17,26.14s26.27,35.27,26.23,58.12c-.05,22.79-11.15,42.84-26.24,57.91-15.08,15.06-35.15,26.14-57.94,26.15-22.79.01-42.86-11.06-57.94-26.14-15.08-15.07-26.17-35.13-26.18-57.93ZM347.94,345.73c-.7,4.1-5.14-1.17-9.3-1.17s-8.6,5.27-9.3,1.17c-4.1-24.12,1.99-24.63,1.99-49.1s-6.08-24.98-1.99-49.1c.7-4.1,5.14,1.17,9.3,1.17s8.6-5.27,9.3-1.17c4.1,24.12-3.66,24.76-1.98,49.17,1.69,24.62,6.08,24.91,1.98,49.03ZM419.5,377.7c-.18,2.32-2.66,3.08-4.07,3.92s-3.37,2.56-5.41,1.37c-7.44-4.32-13.87-10.4-21.28-14.78s-15.83-7.08-23.2-11.53c-.59-.36.41-2.34.1-3.25-.28-.83-2.37-1.42-2.37-2.16-.05-16.75,2.03-33.51,2.05-50.26s-2.05-33.49-2.39-50.24c-.09-4.67,2.34-7.89,3.97-10.92s3.06-6.81,7.35-8.93c6-2.97,12.77-4.57,18.53-8.03s10.42-8.73,16.21-12.11c2.75-1.61,5.01-.17,6.59.74s3.95,2.14,3.96,5.33c.02,13.29-1.97,26.58-1.98,39.87s1.99,26.58,1.99,39.87c0,19.41-2,19.41-2,38.81s2,19.41,2,38.81c0,.56-1.98,1.14-1.98,1.7s2,1.2,1.95,1.76Z"/>
        <path class="cls-1" d="M171.6,409.2c-.43.35-2.07-.95-2.54-.65s-.31,2.43-.78,2.74c-1.27.13-1.38-1.99-2.65-1.99s-1.64,2.34-2.85,1.95c-.95-1.11-1.05-3.79-2.08-4.87-1.08-1.13-3.69-1.27-4.2-2.62-.76-2.01,1.42-3.96,2.52-5.74s1.6-4.56,3.57-5.24c1.92-.66,3.93,1.32,5.75,2.05s4.63.63,5.61,2.41c.98,1.78-.61,4.11-.99,6.02s.22,4.66-1.38,5.94Z"/>
        <path class="cls-1" d="M1.52,385.68c1.41,4.82,2.07,10.64,4.9,14.29s7.66,5.05,12.45,7.07c1.03.43,1.35,2.69,2.4,3.06s2.57.79,3.62,1.18c-3.96,0-8.05-1.99-12.01-1.99s-8.63,1.71-12.59,1.71c0-3.96,1.71-8.63,1.71-12.59s-.48-8.77-.48-12.73Z"/>
        <path class="cls-1" d="M210.43,281.19c0-3.52.96-6.73-.68-8.36s-4.85-.67-8.37-.67c-24.1,0-48.2-2.01-72.3-2.01s-48.19,2-72.29,2.01c-3.52,0-6.74-.93-8.35.74s-.6,4.86-.6,8.39c0,13-2.01,26-2.01,39s2,26,2.01,39c0,3.66-.97,6.93.67,8.58s4.92.67,8.58.67c12.01,0,24.03,2.01,36.04,2.01s24.03-2,36.04-2c17.91,0,17.91,2,35.83,2s17.91-2,35.83-2c3.8,0,7.12,1.03,8.81-.58s.78-4.97.79-8.77c0-13,2.01-26,2.01-39.01s-2.01-26-2.01-39.01ZM194.71,353.17c-29.21,14.36-32.98-1.9-65.53-1.9s-36.32,16.25-65.53,1.9c-14.36-7.06,1.44-16.9,1.44-32.89s-15.8-25.84-1.44-32.89c29.21-14.36,32.98,1.9,65.53,1.9s36.32-16.25,65.53-1.9c14.36,7.06-5.38,17.64-1.41,33.14,4.53,17.69,15.77,25.59,1.41,32.64Z"/>
        <path class="cls-1" d="M288.48,313.79c-.02-2.68.82-5.57-.72-7.07s-4.41-.59-7.1-.61c-6.64-.03-13.27-2.05-19.91-2.05s-13.27,2.02-19.91,2.05c-2.82,0-5.76-.88-7.3.64s-.67,4.47-.7,7.29c-.03,3.32-2.04,6.63-2.03,9.95s2.02,6.63,2.02,9.96-2.01,6.49-2.01,9.74,2,6.49,2.02,9.73c.02,2.96-.92,5.95.57,7.53s4.52.78,7.47.79c6.64.03,13.27,2.05,19.9,2.05s13.27-2.01,19.9-2.05c2.68-.02,5.57.86,7.09-.64s.68-4.4.7-7.07c.04-6.71,2.06-13.41,2.06-20.12s-2.02-13.41-2.06-20.12ZM273.05,346.18c-4.11,4.11-6.52-1.71-12.34-1.71s-8.23,5.82-12.34,1.71,1.71-6.52,1.71-12.33-5.82-8.22-1.71-12.33,6.52,1.71,12.34,1.71,8.23-5.82,12.34-1.71-3.05,6.92-1.68,12.57c1.56,6.42,5.79,7.99,1.68,12.1Z"/>
        <path class="cls-1" d="M260.69,224.63c-7.99,0-15.9,1.47-21.1,6.65s-6.74,13.08-6.75,21.06c-.01,8.1,1.49,16.06,6.72,21.28s13.2,6.7,21.3,6.67c7.98-.02,15.87-1.55,21.05-6.79,5.15-5.22,6.61-13.13,6.6-21.12-.01-7.99-1.51-15.89-6.72-21.08s-13.1-6.67-21.1-6.67ZM260.33,265.31c-3.19-.11-5.37-3.27-7.48-5.5s-5.16-4.64-5.01-7.81c.14-3.13,3.26-5.23,5.42-7.3s4.42-5.11,7.53-5.08c3.18.03,5.43,3.15,7.58,5.36s5.23,4.54,5.15,7.72c-.07,3.19-3.21,5.4-5.43,7.53s-4.59,5.2-7.76,5.09Z"/>
        <path class="cls-1" d="M235.38,34.57c-18.39-.02-35.66,5.6-47.64,17.51s-17.71,29.18-17.73,47.54c-.02,18.24,5.59,35.47,17.44,47.46s29.08,17.8,47.28,17.82c18.39.02,35.69-5.55,47.72-17.38,12.11-11.91,17.9-29.14,17.93-47.47.03-18.37-5.59-35.66-17.48-47.67s-29.18-17.8-47.52-17.82ZM235.09,149.96c-13.52-.02-25.13-7.37-34.05-16.4-8.9-9.01-16.12-20.69-16.06-34.22.06-13.37,7.44-24.92,16.45-33.8,9-8.88,20.63-16.11,34.02-16.02,13.4.09,24.95,7.44,33.85,16.41s16.16,20.6,16.1,33.99c-.06,13.4-7.4,24.95-16.35,33.87-8.96,8.92-20.56,16.19-33.95,16.17Z"/>
        <path class="cls-1" d="M77.48,85.48c-10.82-.01-21.29,2.59-28.36,9.61s-9.75,17.48-9.76,28.3c-.01,10.82,2.6,21.29,9.62,28.36s17.49,9.75,28.3,9.76c10.82.01,21.29-2.6,28.36-9.62,7.08-7.03,9.74-17.49,9.75-28.3.01-10.83-2.59-21.3-9.61-28.36s-17.48-9.74-28.3-9.75ZM77.43,146.55c-5.93.02-10.72-4.17-14.75-8.14s-8.28-8.69-8.37-14.63c-.09-6.01,4.11-10.9,8.14-14.98s8.84-8.35,14.86-8.37c6-.02,10.85,4.24,14.89,8.3s8.28,8.93,8.22,14.92c-.06,5.94-4.29,10.68-8.29,14.66s-8.77,8.21-14.7,8.23Z"/>
        <path class="cls-1" d="M267.78,99.68c0,2.42-2.61,3.85-4.13,5.38s-2.95,4.15-5.36,4.14c-2.32-.01-3.75-2.72-5.31-4.28s-4.26-3.06-4.21-5.36c.05-2.23,2.74-3.56,4.28-5.07s2.89-4.17,5.13-4.2c2.42-.04,3.88,2.56,5.42,4.06s4.17,2.91,4.18,5.33Z"/>
        <path class="cls-1" d="M244.65,76.19c.08,2.32-2.56,3.86-4.07,5.49s-2.85,4.39-5.16,4.47c-2.29.08-3.78-2.6-5.38-4.18s-4.28-2.97-4.31-5.28c-.03-2.42,2.58-3.87,4.08-5.41s2.91-4.17,5.33-4.18c2.31,0,3.7,2.6,5.22,4.05s4.2,2.74,4.28,5.03Z"/>
        <path class="cls-1" d="M221.57,99.93c-.06,2.33-2.79,3.68-4.42,5.19s-3.13,4.13-5.48,4.07c-2.37-.06-3.72-2.77-5.2-4.37s-4.08-3.14-3.97-5.51c.1-2.3,2.77-3.56,4.31-5.01s2.94-4.04,5.24-4.03c2.32.02,3.76,2.73,5.32,4.29s4.27,3.07,4.2,5.37Z"/>
        <path class="cls-1" d="M244.66,122.96c0,2.3-2.62,3.67-4.09,5.18s-2.77,4.16-5.08,4.22c-2.41.07-3.91-2.52-5.48-4s-4.23-2.85-4.27-5.26c-.03-2.35,2.62-3.84,4.12-5.43s2.91-4.33,5.24-4.35c2.3-.02,3.75,2.68,5.32,4.28s4.25,3.04,4.24,5.35Z"/>
      </g>
    </g>
  </g>
</svg>