<?xml version="1.0" encoding="UTF-8"?>
<svg id="Layer_2" data-name="Layer 2" xmlns="http://www.w3.org/2000/svg" viewBox="0 0 264.01 488.32" width="180" height="180">
  <defs>
    <style>
      .cls-1 {
        fill: #fff;
        stroke-width: 0px;
        
      }
    </style>
  </defs>
  <g id="Layer_7" data-name="Layer 7">
    <g id="vKO0T7.tif">
      <g>
        <path class="cls-1" d="M208.14,60.57c-2.93-14.23-6.63-27.09-14.91-36.52s-20.37-14.65-34.62-18.62c-2.69-.75-4.97-3.27-7.72-3.81s-5.74.95-8.47.38C137.69,1.78,137.73,0,133,0s-4.67,1.68-9.39,2c-5.52,1.01-11.29-.02-16.81.97s-10.66,3.97-16.16,5.09c-3.72.76-7.87-.31-11.56.62s-6.87,3.84-10.56,4.78c-12.01,3.06-22.17,6.99-28.78,14.77s-8.95,18.61-10.85,30.62c-4.05,25.7-10.14,51.08-14.26,76.76-4.12,25.69-6.27,51.69-10.35,77.39-.52,3.26-2.88,6.28-3.23,9.57s1.33,6.74.95,10.03C1.92,233.84,0,233.78,0,235.02s1.89,1.16,2,2.4c.75,6.03.08,12.21,2.07,17.74s6.38,9.79,9.93,14.85c3.06,4.37,4.86,9.57,8.58,12.86s9.06,4.42,13.98,6.46c2.59,1.07,4.52,3.9,7.18,4.83s6.15.02,8.82.98c-.12.63-1.73,1.9-1.83,2.47-.11.61,1.75,1.58,1.62,2.17-1.44,6.66-4.83,12.99-5.74,19.71s.67,13.54,1.24,20.41c.58,6.98.54,13.8,3.85,18.98s9.36,7.86,15.96,10.76c1.45.63,1.16,2.79,1.75,3.72s2.66,1.58,2.65,3.14c-.08,7.15-2.09,14.29-2.09,21.44s2.02,14.3,2.02,21.45c0,3.35-2,3.35-2,6.7s3.58,4.34,1.86,7.21c-4.48.75-9.89-.18-14.22.49s-8.42,3.42-12.68,4.56c-4.03,1.08-8.65.5-12.57,2.02s-6.96,5.06-10.7,6.92c-2.69,1.35-6.08,2.07-7.04,4.54-.9,2.31.97,5.03,2.19,8.08.18.45-1.69,1.34-1.68,1.86s1.99.96,1.99,1.45c.04,2.64-1.31,5.58-.25,7.72s4.17,2.78,6.44,4.13c2.41,1.44,4,4.7,6.6,5.95s5.97.38,8.74.72c8.95,1.11,17.73,4.06,26.73,4.86s18.15-.55,27.16-.07c14.08.75,28.15,2.7,42.02,1.3,13.85-1.4,27.11-6.1,40.55-10.79,2.44-.85,5.72-.06,8.05-1.32s3.43-4.38,5.32-6.13c3.74-3.47,7.9-8.01,7.59-13.07-.28-4.53-4.25-7.98-10.11-10.9-1.68-.84-2.5-3.56-4.23-4.36s-4.15.37-5.99,0c-6.39-1.31-12.41-4.57-18.83-5.75s-13.18-.27-19.64-1.14c-2.31-.31-2.96-2.45-3.87-3.38s-2.98-1.75-2.94-4.13c.13-9.39,2.17-18.77,2.16-28.17s-2.06-18.78-2.11-28.17c0-1.48,2.1-2.24,2.62-3.3s-.19-3.18,1.01-4.09c3.62-2.76,8.26-4.37,11.08-7.81s3.45-8.2,5.28-12.45c2.5-5.78,6.21-11.08,7.59-17.1s.37-12.53,1.12-18.72c.27-2.22,2.53-3.32,3.62-4.69s1.69-3.78,4.15-4.12c1.66-.24,3.89,1.12,5.51.39s2.15-3.35,3.54-4.3c4.48-3.05,9.41-5.51,11.98-9.84s2.39-9.97,3.09-15.22c1.9-14.31,5.6-28.4,7.24-42.75s1.21-28.92,2.77-43.28c1.34-12.3,4.58-24.39,5.81-36.7s.44-24.82,1.66-37.13c.81-8.2,3.53-16.3,3.63-24.5s-2.4-16.18-4.09-24.34ZM12.54,230.31c3.35-3.51,5.58,1.69,10.43,1.69s6.45-4.73,10.31-1.8c.63,7.85.4,16.63,2.56,24.13s6.67,15.17,10.52,22.15c-10.76-1.46-19.43-8.5-25.2-16.86-5.39-7.82-9.63-18.1-8.62-29.32ZM61.58,281.38c-4.56-5.01-7.45-15.01-10.77-24.58s-6.94-19.32-6.68-26.55c5.83.3,12.35,2.26,18.27,2.57,5.74.3,12.52-.83,18.53-.52-1.05,9.93-2.47,20.06-.34,29.05s7.82,16.92,13.56,25.06c-.13.23-1.96.52-2.09.75s.45,1.93.32,2.16c-4.8-1.05-9.21-4.06-14.01-5.11s-10.03-.16-14.82-1.24c-.29-.07.39-1.95.13-2.22-.23-.24-1.9.86-2.11.62ZM137.42,288.98c-4.26,0-9.26-.86-13.14-.86-4.14,0-8.16,1.99-12.16,1.93-.53,0-.71-2.07-1.25-2.3s-2.04,1.2-2.46.87c-6.5-5.01-10.35-15.56-13.5-25.86s-5.66-21.15-3.34-29.39c4.7.73,10,3.14,14.78,3.88s10.48.09,15.28.84c-.57,9.45-1.14,18.93,1.64,27.32s8.88,15.75,14.17,23.56ZM62.91,343.55c1.26-7.35,4.68-14.3,6.2-21.57s1.6-15.69,3.07-22.92c8.73.73,17.45,3.26,25.59,3.93s17.13-.53,25.61.17c-.54,2.69-2.45,6.12-2.99,8.84s.88,5.8.33,8.5c-1.01,4.96-3.95,9.52-4.95,14.48s-.08,10.33-1.19,15.26c-.78,3.45-3.29,4.65-4.87,5.92s-3.37,3.39-6.95,3.09c-5.19-.43-10.16-2.96-15.33-3.63s-10.63.53-15.75-.37c-3.14-.55-4.41-3.22-5.74-4.88s-3.56-3.66-3.01-6.82ZM131.79,442.97c8.79,1.04,17.52,3.8,26.05,5.36s17.63,2.06,25.58,6.23c.04.26-1.41,1.53-1.37,1.78s1.6,1.22,1.63,1.48c-1.5.68-3.96-.22-5.45.53s-2.44,3.31-4.05,3.61c-7.71,1.41-15.77,1.06-23.49,2.46s-15.26,4.58-23.07,5.13c-13.51.97-27.06-.68-40.55-1.32s-27.13-.29-40.43-3.26c-3.45-.77-6.28-3.73-9.64-4.96s-7.78-2.16-11.05-3.64c6.64-4.4,14.77-5.45,21.96-7.12s14.62-4.48,22.07-5.5c.17.27-.42,2.04-.31,2.21.21.31,2.15-.19,2.18-.01.29,2.5-1.11,4.99-.37,6.31,1.06,1.92,3.41,1.17,5.75.86,2.54-.33,4.91-.05,5.59-1.59s-1.18-3.99-1.19-6.03c-.02-10.72,1.98-21.45,1.98-32.17s-1.99-21.45-1.99-32.17c0-1.27,2-1.27,2-2.53s-2.57-2.89-1.43-3.43c6.32-.48,13.05.95,19.32.48s12.62-2.9,19.01-3.38c1.08.3-1.26,2.08-1.26,3.2s2,1.12,2,2.23c0,10.89-2,21.78-2,32.67s2,21.78,1.99,32.67c0,1.63-1.95,3.61-1.47,5.01s2.69,1.22,4.57,1.87c2.31.8,4.62,1.97,6.03.28,1.02-1.22.88-4.73,1.42-7.28ZM141.4,339.44c-1.06,3.93-4.65,6.1-7.4,8.58s-6.24,5.15-10.24,6.29c1.63-8.03,5.15-16.07,6.75-23.92s1.3-16.28,2.96-24.18c.11-.51,2.2-.2,2.71-.69s.39-2.62.9-2.66c1.92-.15,3.93,1.82,5.92,1.82s4.83-1.05,6.85-1.05c-1.4,5.96-4.68,11.76-6.03,17.63s-.84,12.32-2.42,18.16ZM153.72,290.27c-.56.04-.82-2.05-1.43-2.37s-2.34.84-2.72.41c-5.67-6.23-8.48-14.03-11.56-21.35s-6.67-14.77-6.77-23.29c0-.29,2.05-.25,2.23-.75.1-.28-.28-1.86-.14-2.3,9.32,5.02,14.49,13.58,19.83,21.73s11.22,16.17,16.04,25.15c-2.61.29-6.08-.18-8.37.08-2.52.29-4.72,2.52-7.11,2.68ZM198.81,114.23c-1.23,12.14-4.44,24.09-5.68,36.23s-.51,24.49-1.83,36.63c-1.43,13.12-4.87,26.02-6.36,39.13s-1.05,26.45-2.64,39.55c-.28,2.29-2.91,4.09-3.76,6.51-.73,2.09-.88,5.61-1.66,8.12-1.72-3.14-2.14-7.45-3.61-10.14-1.65-3.03-4.94-4.88-6.54-7.68-3.13-5.46-4.89-11.83-8.84-16.58s-9.75-7.51-15.11-11.02c-.44-.28.52-2.14.19-2.69s-2.42-.82-2.37-1.32c.39-3.91,2.84-7.58,3.34-11.61.47-3.78-.66-8.58-.14-12.72,2.78,1.45,5.58,4.47,8.13,5.79,2.71,1.41,6.27,1.02,8.85,2.44,1.95,1.08,3.18,3.52,4.64,3.54,1.89.02,2.46-2.32,3.4-4.25.96-1.96,2.8-3.62,2.15-5.03s-3.36-1.28-5.14-2.2c-2.94-1.52-4.99-4.78-7.95-6.27s-6.82-1.2-9.75-2.75c-.51-.27-.03-2.32-.55-2.77-.64-.55-2.78-.47-2.74-.94.45-5.14,2.97-10.08,3.54-15.35s-.65-10.89-.06-16.27c2.6,1.49,5.31,4.38,7.66,5.72,2.53,1.44,5.95,1.11,8.36,2.53,1.95,1.15,3.11,3.62,4.56,3.65,1.85.04,2.44-2.35,3.5-4.25,1.11-1.99,2.92-3.57,2.27-4.96s-3.48-1.31-5.15-2.28c-2.79-1.63-4.63-4.92-7.45-6.48s-6.65-1.41-9.41-3.07c-.6-.36.07-2.43-.44-3.1-.56-.74-2.74-1.01-2.69-1.66.37-5.1,2.83-10.02,3.34-15.27.48-4.96-.78-10.75-.25-16.13,2.61,1.26,5.45,3.9,7.81,5.01,2.55,1.2,5.88.6,8.25,1.9,1.72.94,2.87,3.5,4.4,3.5s2.14-2.29,3.46-4.14c1.23-1.71,3.19-3.36,2.42-5.04-.63-1.37-3.32-1.34-5.33-2.41-3.18-1.69-5.54-5.03-8.87-6.57s-7.86-1.7-11.23-3.28c.51-5.88,2.96-12.19,3.5-18.4.51-5.88-.8-12.55-.27-18.76,2.53,1.48,5.32,4.31,7.73,5.71s5.95,1.16,8.39,2.62c1.74,1.04,2.95,3.65,4.59,3.65s2.33-2.32,3.7-4.25c1.18-1.67,2.93-3.36,1.98-5.05-.73-1.31-3.45-1.23-5.33-2.35-2.84-1.71-4.69-5.08-7.55-6.76s-6.76-1.71-9.52-3.54c-.68-.46.15-2.56-.3-3.49s-2.61-1.53-2.58-2.35c.15-3.99,2.4-7.85,2.69-11.83s-1.37-8.1-1.05-12.07c.16-1.95,1.96-4.14,1.25-5.52s-2.99-.86-5.3-1.03c-2.24-.16-4.45-1.13-5.42.08s.38,3.6.23,5.61c-.75,9.85-3.5,19.56-4.29,29.41s.4,19.87-.46,29.72c-1.04,11.83-4.1,23.48-5.2,35.3s-.26,23.84-1.45,35.65c-1.14,11.24-4.33,22.25-5.57,33.48s-.5,22.66-1.72,33.89c-.04.44-2.09.6-2.18,1.09-.07.41.66,2,.58,2.51-19.17-4-38.16-8.55-57.57-9.99-19.25-1.42-38.91.25-58.62.76.55-3.67,2.24-8.1,2.78-11.72s-.4-8.2.15-11.9c6.71-.35,13.89,1.17,20.5.82s13.22-2.69,19.87-3c2.83-.13,5.42,1.43,6.98.79,2.39-.99,2.01-3.53,1.9-6.12-.12-2.59.05-5.15-2.49-5.87-1.6-.46-4,1.38-6.86,1.54-6.2.34-12.52-1.3-18.8-.94s-12.73,2.6-19.1,2.97c.51-3.45,2.39-7.51,2.86-10.75.49-3.39-.93-7.06-.18-10.3.17-.75,2.55-.42,3.68-1.01.99-.52,1.56-2.77,2.44-2.86,7.25-.68,14.68.72,21.94.15s14.37-3.09,21.64-3.63c.99-.08,2.01,1.94,3.02,1.99s2.06-1.88,3.05-1.85c2.61.06,4.93,1.79,6.42,1.26,2.23-.8,1.94-3.28,2.02-5.64.08-2.28.62-4.91-1.51-5.94-1.45-.7-3.87.85-6.54.9-8.75.19-17.56-1.47-26.38-1.09s-17.6,2.77-26.49,3.14c.33-2.34,1.93-5.84,2.34-8.67.37-2.53-1.23-5.48-.83-8.14.07-.49,2.15-.61,2.26-1.09s-1.74-1.34-1.67-1.83c.68-4.73,2.75-6.38,4.01-7.78,1.33-1.48,2.83-3.42,7.66-3.94,3.95-.43,8.1,1.19,12.07.86s7.77-2.63,11.74-2.9c1.9-.13,4.18,1.25,5.35.36s.3-3.14.43-5.2c.12-1.94.93-4.31-.51-5.33-1.23-.88-3.46.49-5.54.65-4.71.38-9.59-1.15-14.28-.67s-9.19,2.99-13.88,3.46c-.36.04-.81-1.96-1.3-1.97-.34,0-1.75.94-2.24.94.69-4.42,3.33-8.58,4.01-12.9s-.55-9.08.29-13.41c.15-.75,2.42-.52,3.28-1.17.76-.58.69-2.8,1.46-3.1,8.61-3.38,17.91-3.85,26.84-5.28,8.93-1.43,17.91-3.89,27.14-3.44,1.16.06,2.25,2.09,3.41,2.12s2.37-1.95,3.53-1.93c1.67.04,3.63,1.38,4.6.56s-.04-2.97.11-4.61c.16-1.72,1.59-3.74.74-4.82s-3.01-.13-4.81-.19c-4.2-.14-8.37-2.45-12.59-2.58s-8.39,1.89-12.55,2.45c-5.97.79-12.22,0-18.12,1.3s-11.33,4.66-17.22,5.9c-.38.08-1.09-1.85-1.73-1.78-.37.04-1.7.99-2.28,1.06.97-3.73,3.78-6.98,4.66-10.49s-.05-7.8,1.12-11.29c1.85-5.5,6.44-8.95,10.28-12.48s7.7-7.84,13.14-9.47c12.17-3.66,24.86-5.15,37.27-7.51,12.36-2.36,24.77-5.64,37.65-5.08,15.39.68,27.95,7.71,37.98,16.63s18.46,20.59,20.84,35.83c1.29,8.3-.41,16.7-.65,24.97s.97,16.69.13,24.97Z"/>
        <path class="cls-1" d="M237.15,19.01c-2.25,3.59-6.09,6.2-8.26,9.83s-2.72,8.32-5.13,11.8c-.62.89-2.99.09-4.36.54s-2.55,2.56-3.65,2.41c-.88-.12-.69-2.58-1.4-3.62-.63-.93-3.04-1.29-3.62-2,.4-.83,2.6-1.21,2.86-1.78.38-.83-1.1-2.38-.75-2.96,2.14-3.55,6-6.07,8.16-9.62s2.59-8.13,4.74-11.68c1.03-1.7,3.5-1.6,4.92-2.23s3.23-2.31,5.12-1.13c1.9,1.18,1.17,3.49,1.22,5.06s1.23,3.68.17,5.38Z"/>
        <path class="cls-1" d="M260.34,50.95c-4.3,1.62-9.32,1.25-13.67,2.75s-8.11,4.86-12.45,6.36c-.07-.21.53-1.7.46-1.91s-1.14.9-1.21.69c-1.82.12-2.78-2-3.95-2.79s-3.52-1.2-3.72-3.12c-.19-1.93,2.02-2.69,3.05-3.69s1.49-3.26,3.23-3.71c3.82-.98,8.16-.1,11.95-1.21s6.96-4.19,10.71-5.43c1.77-.59,3.34,1.17,4.63,1.56,1.37.41,3.65.03,4.47,1.75.76,1.61-1.01,3.19-1.51,4.47s-.36,3.67-1.97,4.28Z"/>
        <path class="cls-1" d="M260.46,84.92c-1.05,1.96-3.33,1.25-4.91,1.34-1.47.08-3.43,1.52-5.25.88-2.9-1.03-5.32-3.81-8.34-4.52s-6.43.73-9.48.36c-1.94-.23-3.28-2.3-4.73-2.94s-3.97-.9-4.15-3.29c-.18-2.37,2.2-3.13,3.56-4.07s2.59-3.13,4.59-3.24c.58-.03,1.29,1.91,1.87,1.87s.74-2.04,1.32-2.08c.06-.17,1.39.94,1.46.77s-.54-1.66-.47-1.84c3.4,1.14,6.24,4.14,9.64,5.27s7.47.4,10.82,1.68c1.86.71,1.99,3.23,2.66,4.69s2.41,3.25,1.41,5.13Z"/>
      </g>
    </g>
  </g>
</svg>